<svg width="96" height="96" viewBox="0 0 96 96" fill="none" xmlns="http://www.w3.org/2000/svg">
<circle cx="47.8815" cy="47.8813" r="34" transform="rotate(-39.7498 47.8815 47.8813)" fill="#D9D9D9"/>
<circle cx="48.1771" cy="48.1754" r="29.2393" transform="rotate(-39.7498 48.1771 48.1754)" fill="#737477"/>
<path d="M37.5859 44.374H58.2891C58.6113 44.374 58.875 44.6377 58.875 44.96V57.6553C58.875 58.9492 57.8252 59.999 56.5312 59.999H39.3438C38.0498 59.999 37 58.9492 37 57.6553V44.96C37 44.6377 37.2637 44.374 37.5859 44.374ZM58.875 42.2256V40.4678C58.875 39.1738 57.8252 38.124 56.5312 38.124H54.1875V35.585C54.1875 35.2627 53.9238 34.999 53.6016 34.999H51.6484C51.3262 34.999 51.0625 35.2627 51.0625 35.585V38.124H44.8125V35.585C44.8125 35.2627 44.5488 34.999 44.2266 34.999H42.2734C41.9512 34.999 41.6875 35.2627 41.6875 35.585V38.124H39.3438C38.0498 38.124 37 39.1738 37 40.4678V42.2256C37 42.5479 37.2637 42.8115 37.5859 42.8115H58.2891C58.6113 42.8115 58.875 42.5479 58.875 42.2256Z" fill="white"/>
</svg>
