<svg width="75" height="77" viewBox="0 0 75 77" fill="none" xmlns="http://www.w3.org/2000/svg">
<ellipse rx="26.7991" ry="26.8749" transform="matrix(0.763941 -0.645286 0.633566 0.773689 37.5 38.0857)" fill="#EFEFEF"/>
<ellipse rx="23.0467" ry="23.1119" transform="matrix(0.763941 -0.645286 0.633566 0.773689 37.7309 38.3193)" fill="#737477"/>
<path d="M29.4377 35.2959H45.652C45.9044 35.2959 46.1109 35.5057 46.1109 35.762V45.8601C46.1109 46.8893 45.2887 47.7244 44.2753 47.7244H30.8143C29.8009 47.7244 28.9788 46.8893 28.9788 45.8601V35.762C28.9788 35.5057 29.1853 35.2959 29.4377 35.2959ZM46.1109 33.587V32.1888C46.1109 31.1596 45.2887 30.3246 44.2753 30.3246H42.4397V28.3049C42.4397 28.0486 42.2332 27.8389 41.9808 27.8389H40.4512C40.1988 27.8389 39.9923 28.0486 39.9923 28.3049V30.3246H35.0974V28.3049C35.0974 28.0486 34.8909 27.8389 34.6385 27.8389H33.1088C32.8564 27.8389 32.6499 28.0486 32.6499 28.3049V30.3246H30.8143C29.8009 30.3246 28.9788 31.1596 28.9788 32.1888V33.587C28.9788 33.8434 29.1853 34.0531 29.4377 34.0531H45.652C45.9044 34.0531 46.1109 33.8434 46.1109 33.587Z" fill="white"/>
</svg>
