<svg width="48" height="48" viewBox="0 0 48 48" fill="none" xmlns="http://www.w3.org/2000/svg">
<circle cx="24" cy="23.9998" r="17.0421" transform="rotate(-39.7498 24 23.9998)" fill="#EFEFEF"/>
<circle cx="24.1512" cy="24.1476" r="14.6558" transform="rotate(-39.7498 24.1512 24.1476)" fill="#901A1E"/>
<path d="M18.8406 22.2421H29.2177C29.3793 22.2421 29.5114 22.3742 29.5114 22.5358V28.8991C29.5114 29.5477 28.9852 30.0739 28.3367 30.0739H19.7216C19.0731 30.0739 18.5469 29.5477 18.5469 28.8991V22.5358C18.5469 22.3742 18.679 22.2421 18.8406 22.2421ZM29.5114 21.1652V20.2841C29.5114 19.6355 28.9852 19.1093 28.3367 19.1093H27.1619V17.8367C27.1619 17.6751 27.0297 17.543 26.8682 17.543H25.8892C25.7277 17.543 25.5955 17.6751 25.5955 17.8367V19.1093H22.4628V17.8367C22.4628 17.6751 22.3306 17.543 22.1691 17.543H21.1901C21.0286 17.543 20.8964 17.6751 20.8964 17.8367V19.1093H19.7216C19.0731 19.1093 18.5469 19.6355 18.5469 20.2841V21.1652C18.5469 21.3267 18.679 21.4589 18.8406 21.4589H29.2177C29.3793 21.4589 29.5114 21.3267 29.5114 21.1652Z" fill="white"/>
</svg>
