<svg width="23" height="20" viewBox="0 0 23 20" fill="none" xmlns="http://www.w3.org/2000/svg">
<path d="M0.974609 4.03174H21.2871C21.7186 4.03174 22.0684 3.68198 22.0684 3.25049V1.29736C22.0684 0.865869 21.7186 0.516113 21.2871 0.516113H0.974609C0.543115 0.516113 0.193359 0.865869 0.193359 1.29736V3.25049C0.193359 3.68198 0.543115 4.03174 0.974609 4.03174ZM0.974609 11.8442H21.2871C21.7186 11.8442 22.0684 11.4945 22.0684 11.063V9.10986C22.0684 8.67837 21.7186 8.32861 21.2871 8.32861H0.974609C0.543115 8.32861 0.193359 8.67837 0.193359 9.10986V11.063C0.193359 11.4945 0.543115 11.8442 0.974609 11.8442ZM0.974609 19.6567H21.2871C21.7186 19.6567 22.0684 19.307 22.0684 18.8755V16.9224C22.0684 16.4909 21.7186 16.1411 21.2871 16.1411H0.974609C0.543115 16.1411 0.193359 16.4909 0.193359 16.9224V18.8755C0.193359 19.307 0.543115 19.6567 0.974609 19.6567Z" fill="black"/>
</svg>
