<svg width="23" height="26" viewBox="0 0 23 26" fill="none" xmlns="http://www.w3.org/2000/svg">
<path d="M1.99414 23.4492C1.99414 24.0708 2.24107 24.667 2.68061 25.1065C3.12015 25.546 3.71629 25.793 4.33789 25.793H18.4004C19.022 25.793 19.6181 25.546 20.0577 25.1065C20.4972 24.667 20.7441 24.0708 20.7441 23.4492V7.04298H1.99414V23.4492ZM15.2754 10.9492C15.2754 10.742 15.3577 10.5433 15.5042 10.3968C15.6507 10.2503 15.8494 10.168 16.0566 10.168C16.2638 10.168 16.4626 10.2503 16.6091 10.3968C16.7556 10.5433 16.8379 10.742 16.8379 10.9492V21.8867C16.8379 22.0939 16.7556 22.2926 16.6091 22.4392C16.4626 22.5857 16.2638 22.668 16.0566 22.668C15.8494 22.668 15.6507 22.5857 15.5042 22.4392C15.3577 22.2926 15.2754 22.0939 15.2754 21.8867V10.9492ZM10.5879 10.9492C10.5879 10.742 10.6702 10.5433 10.8167 10.3968C10.9632 10.2503 11.1619 10.168 11.3691 10.168C11.5763 10.168 11.7751 10.2503 11.9216 10.3968C12.0681 10.5433 12.1504 10.742 12.1504 10.9492V21.8867C12.1504 22.0939 12.0681 22.2926 11.9216 22.4392C11.7751 22.5857 11.5763 22.668 11.3691 22.668C11.1619 22.668 10.9632 22.5857 10.8167 22.4392C10.6702 22.2926 10.5879 22.0939 10.5879 21.8867V10.9492ZM5.90039 10.9492C5.90039 10.742 5.9827 10.5433 6.12921 10.3968C6.27573 10.2503 6.47444 10.168 6.68164 10.168C6.88884 10.168 7.08755 10.2503 7.23407 10.3968C7.38058 10.5433 7.46289 10.742 7.46289 10.9492V21.8867C7.46289 22.0939 7.38058 22.2926 7.23407 22.4392C7.08755 22.5857 6.88884 22.668 6.68164 22.668C6.47444 22.668 6.27573 22.5857 6.12921 22.4392C5.9827 22.2926 5.90039 22.0939 5.90039 21.8867V10.9492ZM21.5254 2.35548H15.666L15.207 1.44239C15.1098 1.24718 14.96 1.08298 14.7746 0.96825C14.5891 0.853521 14.3753 0.792821 14.1572 0.792977H8.57617C8.35858 0.792141 8.14516 0.852615 7.96035 0.967471C7.77555 1.08233 7.62683 1.24692 7.53125 1.44239L7.07227 2.35548H1.21289C1.00569 2.35548 0.806976 2.43779 0.660463 2.5843C0.513951 2.73081 0.431641 2.92953 0.431641 3.13673L0.431641 4.69923C0.431641 4.90643 0.513951 5.10514 0.660463 5.25165C0.806976 5.39817 1.00569 5.48048 1.21289 5.48048H21.5254C21.7326 5.48048 21.9313 5.39817 22.0778 5.25165C22.2243 5.10514 22.3066 4.90643 22.3066 4.69923V3.13673C22.3066 2.92953 22.2243 2.73081 22.0778 2.5843C21.9313 2.43779 21.7326 2.35548 21.5254 2.35548V2.35548Z" fill="#747681"/>
</svg>
