<svg width="21" height="21" viewBox="0 0 21 21" fill="none" xmlns="http://www.w3.org/2000/svg">
<path d="M10.5 15.1812C11.2877 15.1812 11.9262 14.5427 11.9262 13.755C11.9262 12.9673 11.2877 12.3287 10.5 12.3287C9.7123 12.3287 9.07375 12.9673 9.07375 13.755C9.07375 14.5427 9.7123 15.1812 10.5 15.1812Z" fill="white"/>
<path d="M14.5687 8.26H6.43125C6.36125 8.26 6.3 8.26 6.23 8.26V7.245C6.23 4.68125 6.95625 2.975 10.5 2.975C14.2887 2.975 14.77 4.82125 14.77 6.43125C14.77 6.7725 15.0413 7.04375 15.3825 7.04375C15.7238 7.04375 15.995 6.7725 15.995 6.43125C15.995 3.325 14.1488 1.75 10.5 1.75C5.57375 1.75 5.005 4.8825 5.005 7.245V8.33875C2.555 8.645 1.75 9.8875 1.75 12.9412V14.5687C1.75 18.1562 2.84375 19.25 6.43125 19.25H14.5687C18.1562 19.25 19.25 18.1562 19.25 14.5687V12.9412C19.25 9.35375 18.1562 8.26 14.5687 8.26ZM10.5 16.3975C9.03875 16.3975 7.8575 15.2075 7.8575 13.755C7.8575 12.2937 9.0475 11.1125 10.5 11.1125C11.9525 11.1125 13.1425 12.3025 13.1425 13.755C13.1425 15.2163 11.9613 16.3975 10.5 16.3975Z" fill="white"/>
</svg>
