<svg width="82" height="114" viewBox="0 0 82 114" fill="none" xmlns="http://www.w3.org/2000/svg">
<path d="M82 30.6568C82 47.5257 68.3589 61.3135 51.5757 61.3135C34.7159 61.3135 21.1514 47.6027 21.1514 30.6568C21.1514 13.7108 34.7159 0 51.5757 0C68.3589 0 82 13.7108 82 30.6568ZM28.8916 75.3324C28.8916 83.3432 22.4542 89.8135 14.4841 89.8135C6.51402 89.8135 0 83.3432 0 75.3324C0 67.3216 6.51402 60.8514 14.4841 60.8514C22.4542 60.7743 28.8916 67.3216 28.8916 75.3324ZM59.086 106.451C59.086 110.611 55.714 114 51.5757 114C47.4374 114 44.0654 110.611 44.0654 106.451C44.0654 102.292 47.4374 98.9027 51.5757 98.9027C55.714 98.8257 59.086 102.215 59.086 106.451Z" fill="#901A1E"/>
<path d="M71.2711 29.3473V29.1932C71.2711 28.9621 71.3477 28.8851 71.6542 28.8081H72.114C72.114 28.8851 72.1907 29.4243 72.1907 29.5013H72.4206C72.4206 29.4243 72.3439 28.8851 72.3439 28.8081C72.4206 28.8081 73.0337 28.7311 73.1103 28.7311C73.1869 28.7311 73.2636 28.7311 73.2636 28.8851V29.4243C73.2636 29.8094 72.8804 29.8865 72.7271 29.8865C72.6505 29.9635 72.7271 30.0405 72.8038 30.1175C73.0337 30.1175 73.3402 30.0405 73.5701 30.0405C73.5701 29.1162 73.4935 28.577 73.4169 27.8067H73.1869V27.8838C73.1869 28.1148 73.0337 28.1919 72.7271 28.1919C72.4972 28.1919 72.114 28.2689 71.7309 28.2689C71.271 28.3459 71.2711 28.2689 71.1944 28.0378V27.9608H70.9645C71.0411 28.3459 71.0411 28.8081 71.1178 29.1932C71.1178 29.4243 71.1944 29.4243 71.2711 29.3473ZM37.0916 43.9054L37.1683 43.9824C37.3215 44.1365 37.3215 44.2905 37.0916 44.5216C37.015 44.5986 36.7851 44.7527 36.7084 44.8297C36.6318 44.7527 36.3253 44.3675 36.2486 44.2905C36.172 44.2905 36.0954 44.3675 36.0187 44.4446C36.0954 44.5216 36.4019 44.9067 36.4785 44.9838L35.9421 45.523C35.8654 45.6 35.8654 45.6 35.7888 45.523L35.4056 45.1378C35.1757 44.8297 35.4056 44.5216 35.5589 44.4446C35.5589 44.3675 35.4823 44.2905 35.4056 44.2905L34.8692 44.8297C35.4823 45.523 35.7888 45.9081 36.3253 46.4473C36.4019 46.4473 36.4785 46.3703 36.4785 46.2932L36.4019 46.2162C36.2486 45.9851 36.4019 45.9081 36.5552 45.677L37.2449 44.9838C37.5514 44.6757 37.6281 44.6757 37.7813 44.8297L37.858 44.9067C37.9346 44.9067 38.0112 44.8297 38.0112 44.7527C37.7047 44.4446 37.4748 44.1365 37.1683 43.8284C37.1683 43.7513 37.0916 43.8284 37.0916 43.9054ZM71.4243 32.4284C72.1907 32.1973 72.3439 32.1973 72.957 32.0432C73.1869 31.9662 73.2636 31.9662 73.2636 32.1973V32.2743C73.3402 32.3513 73.4169 32.3513 73.4935 32.2743C73.4935 31.8892 73.5701 31.504 73.5701 31.0419C73.4935 30.9648 73.4168 30.9648 73.3402 31.0419V31.1959C73.2636 31.35 73.2636 31.427 72.957 31.504C72.8038 31.5811 71.0411 31.9662 70.9645 31.9662C70.8879 31.9662 70.9645 31.9662 70.9645 32.0432C70.9645 32.0432 71.0411 32.3513 71.0411 32.5054C71.6542 32.8135 72.4206 33.1986 72.8038 33.4297C73.1103 33.5838 73.1869 33.7378 73.1869 33.8148V33.9689C73.2636 34.0459 73.3402 34.0459 73.4169 33.9689C73.4935 33.7378 73.4935 33.1986 73.5701 32.9676C73.4935 32.8905 73.4168 32.8905 73.3402 32.9676V33.1216C73.3402 33.2757 73.2636 33.2757 73.0337 33.1986C72.4206 32.8905 71.8841 32.6594 71.4243 32.4284ZM66.5197 17.9473C66.5197 17.8703 66.5963 17.7932 66.6729 17.7932L66.8262 17.9473C66.9795 18.1013 67.0561 18.1013 67.3626 17.8703C67.5925 17.7162 67.9757 17.3311 68.129 17.254C68.2823 17.1 68.5122 16.9459 68.3589 16.7919C68.3589 16.7148 68.2823 16.7148 68.2823 16.6378C68.2823 16.5608 68.3589 16.4838 68.4355 16.4838C68.7421 16.7919 69.0486 17.254 69.2019 17.4851C69.2019 17.5621 69.1253 17.6392 69.0486 17.6392C69.0486 17.5621 68.972 17.5621 68.972 17.5621C68.8187 17.4081 68.5888 17.4851 68.4355 17.6392C68.129 17.8703 67.8225 18.1784 67.5925 18.2554C67.286 18.4865 67.2094 18.5635 67.3626 18.7946L67.4393 18.9486C67.4393 19.0257 67.3626 19.1027 67.286 19.0257C67.0561 18.6405 66.7496 18.2554 66.5197 17.9473ZM33.1832 24.1865C33.1066 24.1865 33.0299 24.1865 32.9533 24.1094C32.9533 24.0324 32.9533 23.9554 33.0299 23.9554C33.0299 23.7243 33.0299 23.6473 32.6468 23.4932C32.4168 23.4162 31.8804 23.1851 31.7271 23.1081C31.4972 23.0311 31.2673 22.877 31.1907 23.1851C31.1907 23.2621 31.114 23.2621 31.114 23.3392C31.0374 23.3392 30.9608 23.3392 30.8841 23.2621C31.0374 22.8 31.1907 22.3378 31.344 22.1067C31.4206 22.1067 31.4972 22.1067 31.4972 22.1838C31.4972 22.2608 31.4972 22.2608 31.4206 22.3378C31.344 22.5689 31.5739 22.6459 31.8038 22.8C32.1869 22.954 32.5701 23.1081 32.8 23.1851C33.1066 23.3392 33.2598 23.3392 33.3365 23.1081L33.4131 22.954C33.4897 22.954 33.5664 22.954 33.5664 23.0311C33.4897 23.2621 33.2598 23.8784 33.1832 24.1865ZM68.2056 20.3351C68.2056 20.2581 68.2823 20.1811 68.3589 20.1811L68.4355 20.2581C68.4355 20.3351 68.5122 20.4121 68.6654 20.3351C68.8187 20.2581 68.8954 20.1811 68.972 20.1811C68.8954 20.027 68.5888 19.5648 68.3589 19.1797C68.3589 19.1027 68.4355 19.0257 68.4355 18.9486C68.5122 18.9486 70.7346 19.2567 70.8879 19.2567C70.9645 19.3338 70.8879 19.4878 70.8879 19.5648C70.8112 19.5648 68.8953 19.2567 68.7421 19.2567C68.8953 19.4878 69.1253 19.873 69.2019 19.95C69.2785 19.873 69.5851 19.7189 69.7383 19.6419H69.815L70.1215 19.95V20.027C69.9682 20.104 69.5851 20.3351 69.5084 20.3351C69.5851 20.4121 69.6617 20.6432 69.6617 20.6432C69.6617 20.7203 69.5084 20.7973 69.4318 20.7973C69.4318 20.7973 69.2785 20.5662 69.2785 20.4892C69.2019 20.4892 69.0486 20.6432 68.972 20.6432C68.8187 20.7203 68.972 20.8743 68.972 20.8743C68.972 20.9513 69.0486 20.9513 69.0486 21.0284C69.0486 21.1054 68.8954 21.1054 68.8954 21.1054C68.6654 21.0284 68.4355 20.7203 68.2056 20.3351ZM69.1253 22.6459C69.0486 22.5689 69.0486 22.4148 69.1253 22.3378C69.2019 22.3378 71.4243 22.4148 71.5776 22.4148C71.501 22.1838 71.3477 21.7216 71.2711 21.5676C71.1944 21.4135 71.0411 21.4135 70.9645 21.3365H70.8112C70.7346 21.3365 70.7346 21.1824 70.8112 21.1054C70.9645 21.1054 71.4243 21.0284 71.501 21.0284C71.501 21.1054 71.5776 21.1824 71.5776 21.2594C71.5776 21.3365 71.9608 22.1067 71.9608 22.2608C72.0374 22.4148 72.114 22.5689 72.114 22.6459C72.114 22.723 72.0374 22.723 72.0374 22.8C71.8841 22.723 71.7309 22.723 71.6542 22.723C71.5776 22.723 69.3552 22.6459 69.1253 22.6459ZM36.7084 18.4094C36.7084 18.4865 36.5552 18.5635 36.4019 18.5635C36.3253 18.4865 35.4056 16.5608 35.329 16.3297C35.1757 16.5608 34.8692 16.8689 34.7159 17.023C34.6393 17.177 34.6393 17.254 34.7159 17.4081C34.7159 17.4851 34.7159 17.4851 34.7926 17.4851C34.7926 17.5621 34.7159 17.6392 34.6393 17.6392C34.5626 17.5621 34.2561 17.1 34.1795 17.023C34.2561 16.9459 34.3327 16.8689 34.3327 16.7919C34.4094 16.7148 34.9458 16.0986 35.0225 15.9446C35.0991 15.8676 35.2524 15.7135 35.2524 15.6365H35.4056C35.4056 15.7905 35.4823 15.9446 35.5589 16.0216C35.6355 16.0986 36.6318 18.1784 36.7084 18.4094ZM69.8916 24.6486C69.8916 24.5716 70.0449 24.4946 70.1215 24.5716C70.2748 24.8027 70.4281 25.1108 70.8112 25.3419C71.1944 25.573 71.501 25.573 71.9608 25.4959C72.4206 25.4189 72.8038 25.1108 72.6505 24.7257C72.4972 24.3405 72.1907 24.4946 72.0374 24.4946C71.5776 24.6486 71.5776 24.9567 71.7309 25.1878C71.7309 25.2648 71.6542 25.3419 71.5776 25.2648C71.501 25.1878 71.3477 25.1108 71.3477 24.8027C71.271 24.3405 71.6542 24.0324 71.8075 23.9554C72.4206 23.8013 72.8038 24.1094 72.8804 24.4946C73.0337 25.0338 72.8804 25.65 72.0374 25.804C71.1178 26.1121 70.1982 25.4959 69.8916 24.6486ZM71.5776 39.2838C71.5776 39.2838 71.501 39.3608 71.501 39.4378C71.4243 39.5148 71.3477 39.5919 71.0411 39.4378L69.9683 38.9757C69.6617 38.8216 69.6617 38.8216 69.6617 38.5905V38.5135C69.6617 38.4365 69.5084 38.4365 69.4318 38.4365L69.2019 38.9757L68.972 39.4378C68.6654 39.977 68.5122 40.7473 69.3552 41.2865C70.0449 41.7486 70.7346 41.5176 71.2711 40.4392C71.501 40.054 71.5776 39.7459 71.7309 39.4378C71.7309 39.2838 71.5776 39.2838 71.5776 39.2838ZM71.1178 40.1311C71.1178 40.2081 71.1178 40.2081 71.0411 40.2851C70.7346 40.9013 70.2748 41.1324 69.6617 40.8243C69.2019 40.5932 69.0486 40.2851 69.0486 40.054C69.0486 39.9 69.0486 39.6689 69.1253 39.5148C69.2019 39.3608 69.2785 39.2838 69.3552 39.2838C69.4318 39.2838 69.5851 39.2838 69.7383 39.3608C69.7383 39.3608 70.9645 39.977 71.0411 39.977C71.1178 40.054 71.1178 40.054 71.1178 40.1311ZM66.9028 45.4459C66.9795 45.523 66.9795 45.6 66.9795 45.677C66.9795 45.754 66.9795 45.9851 66.8262 46.0621L66.5963 46.2932C66.5963 46.2932 65.7533 45.4459 65.6 45.2148C65.2935 44.9067 65.2935 44.8297 65.4468 44.6757L65.5234 44.5986C65.5234 44.5216 65.4468 44.4446 65.3701 44.4446C65.1402 44.6757 64.757 45.0608 64.5271 45.2148C64.5271 45.2919 64.6038 45.3689 64.6804 45.3689L64.757 45.2919C64.9103 45.1378 65.0636 45.2148 65.2935 45.523C65.4468 45.677 66.2897 46.6013 66.2897 46.6013L65.9832 46.9094C65.8299 47.0635 65.6767 46.9865 65.6 46.9094C65.5234 46.9094 65.5234 46.8324 65.4468 46.7554C65.3701 46.7554 65.2935 46.8324 65.2935 46.9094C65.3701 46.9865 65.6767 47.2946 65.7533 47.4486C66.443 46.8324 66.8262 46.4473 67.4393 45.8311L67.1327 45.2919C66.9795 45.2919 66.9028 45.3689 66.9028 45.4459ZM67.286 42.2108C67.286 42.2878 67.4393 42.3648 67.4393 42.3648L67.5159 42.2878C67.6692 42.1338 67.6692 42.2108 67.8225 42.4419C67.8991 42.5959 67.9757 42.673 67.9757 42.673C67.8991 42.75 67.5159 43.2892 67.4393 43.3662C67.3626 43.3662 67.3626 43.2892 67.1327 43.2892C66.9795 43.2121 66.8262 43.2121 66.9028 43.0581C66.9028 42.9811 66.9795 42.9811 66.9795 42.9811C66.9795 42.904 66.9028 42.827 66.8262 42.827C66.7496 42.9811 66.443 43.2121 66.1365 43.5973C66.1365 43.6743 66.2131 43.7513 66.2897 43.7513L66.3664 43.6743C66.5196 43.5203 66.7496 43.5973 66.9028 43.6743C67.0561 43.7513 68.8187 44.2905 68.8954 44.2905H68.972C68.972 44.2905 69.0486 44.0594 69.0486 43.9824C68.972 43.9054 68.2056 42.5959 68.0524 42.2878C67.8225 41.9027 67.8991 41.8257 67.8991 41.7486C67.8991 41.6716 67.9757 41.6716 67.9757 41.6716C67.9757 41.5946 67.8991 41.5176 67.8225 41.5946C67.6692 41.5946 67.286 42.1338 67.286 42.2108ZM68.5888 43.7513L67.5925 43.4432L68.0524 42.827L68.5888 43.7513ZM30.3477 31.1189C30.2711 31.1189 30.1944 31.0419 30.1178 31.0419C29.9645 30.9648 29.8879 30.8108 29.8879 30.5797V30.2716H31.344C31.7271 30.2716 31.8038 30.3486 31.8804 30.5027V30.5797H32.1103V29.4243C32.0337 29.3473 31.957 29.3473 31.8804 29.4243V29.5784C31.8038 29.8094 31.7271 29.8094 31.344 29.8094H29.8879V29.3473C29.8879 29.1162 30.1178 29.0392 30.1178 29.0392H30.3477C30.4243 28.9621 30.3477 28.8851 30.3477 28.8081H29.658C29.5813 29.7324 29.5813 30.2716 29.5813 31.1959C29.658 31.1959 30.1944 31.35 30.1944 31.35C30.3477 31.273 30.3477 31.1959 30.3477 31.1189ZM32.2636 33.1216C32.1869 33.0446 32.1103 33.1216 32.0337 33.1216V33.1986C32.0337 33.3527 31.957 33.3527 31.7271 33.2757C31.5739 33.1986 31.4972 33.1986 31.4206 33.1986C31.4206 33.0446 31.344 32.4284 31.344 32.2743C31.4206 32.1973 31.4206 32.1973 31.6505 32.1203C31.8038 32.0432 31.957 31.9662 31.957 32.1973V32.2743C32.0337 32.3513 32.1103 32.2743 32.1869 32.2743C32.1869 32.1203 32.1103 31.7351 32.1103 31.1959C32.0337 31.1189 31.957 31.1959 31.8804 31.1959V31.35C31.8804 31.5811 31.6505 31.6581 31.4972 31.7351C31.344 31.8121 29.658 32.5824 29.658 32.6594C29.5813 32.6594 29.5813 32.6594 29.658 32.7365C29.658 32.7365 29.8112 32.9676 29.8112 33.0446C29.9645 33.0446 31.344 33.5067 31.7271 33.5838C32.1103 33.7378 32.1103 33.8148 32.1869 33.8919V33.9689C32.2636 34.0459 32.3402 33.9689 32.4168 33.8919C32.4168 33.8148 32.2636 33.1986 32.2636 33.1216ZM30.2711 32.8905L31.1907 32.4284L31.2673 33.1986L30.2711 32.8905ZM35.7122 41.6716C35.4823 41.3635 35.1757 41.1324 34.7926 41.0554C34.486 40.9784 34.1028 41.0554 33.7963 41.2865C33.4897 41.5175 33.2598 41.8257 33.1832 42.1338C33.1066 42.5189 33.1832 42.827 33.4131 43.2121C33.8729 43.9054 34.7159 44.0594 35.329 43.6743C35.6355 43.4432 35.7888 43.2121 35.8654 42.827C36.0954 42.4419 35.9421 42.0567 35.7122 41.6716ZM35.0225 43.2121C34.7159 43.4432 34.486 43.5203 34.1795 43.4432C34.0262 43.4432 33.7963 43.2892 33.7197 43.1351C33.5664 42.9811 33.5664 42.75 33.5664 42.5959C33.643 42.2878 33.8729 41.9797 34.1795 41.8257C34.7159 41.4405 35.1757 41.5176 35.4823 41.9027C35.8654 42.3648 35.4823 42.904 35.0225 43.2121ZM40.2337 46.4473C40.2337 46.5243 40.157 46.6013 40.0804 46.6013C40.0804 46.6013 40.0038 46.6013 40.0038 46.5243C39.8505 46.4473 39.6972 46.4473 39.4673 46.7554C39.2374 47.0635 39.0075 47.3716 38.8542 47.5257C38.701 47.7567 38.5477 47.9108 38.7776 48.0648L38.8542 48.1419C38.8542 48.2189 38.7776 48.2959 38.701 48.2959C38.3178 47.9878 37.7047 47.5257 37.015 46.9865C37.0916 46.8324 37.3215 46.6013 37.3982 46.4473C37.4748 46.4473 37.5514 46.5243 37.6281 46.6013C37.6281 46.6784 37.5514 46.7554 37.5514 46.8324C37.5514 46.9094 37.4748 47.0635 37.6281 47.2175C37.7813 47.3716 38.0112 47.5257 38.0879 47.6027C38.1645 47.6797 38.2411 47.6027 38.2411 47.6027C38.3178 47.5257 38.6243 47.0635 38.701 46.9865C38.6243 46.9094 38.1645 46.6013 38.1645 46.5243C38.1645 46.4473 38.2411 46.3703 38.3178 46.3703C38.3944 46.4473 38.7776 46.7554 38.8542 46.8324C38.8542 46.8324 39.1608 46.5243 39.1608 46.4473C39.3907 46.1392 39.314 46.0621 39.1608 45.9081C39.0841 45.8311 39.0075 45.754 38.9309 45.754C38.7776 45.6 38.6243 45.6 38.3944 45.754C38.3178 45.8311 38.3178 45.8311 38.2411 45.8311C38.1645 45.8311 38.0879 45.754 38.0879 45.677C38.1645 45.6 38.5477 45.2919 38.6243 45.2148C39.0841 45.6 39.6206 46.0621 40.2337 46.4473ZM32.8767 36.7419C32.8767 36.6648 33.0299 36.6648 33.1066 36.6648C33.2598 37.05 33.3365 37.2811 33.4131 37.5892C33.4131 37.6662 33.3365 37.7432 33.1832 37.6662C33.1832 37.5892 33.1832 37.5892 33.1066 37.5892C33.0299 37.4351 33.0299 37.3581 32.5701 37.4351C32.3402 37.5121 31.5739 37.5892 31.4206 37.6662C31.1907 37.7432 30.9608 37.8203 31.0374 38.0513V38.1284C31.0374 38.2054 30.8841 38.2054 30.8075 38.2054C30.6542 37.8973 30.5776 37.5892 30.501 37.2811C30.6542 37.2811 30.7309 37.204 30.8841 37.05C31.114 36.8189 31.7271 36.3567 31.957 36.1257C31.7271 36.0486 30.6542 35.8946 30.5776 35.8946C30.4243 35.8946 30.1944 35.8176 30.0411 35.8946C29.9645 35.7405 29.8879 35.2784 29.8112 34.9703C29.8112 34.8932 29.9645 34.8932 30.0411 34.9703V35.0473C30.1178 35.2013 30.1178 35.2784 30.4243 35.2013C30.7309 35.1243 31.2673 34.8932 31.5739 34.8162C31.8804 34.6621 32.0337 34.5851 32.0337 34.4311V34.277C32.0337 34.2 32.1869 34.2 32.2636 34.2C32.3402 34.7392 32.4169 35.0473 32.4935 35.3554C32.4935 35.4324 32.3402 35.4324 32.2636 35.4324V35.3554C32.1869 35.2013 32.1869 35.1243 31.8038 35.2013C31.4972 35.3554 30.7309 35.5865 30.501 35.6635C30.8075 35.7405 31.5739 35.8176 31.957 35.8946C32.4168 35.9716 32.4935 35.9716 32.6468 35.9716C32.7234 35.9716 32.7234 36.0486 32.7234 36.1257C32.6468 36.1257 32.4168 36.3567 32.1869 36.5878C31.8804 36.8189 31.2673 37.4351 31.114 37.5121C31.4206 37.4351 32.1103 37.2811 32.3402 37.2811C32.6468 37.204 32.8767 37.127 32.8 36.973M70.658 34.5081C70.7346 34.4311 70.8112 34.5081 70.8879 34.5081V34.6621C70.8879 34.8162 70.9645 34.9703 71.3477 35.0473C71.6542 35.1243 72.0374 35.2013 72.3439 35.2784C72.6505 35.3554 72.8038 35.4324 72.8804 35.2013V35.0473H73.1103C73.1103 35.2013 72.957 35.5865 72.957 35.8176V35.9716C72.8804 35.9716 72.8804 35.9716 72.7271 36.0486C72.6505 36.0486 71.0411 36.8959 70.8112 36.973C70.9645 37.05 71.6542 37.2811 71.8075 37.3581C72.114 37.4351 72.2673 37.5121 72.3439 37.2811C72.3439 37.2811 72.3439 37.204 72.4206 37.127C72.4972 37.127 72.5739 37.127 72.6505 37.204C72.5739 37.5121 72.4206 37.8973 72.3439 38.2054C72.2673 38.2054 72.1907 38.2054 72.114 38.1284V38.0513C72.1907 37.8973 72.114 37.8203 71.7309 37.6662C71.4243 37.5892 70.1982 37.127 70.0449 37.05C70.0449 37.05 69.9683 36.973 70.0449 36.8959C70.4281 36.7419 72.4206 35.6635 72.5739 35.6635C72.4206 35.5865 71.5776 35.4324 71.3477 35.4324C70.9645 35.3554 70.8879 35.3554 70.8112 35.5865C70.8112 35.6635 70.8112 35.6635 70.7346 35.7405C70.658 35.7405 70.5813 35.7405 70.5047 35.6635C70.5047 35.2013 70.658 34.6621 70.658 34.5081ZM29.8879 27.4986C29.9645 27.4986 30.1944 27.5757 30.4243 27.6527L31.8038 28.577C32.0337 28.7311 32.0337 28.8081 32.0337 28.8851V29.0392C32.1103 29.1162 32.1869 29.1162 32.2636 29.0392C32.2636 28.9621 32.3402 28.5 32.3402 28.1919C32.3402 28.1148 32.1869 28.1148 32.1103 28.1919V28.3459C32.1103 28.423 32.0337 28.423 31.8804 28.3459C31.8038 28.2689 31.4972 28.1148 31.344 28.0378C31.344 27.9608 31.4206 27.3446 31.4206 27.2676H31.8804C32.1103 27.3446 32.1103 27.4986 32.1103 27.4986V27.6527C32.1103 27.7297 32.2636 27.7297 32.3402 27.6527C32.4168 26.9594 32.5701 26.4973 32.7234 25.727C32.4168 25.4959 32.1869 25.4189 32.1103 25.4189C32.0337 25.4189 31.957 25.573 32.0337 25.65C32.1103 25.65 32.1103 25.727 32.1869 25.727C32.4168 25.8811 32.4168 26.0351 32.4168 26.1892C32.4168 26.3432 32.4168 26.3432 32.3402 26.4973C32.2636 26.7284 32.1869 26.7284 31.957 26.7284H31.4206L31.4972 26.0351C31.4206 26.0351 31.344 25.9581 31.2673 26.0351L31.1907 26.7284C31.114 26.7284 30.501 26.6513 30.3477 26.6513C30.2711 26.6513 30.2711 26.5743 30.2711 26.5743C30.2711 26.4973 30.2711 26.3432 30.3477 26.1121C30.4243 25.804 30.5776 25.804 30.6542 25.804H30.8841C30.9608 25.727 30.9608 25.573 30.8841 25.573H30.2711C30.1178 26.1892 30.0411 26.4973 29.9645 26.9594C29.8879 27.1905 29.8879 27.2676 29.8879 27.4986C29.8112 27.4986 29.8112 27.4986 29.8879 27.4986ZM30.1178 27.1905L30.1944 27.1135C30.3477 27.1135 31.0374 27.1905 31.114 27.1905C31.114 27.3446 31.0374 27.7297 31.0374 27.8838C30.8075 27.7297 30.1944 27.3446 30.1178 27.2676V27.1905ZM64.2206 48.604C64.144 48.527 64.0673 48.373 63.9907 48.0648C63.9907 47.9878 63.7608 46.6784 63.6841 46.4473C63.6841 46.2162 63.6841 46.1392 63.7608 46.0621L63.8374 45.9851C63.8374 45.9081 63.7608 45.8311 63.6841 45.8311C63.6075 45.9081 63.301 46.1392 62.9944 46.3703C62.9178 46.4473 63.0711 46.5243 63.1477 46.5243C63.2243 46.5243 63.2243 46.4473 63.301 46.4473C63.3776 46.4473 63.4542 46.4473 63.4542 46.6013C63.4542 46.6784 63.5309 47.0635 63.5309 47.1405C63.4542 47.2176 62.9178 47.5257 62.9178 47.6027C62.9178 47.6027 62.6879 47.3716 62.6112 47.2175C62.458 46.9865 62.6112 46.9094 62.6879 46.8324L62.7645 46.7554C62.7645 46.6784 62.6879 46.6013 62.6112 46.6013C62.0748 46.9865 61.615 47.2176 60.9253 47.6797C61.0019 47.9878 61.1552 48.2189 61.1552 48.373C61.2318 48.45 61.3851 48.373 61.3851 48.2959V48.1419C61.3084 47.9108 61.4617 47.7567 61.615 47.6797C61.6916 47.6027 61.7682 47.6027 61.9215 47.5257C62.0748 47.3716 62.2281 47.5257 62.3813 47.6797C62.458 47.8338 62.6879 47.9878 62.6879 48.0648C62.6112 48.1419 62.2281 48.373 62.1514 48.45C62.1514 48.527 62.2281 48.604 62.3047 48.604C62.3813 48.527 62.7645 48.2959 62.9178 48.2189C62.9944 48.2959 63.3776 48.7581 63.4542 48.9121C63.5309 48.9892 63.4542 48.9892 63.3776 48.9892C63.301 48.9892 63.1477 49.1432 62.9944 49.2203C62.7645 49.3743 62.6112 49.2973 62.5346 49.2203C62.458 49.2203 62.3813 49.1432 62.3813 49.0662C62.2281 49.0662 62.2281 49.1432 62.2281 49.2203C62.3047 49.3743 62.5346 49.6054 62.6112 49.6824C63.1477 49.3743 63.4542 49.2203 63.8374 48.9121C63.914 48.8351 63.9907 48.7581 64.2206 48.604C64.2206 48.604 64.2206 48.6811 64.2206 48.604ZM63.7608 48.604C63.7608 48.604 63.6841 48.604 63.6841 48.527C63.6075 48.45 63.1477 47.9108 63.0711 47.7567C63.2243 47.6797 63.5309 47.4486 63.6075 47.3716C63.6841 47.6027 63.7608 48.373 63.8374 48.45L63.7608 48.604ZM32.2636 40.5162C32.7234 40.2851 33.4131 39.9 33.5664 39.823C33.8729 39.6689 33.9496 39.5919 33.8729 39.3608C33.8729 39.3608 33.8729 39.2838 33.7963 39.2067C33.7963 39.1297 33.9496 39.1297 34.0262 39.1297C34.1795 39.4378 34.4094 39.9 34.5626 40.1311C34.5626 40.2081 34.4094 40.2851 34.3327 40.2851L34.2561 40.2081C34.1028 40.054 34.0262 40.054 33.7197 40.2081C33.4897 40.3621 32.9533 40.5932 32.8 40.6703C32.4168 40.9013 32.4169 40.9013 32.4935 41.1324C32.4935 41.2094 32.4935 41.2094 32.5701 41.2094C32.5701 41.2865 32.4168 41.2865 32.4168 41.2865C32.1869 40.9013 31.8804 40.3621 31.8804 40.2851C31.8038 40.2081 31.8038 40.054 31.7271 39.977C31.5739 39.6689 31.5739 39.2067 32.0337 39.0527C32.3402 38.8986 32.6468 39.0527 32.8 39.2838C32.9533 39.0527 33.1066 38.8216 33.1832 38.5135C33.2598 38.2824 33.3365 38.2054 33.2598 37.9743V37.8973C33.2598 37.8203 33.4131 37.8203 33.4131 37.8203C33.4131 37.8973 33.5664 38.2054 33.643 38.4365C33.5664 38.6676 33.1066 39.5919 33.0299 39.7459H32.9533C32.8767 39.5919 32.8 39.4378 32.5701 39.4378C32.4168 39.4378 32.2636 39.5148 32.1869 39.5148C32.1103 39.5919 31.957 39.6689 31.957 39.823C31.8804 39.977 31.957 40.1311 31.957 40.2081C31.957 40.2851 32.0337 40.3621 32.1103 40.4392C32.2636 40.4392 32.2636 40.5162 32.2636 40.5162ZM41 49.6054C41.2299 49.1432 41.6131 48.45 41.6897 48.2959C41.843 47.9878 41.9197 47.8338 41.6897 47.7567L41.6131 47.6797C41.6131 47.6027 41.6897 47.5257 41.6897 47.5257C41.9963 47.6797 42.4561 47.9108 42.686 48.0648C42.686 48.1419 42.6094 48.2189 42.6094 48.2959C42.5327 48.2959 42.5327 48.2959 42.5327 48.2189C42.3028 48.1419 42.3028 48.2189 42.0729 48.527C41.9197 48.7581 41.6897 49.2973 41.6131 49.4513C41.3832 49.8365 41.3832 49.9135 41.6131 49.9905C41.6131 49.9905 41.6897 49.9905 41.6897 50.0676C41.6897 50.1446 41.6131 50.2216 41.6131 50.2216C41.2299 49.9905 40.6935 49.7594 40.6168 49.6824C40.5402 49.6054 40.3869 49.5284 40.3103 49.5284C40.0804 49.3743 39.7739 48.9892 40.0804 48.527C40.3103 48.2189 40.5402 48.2189 40.8468 48.2959C40.8468 48.0648 40.8468 47.7567 40.7701 47.4486C40.6168 47.0635 40.6168 46.9865 40.4636 46.9094L40.3869 46.8324C40.3869 46.7554 40.4636 46.6784 40.5402 46.6784C40.6168 46.6784 40.8468 46.9094 41.0767 47.0635C41.1533 47.3716 41.2299 48.373 41.3066 48.527C41.3066 48.527 41.2299 48.527 41.2299 48.604C41.0767 48.527 40.9234 48.45 40.7701 48.527C40.6168 48.604 40.5402 48.6811 40.5402 48.8351C40.4636 48.9121 40.4636 49.0662 40.4636 49.2203C40.4636 49.3743 40.6168 49.4513 40.6935 49.5284C40.7701 49.6054 40.8468 49.6054 40.9234 49.6824C40.9234 49.6054 40.9234 49.6054 41 49.6054ZM33.8729 22.4148C33.8729 22.3378 34.2561 21.6446 33.7197 21.1824C33.2598 20.7973 32.8 21.2594 32.5701 21.8757C32.4168 21.7216 31.8038 21.1824 31.7271 21.0284C31.7271 20.9513 32.1103 19.873 32.1103 19.7959C32.2636 19.873 32.3402 19.95 32.4168 20.104C32.3402 20.2581 32.1103 21.0284 32.1103 21.1054L32.3402 21.3365C32.4168 21.1054 32.7234 20.6432 33.2598 20.5662C34.1028 20.5662 34.5626 21.4135 34.1028 22.4919C34.1028 22.5689 33.9496 22.5689 33.8729 22.4148ZM33.0299 19.2567C33.0299 19.1797 32.8767 18.7946 33.1066 18.4094C33.1832 18.2554 33.4131 18.1013 33.5664 18.0243C33.7197 18.0243 34.1795 18.1784 34.1028 18.7176C34.2561 18.4865 34.486 18.4094 34.6393 18.4865C34.7159 18.4865 35.2524 18.5635 35.4056 19.4108C35.4823 19.95 35.1757 20.4892 34.9458 20.5662C34.7159 20.6432 34.486 20.3351 34.7159 20.1811C34.7925 20.104 34.9458 20.1811 35.0991 20.104C35.1757 19.95 35.2524 19.4878 34.9458 19.2567C34.7925 19.1027 34.4094 18.9486 34.1795 19.2567C34.1028 19.3338 34.1028 19.4878 34.1028 19.7189C34.0262 19.873 33.7963 19.7959 33.7963 19.7189C33.7963 19.5648 33.9496 19.1797 33.8729 18.8716C33.7963 18.6405 33.5664 18.4865 33.3365 18.7176C33.1832 18.8716 33.2598 19.1797 33.2598 19.3338C33.2598 19.2567 33.1066 19.2567 33.0299 19.2567ZM61.7682 8.54999C61.7682 8.47296 61.8449 8.3189 61.9215 8.24188C61.9982 8.24188 62.0748 8.3189 62.1514 8.3189C62.458 8.39593 62.6112 8.39593 62.9178 7.77972C63.1477 7.39458 63.5309 6.62431 63.6841 6.3162C63.8374 6.00809 64.0673 5.62296 63.6841 5.39188C63.6075 5.39188 63.6075 5.31485 63.5309 5.31485C63.4542 5.23782 63.6075 5.00674 63.6841 5.00674C64.3739 5.31485 64.9869 5.62296 65.3701 5.85404C65.2935 6.00809 65.2168 6.16215 65.1402 6.23917C65.0636 6.16215 64.9869 6.16215 64.9869 6.16215C64.6038 6.00809 64.4505 6.3162 64.2206 6.70134C63.914 7.24053 63.6075 7.85674 63.4542 8.16485C63.1477 8.70404 63.1477 8.85809 63.4542 9.08917C63.5309 9.1662 63.6075 9.1662 63.6075 9.24323C63.6075 9.32026 63.5309 9.47431 63.4542 9.55134C63.0711 9.24323 62.2281 8.78107 61.7682 8.54999ZM68.7421 13.4797C68.7421 13.4027 68.8954 13.2486 68.972 13.2486L69.1253 13.4027C69.4318 13.6338 69.5084 13.6338 70.0449 13.1716C70.3514 12.8635 70.9645 12.2473 71.2711 12.0162C71.501 11.7851 71.8841 11.554 71.5776 11.1689C71.501 11.0919 71.501 11.0919 71.501 11.0148C71.501 10.9378 71.6542 10.7838 71.7309 10.7838C72.2673 11.323 72.7271 11.8621 73.0337 12.1703C73.0337 12.2473 72.8804 12.4013 72.8038 12.4013L72.7271 12.3243C72.4206 12.0162 72.1907 12.2473 71.8841 12.5554C71.4243 12.9405 70.8879 13.4027 70.658 13.6338C70.1982 14.0189 70.1215 14.173 70.3514 14.4811C70.3514 14.5581 70.4281 14.6351 70.5047 14.6351C70.5047 14.7121 70.3514 14.8662 70.2748 14.8662C69.7383 14.5581 69.1253 13.8649 68.7421 13.4797ZM70.658 45.3689C70.7346 45.3689 70.8879 45.523 70.9645 45.6C70.8879 45.677 70.8879 45.754 70.8879 45.754C70.7346 46.0621 70.7346 46.1392 71.2711 46.6013C71.6542 46.9094 72.2673 47.4486 72.4972 47.6797C72.7271 47.9108 73.0337 48.2189 73.3402 47.9108L73.4935 47.7567C73.5701 47.7567 73.7234 47.8338 73.7234 47.9878C73.2636 48.604 72.8038 49.1432 72.4972 49.4513C72.4206 49.4513 72.2673 49.2973 72.2673 49.2203C72.344 49.1432 72.3439 49.1432 72.3439 49.0662C72.5739 48.6811 72.3439 48.527 71.9608 48.2189C71.501 47.8338 70.9645 47.3716 70.7346 47.1405C70.2748 46.7554 70.1215 46.6784 69.8916 46.9094C69.815 46.9094 69.815 46.9865 69.7383 47.0635C69.6617 47.0635 69.5084 46.9094 69.5084 46.8324C69.7383 46.4473 70.3514 45.754 70.658 45.3689ZM51.8823 54.7662C51.9589 54.8432 51.9589 54.9973 51.8823 55.0743H51.6524C51.3458 55.1513 51.1926 55.1513 51.1926 55.9216V57.5392C51.1926 57.8473 51.1159 58.3094 51.5757 58.3865H51.729C51.8056 58.4635 51.8056 58.6175 51.729 58.6946C50.9626 58.6946 50.2729 58.6946 49.8131 58.6175C49.7365 58.5405 49.7365 58.3865 49.8131 58.3094H49.9664C50.3496 58.3094 50.3496 57.9243 50.4262 57.5392C50.4262 56.923 50.5028 56.2297 50.5028 55.9216C50.5028 55.3054 50.5028 55.1513 50.1197 55.0743H49.8897C49.8131 54.9973 49.8897 54.8432 49.8897 54.7662C50.4262 54.7662 51.3458 54.8432 51.8823 54.7662ZM36.4785 49.4513C36.4785 49.5284 36.3253 49.6824 36.2486 49.6824C36.172 49.6054 36.0954 49.6054 36.0954 49.5284C35.7888 49.3743 35.7122 49.3743 35.2524 49.9135C34.9458 50.2986 34.4094 50.9149 34.1795 51.1459C33.9496 51.377 33.643 51.6851 33.9496 51.9932L34.1028 52.1473C34.1028 52.2243 33.9496 52.3784 33.8729 52.3784C33.3365 51.9162 32.8 51.454 32.4168 51.1459C32.4168 51.0689 32.5701 50.9148 32.6468 50.9148C32.7234 50.9919 32.7234 50.9919 32.8 50.9919C33.1066 51.223 33.3365 50.9919 33.643 50.6838C34.0262 50.2216 34.486 49.6824 34.7159 49.4513C35.0991 48.9892 35.1757 48.8351 34.9458 48.604L34.7926 48.45C34.7926 48.373 34.9458 48.2189 35.0225 48.2189C35.4056 48.527 36.0954 49.0662 36.4785 49.4513ZM28.7383 22.877C28.6617 22.877 28.5084 22.877 28.4318 22.8C28.4318 22.723 28.4318 22.6459 28.5084 22.5689C28.5851 22.1838 28.5084 22.1067 27.8954 21.8757C27.4355 21.7216 26.6692 21.4135 26.3626 21.3365C26.0561 21.2594 25.6729 21.0284 25.5197 21.4135C25.5197 21.4905 25.443 21.4905 25.443 21.5676C25.3664 21.6446 25.1365 21.5676 25.1365 21.4905C25.3664 20.7973 25.5963 20.104 25.8262 19.7189C25.9028 19.6419 26.0561 19.7189 26.1327 19.873C26.1327 19.95 26.0561 20.027 26.0561 20.027C25.9795 20.4121 26.286 20.5662 26.6692 20.7203C27.2056 20.9513 27.8954 21.1824 28.2019 21.3365C28.7383 21.5676 28.8916 21.5676 29.1215 21.2594C29.1215 21.1824 29.1982 21.1054 29.1982 21.0284C29.2748 21.0284 29.4281 21.1054 29.5047 21.1824C29.1982 21.4905 28.8916 22.4148 28.7383 22.877ZM72.5739 18.6405C71.9608 17.5621 71.1944 16.4067 70.8112 16.0216C70.8112 15.9446 70.9645 15.7905 71.0411 15.7905L71.1944 15.9446C71.4243 16.1757 71.5776 16.1757 72.114 15.7905C72.4972 15.5594 73.1869 15.0203 73.4935 14.8662C73.8 14.6351 74.1832 14.4811 73.9533 14.0959C73.9533 14.0189 73.8767 14.0189 73.8767 13.9419C73.8767 13.8649 74.0299 13.7108 74.1066 13.7108C74.5664 14.327 74.9496 14.8662 75.1795 15.2513C75.1795 15.3284 75.0262 15.4824 74.9496 15.4824C74.8729 15.4054 74.8729 15.4054 74.8729 15.3284C74.643 15.0203 74.2598 15.2513 73.9533 15.4824L72.5739 16.4067C72.114 16.7148 71.9608 16.7919 72.114 17.1C72.114 17.177 72.1907 17.3311 72.3439 17.4851C72.4206 17.6392 72.5739 17.8703 72.7271 17.9473C72.8804 18.0243 73.1869 18.0243 73.2636 18.0243C73.3402 18.0243 73.4935 17.9473 73.5701 17.9473C73.6468 17.9473 73.7234 18.1013 73.7234 18.2554C73.4935 18.3324 73.1103 18.4865 72.5739 18.6405ZM74.4131 22.6459C74.0299 21.4905 73.4168 20.1811 73.1869 19.7189C73.2636 19.6419 73.4169 19.5648 73.4935 19.5648C73.4935 19.6419 73.5701 19.7189 73.5701 19.7189C73.7234 20.027 73.8767 20.027 74.4897 19.7189C74.8729 19.5648 75.7159 19.1797 75.9458 19.0257C76.2524 18.8716 76.6355 18.7946 76.4823 18.3324C76.4823 18.2554 76.4823 18.2554 76.4056 18.1784C76.4056 18.1013 76.6355 18.0243 76.7122 18.0243C77.0187 18.7176 77.3253 19.3338 77.4785 19.7959C77.4785 19.873 77.3253 19.95 77.172 19.95C77.0954 19.873 77.0954 19.873 77.0954 19.7959C76.9421 19.4108 76.5589 19.6419 76.1757 19.7959C75.6393 20.027 75.1028 20.2581 74.7197 20.4892C74.1832 20.7203 74.1066 20.7973 74.1832 21.1054C74.1832 21.1824 74.2598 21.3365 74.3365 21.4905C74.4131 21.6446 74.4897 21.8757 74.643 22.0297C74.7963 22.1838 75.1028 22.1838 75.1795 22.1838H75.486C75.5626 22.2608 75.6393 22.3378 75.5626 22.4919C75.3327 22.4919 74.8729 22.5689 74.4131 22.6459ZM58.1664 7.00945C58.1664 6.62431 58.243 6.23917 58.3196 6.00809C58.3963 6.00809 58.6262 6.00809 58.7028 6.08512C58.7028 6.47026 58.6262 7.00944 59.3159 7.31755C59.7757 7.47161 60.0823 7.31755 60.1589 7.00945C60.3122 6.62431 60.1589 6.3162 59.6991 5.93107C59.0094 5.31485 58.9327 4.92971 59.0094 4.62161C59.086 4.15944 59.4692 3.38917 60.6954 3.77431C61.3084 4.00539 61.5383 4.15944 61.6916 4.3135C61.6916 4.39053 61.5383 5.00674 61.4617 5.23782C61.3851 5.31485 61.2318 5.23782 61.1552 5.1608C61.1552 5.08377 61.3084 4.46755 60.6954 4.23647C60.0823 4.00539 59.8524 4.3135 59.7757 4.54458C59.6991 4.85269 59.8524 5.00674 60.3122 5.4689C60.6954 5.85404 61.2318 6.3162 60.9253 7.00945C60.6954 7.62566 59.929 7.93377 59.1626 7.70269C58.4729 7.39458 58.1664 7.00945 58.1664 7.00945ZM55.7907 54.6121C55.944 54.9203 56.0206 55.3054 56.0972 55.6135C56.0206 55.6905 55.8673 55.7676 55.714 55.6905C55.5608 55.3824 55.4075 54.7662 54.6411 54.9203C54.1813 54.9973 54.0281 55.3054 54.0281 55.5365C54.0281 55.9216 54.3346 56.1527 54.9477 56.3067C55.7907 56.5378 56.0972 56.8459 56.1739 57.154C56.3271 57.6162 56.3271 58.5405 55.0243 58.6946C54.4112 58.7716 54.1047 58.6946 53.8748 58.6946C53.7982 58.5405 53.6449 58.0013 53.6449 57.7703C53.7215 57.6932 53.8748 57.6162 53.9514 57.6932C53.9514 57.7703 54.1047 58.3865 54.7944 58.3094C55.4075 58.2324 55.4841 57.8473 55.4841 57.6162C55.4075 57.3081 55.2542 57.2311 54.5645 57C54.0281 56.7689 53.415 56.6148 53.2617 55.9216C53.1851 55.2284 53.7215 54.6121 54.4879 54.5351C55.4075 54.3811 55.7907 54.6121 55.7907 54.6121ZM33.8729 47.1405C33.7197 47.4486 33.4131 47.7567 33.2598 47.9108C33.1832 47.9108 33.0299 47.7567 32.9533 47.6797C33.1832 47.3716 33.4897 46.9094 33.0299 46.2932C32.7234 45.9081 32.3402 45.9851 32.1103 46.1392C31.8038 46.3703 31.8038 46.7554 32.0337 47.3716C32.3402 48.2189 32.1869 48.604 32.0337 48.8351C31.7271 49.2203 30.9608 49.6824 30.1178 48.6811C29.7346 48.2189 29.5813 47.9108 29.5047 47.7567C29.5813 47.6797 29.9645 47.2175 30.1178 47.0635C30.2711 47.0635 30.3477 47.1405 30.3477 47.2946C30.2711 47.3716 29.8879 47.8338 30.2711 48.373C30.6542 48.9121 31.0374 48.6811 31.1907 48.527C31.4206 48.2959 31.344 48.1419 31.1907 47.4486C31.0374 46.9094 30.8075 46.2932 31.4206 45.754C31.957 45.2919 32.7234 45.3689 33.2598 46.0621C33.7963 46.6784 33.8729 47.1405 33.8729 47.1405ZM39.544 9.55134C39.4673 9.47431 39.3907 9.32026 39.3907 9.24323C39.4673 9.24323 39.544 9.1662 39.544 9.08917C39.8505 8.85809 39.8505 8.78107 39.544 8.16485C39.314 7.77972 38.9309 7.00944 38.7776 6.70134C38.6243 6.39323 38.4711 6.00809 38.0879 6.16215C38.0112 6.16215 38.0112 6.23917 37.9346 6.23917C37.858 6.23917 37.7813 6.00809 37.7813 5.93107C38.3944 5.54593 39.0075 5.23782 39.4673 5.00674C39.544 5.00674 39.6206 5.23782 39.6206 5.31485C39.544 5.39188 39.544 5.39188 39.4673 5.39188C39.0841 5.62296 39.314 5.93107 39.4673 6.3162C39.7739 6.85539 40.0804 7.47161 40.2337 7.77972C40.5402 8.3189 40.6168 8.39593 40.9234 8.3189C41 8.3189 41.0767 8.24188 41.1533 8.24188C41.2299 8.24188 41.3066 8.47296 41.3066 8.54999C40.8468 8.85809 40.0804 9.24323 39.544 9.55134ZM42.6094 7.85674C42.3795 7.54863 42.2262 7.24053 42.1496 7.00945C42.1496 6.93242 42.3028 6.77836 42.4561 6.77836C42.686 7.08647 42.9159 7.62566 43.6823 7.39458C44.1421 7.24053 44.2187 6.93242 44.1421 6.62431C44.0654 6.16215 43.6823 6.08512 43.0692 6.08512C42.1496 6.00809 41.843 5.77701 41.6897 5.54593C41.4598 5.1608 41.3066 4.23647 42.4561 3.85134C43.0692 3.62026 43.3757 3.62026 43.6056 3.62026C43.6823 3.69728 43.9122 4.23647 43.9888 4.46755C43.9122 4.54458 43.8355 4.62161 43.6823 4.62161C43.6823 4.39053 43.4524 3.85134 42.7626 4.08242C42.1496 4.23647 42.1496 4.69863 42.2262 4.85269C42.3795 5.1608 42.5327 5.1608 43.2991 5.23782C43.8355 5.31485 44.5253 5.31485 44.7552 6.00809C44.9851 6.62431 44.6019 7.31755 43.8355 7.62566C43.0692 8.0108 42.6094 7.85674 42.6094 7.85674ZM36.2486 11.6311C35.9421 11.4 35.7122 11.0919 35.5589 10.9378C35.5589 10.8608 35.7122 10.7067 35.8654 10.7067C36.172 10.9378 36.5552 11.323 37.2449 10.8608C37.6281 10.5527 37.6281 10.2446 37.4748 10.0135C37.2449 9.62836 36.9383 9.62836 36.3253 9.78242C35.4823 9.93647 35.0991 9.85944 34.8692 9.62836C34.5626 9.32026 34.1028 8.47296 35.1757 7.77972C35.7122 7.39458 36.0187 7.31755 36.172 7.24053C36.2486 7.31755 36.6318 7.70269 36.7851 7.93377C36.7851 8.08782 36.7084 8.16485 36.5552 8.16485C36.4785 8.08782 36.0954 7.62566 35.4823 8.0108C34.9458 8.39593 35.0991 8.78107 35.2524 8.93512C35.4823 9.1662 35.6355 9.1662 36.3253 9.01215C36.8617 8.93512 37.5514 8.78107 37.9346 9.39728C38.3178 9.93647 38.1645 10.7067 37.4748 11.2459C36.7084 11.554 36.2486 11.6311 36.2486 11.6311ZM73.6468 40.3621C73.8 40.2851 73.8767 40.3621 73.9533 40.5162L73.8767 40.6703C73.8 40.9784 73.8767 41.1324 74.4897 41.3635C74.9496 41.5946 75.5626 41.9027 75.9458 42.0567C76.329 42.2108 76.6355 42.4419 76.7888 42.1338C76.7888 42.0567 76.8654 42.0567 76.8654 41.9797C76.9421 41.9797 77.0954 41.9797 77.172 42.1338C77.0954 42.3648 76.7888 42.904 76.6355 43.2121C76.6355 43.2892 76.5589 43.2892 76.5589 43.3662C76.4823 43.3662 76.4056 43.3662 76.1757 43.4432C76.0991 43.4432 73.1869 44.1365 72.8038 44.2135L74.1832 45.1378C74.643 45.4459 74.8729 45.523 75.1028 45.2148C75.1028 45.1378 75.1795 45.1378 75.2561 45.0608C75.3327 45.0608 75.486 45.1378 75.5626 45.2148C75.2561 45.677 74.9496 46.2162 74.7197 46.6013C74.643 46.6784 74.4897 46.5243 74.4131 46.4473C74.4131 46.3703 74.4897 46.3703 74.4897 46.2932C74.643 46.0621 74.5664 45.9081 74.0299 45.523C73.6468 45.2919 71.8841 44.0594 71.6542 43.9824C71.6542 43.9054 71.5776 43.8284 71.6542 43.6743C72.2673 43.5203 75.7925 42.673 76.0225 42.673C75.7925 42.5189 74.5664 41.9797 74.1832 41.8257C73.5701 41.5946 73.4168 41.5946 73.2636 41.8257C73.1869 41.9027 73.1869 41.9797 73.1869 41.9797C73.1103 41.9797 72.957 41.9797 72.8804 41.8257C73.1869 41.3635 73.5701 40.5932 73.6468 40.3621ZM27.5888 28.5C27.5122 28.577 27.3589 28.577 27.2823 28.5V28.2689C27.2823 27.9608 27.129 27.8838 26.5159 27.8067C25.9795 27.7297 25.3664 27.6527 24.9066 27.6527C24.4468 27.5757 24.1402 27.4986 24.0636 27.8838V28.0378C23.9869 28.1148 23.8337 28.1148 23.757 28.0378C23.757 27.8067 23.8337 27.1905 23.9103 26.8824V26.7284C23.9869 26.7284 24.0636 26.6513 24.2935 26.5743C24.3701 26.4973 26.8991 24.9567 27.2056 24.7257C26.8991 24.6486 25.8262 24.3405 25.5963 24.3405C25.0598 24.1865 24.8299 24.1865 24.7533 24.5716C24.7533 24.6486 24.6767 24.7257 24.6767 24.8027C24.6 24.8797 24.4468 24.8027 24.3701 24.7257C24.5234 24.1865 24.6767 23.5703 24.7533 23.1851C24.8299 23.1081 25.0598 23.1851 25.0598 23.2621V23.4162C24.9832 23.7243 25.1365 23.8013 25.7496 23.9554C26.2094 24.1094 28.2785 24.6486 28.4318 24.6486C28.5084 24.7257 28.5084 24.8027 28.5084 24.8797C27.972 25.1878 24.9066 27.1905 24.7533 27.2676C25.0598 27.2676 26.3626 27.4216 26.7458 27.4986C27.3589 27.5757 27.5122 27.4986 27.5888 27.1905C27.5888 27.1135 27.5888 27.0365 27.6654 26.9594C27.7421 26.8824 27.8954 26.8824 27.972 27.0365C27.6654 27.3446 27.5888 28.2689 27.5888 28.5ZM32.3402 15.9446C32.1869 15.9446 32.1103 15.8676 32.0337 15.7905C32.0337 15.7905 32.1103 15.6365 32.1869 15.6365C32.3402 15.4054 32.2636 15.1743 31.8038 14.7892C31.344 14.4811 30.8841 14.0189 30.501 13.7878C30.1944 13.4797 29.9645 13.2486 29.658 13.5567L29.5047 13.7108C29.4281 13.7108 29.2748 13.6338 29.2748 13.4797C29.4281 13.3257 29.8112 12.7865 30.0411 12.5554C30.0411 12.4784 30.1178 12.4784 30.1178 12.4013C30.1944 12.4784 30.2711 12.4784 30.501 12.4784H33.9496C33.7197 12.2473 33.0299 11.477 32.8 11.2459C32.4168 10.8608 32.2636 10.7067 31.957 10.9378C31.8804 10.9378 31.8804 11.0148 31.8038 11.0919C31.7271 11.0919 31.5739 10.9378 31.5739 10.8608L32.7234 9.70539C32.8 9.70539 32.9533 9.85944 32.9533 9.93647L32.8 10.0905C32.5701 10.3216 32.6468 10.4757 33.1066 10.9378C33.4131 11.2459 34.8692 12.8635 35.0225 12.9405C35.0225 13.0176 35.0225 13.0946 34.9458 13.1716H30.501C30.7309 13.3257 31.7271 14.173 32.1103 14.404C32.6468 14.7892 32.8 14.7892 33.0299 14.6351L33.1832 14.4811C33.3365 14.4811 33.4131 14.5581 33.4131 14.7121C33.1066 15.0203 32.4935 15.7905 32.3402 15.9446ZM29.8879 41.0554C29.8112 41.0554 29.5813 41.1324 29.5813 41.2094C29.5813 41.2865 29.658 41.3635 29.658 41.4405C29.7346 41.7486 29.658 41.9027 29.1215 42.1338C28.9683 42.2108 28.7383 42.2878 28.5084 42.4419L27.5888 40.5162C27.8187 40.4392 28.0486 40.2851 28.2019 40.2851C28.815 40.054 28.8916 40.054 29.1215 40.3621C29.1215 40.4392 29.1982 40.4392 29.1982 40.5162C29.2748 40.5162 29.4281 40.4392 29.5047 40.3621C29.2748 39.823 28.9683 39.1297 28.815 38.6675C28.7383 38.6675 28.5084 38.6675 28.5084 38.7446C28.5084 38.8216 28.5084 38.8986 28.5851 38.9757C28.6617 39.2838 28.5084 39.4378 27.972 39.6689C27.6654 39.823 26.9757 40.054 26.4393 40.2851C26.0561 40.4392 25.7496 40.5932 25.5963 40.2081C25.5963 40.2081 25.5963 40.1311 25.5197 40.054C25.443 40.054 25.2131 40.054 25.2131 40.2081C25.3664 40.6703 25.5963 41.2865 25.9028 41.9027C25.9795 41.9027 26.2094 41.9027 26.2094 41.7486C26.2094 41.6716 26.2094 41.6716 26.1327 41.5946C26.0561 41.2094 26.286 41.1324 26.7458 40.9013C26.8225 40.8243 27.0524 40.7473 27.2823 40.6703L28.2019 42.5959C28.0486 42.673 27.8187 42.75 27.6654 42.904C27.3589 43.0581 26.9757 43.2892 26.8225 42.904C26.8225 42.904 26.7458 42.827 26.7458 42.75C26.5926 42.75 26.4393 42.827 26.4393 42.904C26.6692 43.3662 26.9757 43.9054 27.2823 44.5216C27.3589 44.5216 27.5122 44.4446 27.5888 44.3675C27.5888 44.2905 27.5888 44.2905 27.5122 44.2135C27.3589 43.8284 27.5888 43.6743 28.0486 43.4432C28.2785 43.2892 29.1215 42.904 29.5047 42.673C30.1178 42.3648 30.1944 42.3648 30.4243 42.5959C30.4243 42.5959 30.501 42.673 30.501 42.75C30.5776 42.75 30.7309 42.673 30.8075 42.5959C30.4243 42.2108 30.0411 41.4405 29.8879 41.0554ZM67.9757 11.9392C67.8225 12.0932 67.7458 12.1703 67.6692 12.4013C67.3626 12.2473 66.9028 12.0162 66.2897 11.554C65.8299 11.1689 65.2935 10.6297 65.2935 9.62836C65.3701 8.78107 65.9066 8.08782 66.5963 7.77972C67.4393 7.39458 68.2823 7.77972 68.8954 8.24188C69.5851 8.78107 69.815 9.1662 69.9683 9.24323C69.7383 9.55134 69.5851 9.78242 69.3552 10.1676C69.2785 10.1676 69.0486 10.0905 69.0486 10.0135C69.1253 9.85944 69.2785 9.62836 69.2019 9.32026C69.2019 9.01215 69.0486 8.78107 68.6654 8.47296C68.2823 8.16485 67.1327 7.77972 66.3664 9.01215C65.6 10.2446 66.2897 10.9378 66.5197 11.1689C66.6729 11.323 66.7496 11.323 66.8262 11.4C67.0561 11.554 67.2094 11.554 67.3626 11.323L67.5925 11.0919C67.7458 10.8608 67.8225 10.8608 67.5925 10.5527L67.3626 10.3216C67.3626 10.2446 67.4393 10.0905 67.5925 10.0905C68.0524 10.5527 68.5888 10.9378 68.972 11.1689C68.972 11.2459 68.8953 11.477 68.7421 11.477C68.6654 11.477 68.6654 11.4 68.5888 11.4C68.4355 11.323 68.3589 11.2459 68.129 11.554C68.0524 11.7851 68.0524 11.8621 67.9757 11.9392ZM29.9645 19.873C29.8879 19.873 29.7346 19.7959 29.658 19.7189C29.658 19.6419 29.658 19.6419 29.7346 19.5648C29.8879 19.2567 29.8112 19.1027 29.1982 18.7176C28.7383 18.4865 28.1253 18.1784 27.8187 17.9473C27.4355 17.7162 27.129 17.5621 26.8991 17.9473C26.8225 18.0243 26.8225 18.0243 26.8225 18.1013C26.7458 18.1013 26.5925 18.0243 26.5159 17.9473C26.8225 17.254 27.5122 16.0986 28.2019 14.9432C28.4318 15.0973 28.8916 15.3284 29.1215 15.4054C29.1215 15.5594 29.1215 15.7135 28.9683 15.7905C28.8916 15.7905 28.7383 15.7135 28.6617 15.7135C28.5084 15.7135 28.2785 15.6365 28.0486 15.9446C27.8187 16.1757 27.6654 16.5608 27.5888 16.7148C27.5122 16.8689 27.5888 16.9459 27.6654 17.023C27.7421 17.1 28.5851 17.5621 28.6617 17.6392C29.1982 16.6378 29.1982 16.6378 29.2748 16.6378C29.4281 16.6378 29.5047 16.7148 29.5813 16.8689L29.0449 17.8703C29.0449 17.8703 29.658 18.2554 29.7346 18.2554C30.2711 18.5635 30.3477 18.4865 30.5776 18.1013C30.6542 17.9473 30.7309 17.8703 30.8075 17.7162C30.9608 17.4081 30.9608 17.177 30.7309 16.8689C30.6542 16.7919 30.5776 16.7148 30.5776 16.6378C30.5776 16.4838 30.6542 16.4067 30.8075 16.3297C30.8841 16.4067 31.4972 16.9459 31.6505 17.1C31.0374 17.8703 30.4243 18.8716 29.9645 19.873ZM64.8337 50.7608C64.9103 50.7608 64.9869 50.9149 64.9869 51.0689L64.9103 51.1459C64.6038 51.377 64.6038 51.5311 64.9869 52.1473C65.2935 52.6094 65.6 53.1486 65.8299 53.5338C66.0598 53.9189 66.2131 54.227 66.5963 53.9959C66.6729 53.9959 66.6729 53.9189 66.7496 53.9189C66.8262 53.9189 66.9028 54.073 66.9028 54.227C66.2897 54.6892 65.1402 55.3054 63.914 55.9216C63.7608 55.6905 63.5309 55.3054 63.3776 55.0743C63.4542 54.9203 63.5309 54.8432 63.6841 54.8432L63.914 55.0743C63.9907 55.1513 64.2206 55.3054 64.5271 55.1513C64.8337 54.9973 65.2169 54.7662 65.3701 54.6892C65.5234 54.6121 65.5234 54.5351 65.4468 54.4581C65.3701 54.3811 64.9103 53.5338 64.8337 53.3797L63.8374 53.9959C63.6841 53.9189 63.6075 53.7648 63.6075 53.6878L64.6038 53.0716C64.6038 53.0716 64.2972 52.4554 64.2206 52.3784C63.914 51.8392 63.8374 51.9162 63.3776 52.0703C63.2243 52.1473 63.1477 52.2243 62.9944 52.3013C62.6879 52.5324 62.6112 52.6865 62.6879 53.0716V53.3027C62.6112 53.3797 62.458 53.5338 62.3047 53.3797C62.2281 53.2257 62.0748 52.5324 61.9982 52.3013C62.8411 51.9932 63.8374 51.454 64.8337 50.7608ZM75.7925 25.1108C76.9421 24.4175 77.0187 24.3405 77.9383 23.7243C78.2449 23.5703 78.3982 23.4932 78.4748 23.7243C78.4748 23.8013 78.5514 23.8784 78.5514 23.8784C78.6281 23.9554 78.858 23.8784 78.858 23.8013C78.7047 23.1851 78.5514 22.6459 78.3215 21.9527C78.2449 21.8757 78.015 21.9527 78.015 22.0297C78.015 22.1067 78.015 22.1838 78.0916 22.2608C78.0916 22.5689 78.015 22.723 77.6318 22.954C77.4019 23.1081 74.9496 24.6486 74.8729 24.7257C74.7963 24.8027 74.7963 24.8027 74.8729 24.8797C74.8729 24.8797 75.1028 25.2648 75.1795 25.4189C76.1757 25.573 77.7084 25.804 78.2449 25.9581C78.858 26.0351 78.9346 26.1892 79.0112 26.3432V26.5743C79.0879 26.6513 79.3178 26.6513 79.3178 26.5743C79.2411 26.1121 79.1645 25.4189 79.0879 25.0338C79.0112 24.9567 78.7813 24.9567 78.7813 25.1108V25.2648C78.7813 25.4959 78.7813 25.65 78.3215 25.573C77.5552 25.3419 76.5589 25.1878 75.7925 25.1108ZM75.2561 37.9743C76.5589 37.8973 76.7122 37.8973 77.7851 37.8973C78.1683 37.8973 78.3215 37.8973 78.2449 38.2054V38.3594C78.3215 38.4365 78.4748 38.5135 78.5514 38.4365C78.7047 37.8203 78.858 37.2811 79.0112 36.5878C78.9346 36.4338 78.7813 36.5108 78.7047 36.5108C78.7047 36.5878 78.6281 36.6648 78.6281 36.7419C78.4748 37.05 78.3982 37.05 77.8617 37.127C77.6318 37.127 74.643 37.2811 74.643 37.2811C74.5664 37.2811 74.5664 37.3581 74.5664 37.3581V37.9743C75.4094 38.5905 76.5589 39.5919 77.0187 39.977C77.4785 40.3621 77.4785 40.5162 77.4785 40.6703C77.4785 40.7473 77.4019 40.8243 77.4019 40.9013C77.4785 40.9784 77.6318 41.0554 77.7084 41.0554C77.8617 40.6703 78.0916 39.977 78.2449 39.5919C78.2449 39.5149 78.015 39.4378 77.9383 39.4378C77.9383 39.5148 77.8617 39.5919 77.8617 39.5919C77.7851 39.823 77.7084 39.9 77.3253 39.5919C76.6355 39.0527 75.8692 38.4365 75.2561 37.9743ZM67.5925 49.6054C68.7421 50.2986 68.8954 50.3757 69.7383 50.9148C70.0449 51.0689 70.1982 51.223 69.9683 51.454L69.815 51.6081C69.815 51.7621 69.9683 51.8392 70.0449 51.8392C70.5047 51.454 70.9645 50.9919 71.4243 50.5297C71.4243 50.3757 71.2711 50.2986 71.1944 50.2986L71.0411 50.4527C70.7346 50.6067 70.658 50.6067 70.1982 50.3757C69.9682 50.2216 67.4393 48.7581 67.3626 48.7581H67.2094C67.2094 48.7581 66.9795 49.1432 66.9028 49.2973C67.286 50.2986 67.7458 51.6851 67.8991 52.3013C68.0524 52.9176 68.0524 53.0716 67.8991 53.1486C67.8225 53.2257 67.7458 53.2257 67.7458 53.3027C67.7458 53.3797 67.8225 53.6108 67.8991 53.5338C68.2823 53.3027 68.8187 52.8405 69.1253 52.6094C69.1253 52.4554 69.0486 52.3013 68.972 52.3013C68.8954 52.3784 68.8954 52.3784 68.8187 52.3784C68.6654 52.4554 68.5122 52.5324 68.3589 52.0703C68.129 51.3 67.8225 50.3757 67.5925 49.6054ZM60.772 56.8459C60.4654 56.1527 60.0823 54.8432 59.929 54.5351C59.6991 53.9959 59.6225 53.8419 59.3159 53.9189C59.2393 53.9189 59.1626 53.9189 59.086 53.9959C59.0094 53.9189 58.9327 53.7648 59.0094 53.6108C59.5458 53.3797 60.2355 53.1486 60.772 52.9175C60.8486 52.9946 60.9253 53.1486 60.9253 53.2257C60.8486 53.2257 60.772 53.3027 60.772 53.3027C60.4654 53.5338 60.4654 53.6108 60.6954 54.227C60.8486 54.6121 61.1552 55.4594 61.2318 55.7676C61.4617 56.3838 61.5383 56.4608 61.8449 56.3838C61.9215 56.3838 61.9215 56.3838 61.9982 56.3067C62.0748 56.3067 62.1514 56.5378 62.1514 56.6148C61.1552 57 60.6187 57.154 60.3888 57.2311C60.2355 57.3081 60.0056 57.3851 59.8524 57.3851C59.3925 57.4621 58.6262 57.5392 58.3963 56.6148C58.243 56.0757 58.4729 55.6905 58.8561 55.4594C58.5496 55.2284 58.1664 54.9203 57.7832 54.6892C57.4 54.4581 57.2468 54.3811 56.9402 54.4581H56.7103C56.6337 54.3811 56.6337 54.227 56.6337 54.15C56.7103 54.15 57.2468 53.9959 57.7066 53.9189C57.9365 54.073 59.3159 54.9973 59.6225 55.1513V55.4594C59.3926 55.5365 59.1626 55.6905 59.086 55.9216C59.0094 56.2297 59.086 56.3838 59.1626 56.5378C59.2393 56.6919 59.3159 56.923 59.5458 57C59.7757 57.077 60.0056 57.077 60.1589 57C60.3122 56.923 60.4654 56.923 60.5421 56.8459H60.772ZM43.6823 53.4567C43.529 53.5338 43.529 53.6878 43.529 53.7649C43.6056 53.7649 43.6056 53.7649 43.6823 53.8419C43.9122 53.9959 43.9122 54.073 43.6056 54.3811L43.2991 54.6892C43.1458 54.6121 42.2262 54.227 41.9963 54.227V53.7649C41.9963 53.4567 41.9963 53.2257 42.3028 53.3027C42.3795 53.3027 42.3795 53.3027 42.4561 53.3797C42.5327 53.3027 42.6094 53.1486 42.6094 53.0716C42.3795 52.9946 41.843 52.7635 41.0767 52.3784C40.9234 52.4554 40.9234 52.6094 40.9234 52.6865C41 52.6865 41.0767 52.7635 41.0767 52.7635C41.4598 52.9946 41.3066 53.3027 41.3066 53.6108C41.3066 53.9189 41.2299 56.8459 41.2299 56.923C41.2299 57 41.2299 57 41.3066 57H41.843C41.9963 56.8459 43.529 55.0743 43.9888 54.6121C44.4486 54.15 44.5253 54.15 44.7552 54.15H44.9084C44.9851 54.073 45.0617 53.9189 44.9851 53.8419C44.5253 53.7649 43.8355 53.4567 43.6823 53.4567ZM41.9197 56.2297L41.9963 54.5351L43.0692 54.9203L41.9197 56.2297ZM28.2019 36.4338C28.0486 36.3567 27.8954 36.4338 27.8954 36.5108V36.6648C27.8954 36.973 27.8187 36.973 27.4355 36.8959C27.2056 36.8959 27.129 36.8189 27.0524 36.8189C26.9757 36.5878 26.8225 35.6635 26.7458 35.5094C26.8991 35.4324 26.8991 35.4324 27.129 35.2784C27.3589 35.1243 27.5888 34.9703 27.6654 35.2784V35.4324C27.7421 35.5094 27.972 35.4324 27.972 35.3554C27.8954 35.1243 27.8187 34.5081 27.6654 33.6608C27.5888 33.5838 27.3589 33.6608 27.3589 33.6608V33.8919C27.3589 34.277 27.0524 34.4311 26.8225 34.5851C26.5926 34.7392 24.0636 36.2797 23.9869 36.2797C23.9103 36.3567 23.9103 36.3567 23.9869 36.3567C23.9869 36.3567 24.2169 36.7419 24.2935 36.8189C24.5234 36.8189 26.8225 37.204 27.4355 37.2811C28.0486 37.3581 28.1253 37.5121 28.2019 37.6662C28.2785 37.7432 28.2785 37.8203 28.2785 37.8203C28.3552 37.8973 28.5851 37.8203 28.5851 37.7432C28.5084 37.5892 28.2785 36.5878 28.2019 36.4338ZM24.9832 36.5108L26.4393 35.6635L26.6692 36.8189L24.9832 36.5108ZM76.0225 29.4243C75.9458 29.5013 75.7926 29.5013 75.7159 29.4243C75.6393 28.7311 75.6393 28.423 75.5626 27.8838C75.6393 27.8067 75.7925 27.7297 75.8692 27.8067V27.9608C75.9458 28.1919 75.9458 28.3459 76.5589 28.423C76.9421 28.5 78.0916 28.5 78.3215 28.5C78.7047 28.5 79.1645 28.5 79.0879 28.0378V27.8838C79.1645 27.8067 79.3178 27.8067 79.3944 27.8838C79.4711 28.423 79.4711 28.8081 79.4711 29.4243C79.2411 29.4243 79.0879 29.5013 78.7047 29.6554C78.3215 29.8865 77.0954 30.4257 76.6355 30.6567C76.9421 30.8108 78.5514 31.5811 78.6281 31.6581C78.858 31.7351 79.1645 31.8892 79.4711 31.9662C79.4711 32.3513 79.3944 32.9676 79.3944 33.5067C79.3178 33.5838 79.1645 33.5838 79.0879 33.4297V33.2757C79.0879 33.0446 79.0112 32.8905 78.5514 32.8905H76.6355C76.0991 32.9676 75.7925 32.9676 75.7925 33.1986V33.4297C75.7159 33.5067 75.5626 33.5067 75.486 33.3527C75.5626 32.4284 75.6393 32.1203 75.6393 31.5811C75.7159 31.504 75.8692 31.504 75.9458 31.5811V31.7351C75.9458 31.9662 75.9458 32.0432 76.6355 32.0432C77.172 32.0432 78.4748 32.0432 78.7813 31.9662C78.3982 31.7351 77.2486 31.273 76.6355 30.9648C76.0225 30.6567 75.7925 30.5797 75.5626 30.5027C75.486 30.4257 75.486 30.3486 75.5626 30.2716C75.6393 30.2716 76.0991 30.1176 76.6355 29.8094C77.172 29.5784 78.4748 28.9621 78.7813 28.8851C78.3215 28.8851 77.0954 28.8081 76.7888 28.8081C76.329 28.8081 75.9458 28.8081 76.0225 29.1162M48.1271 57.4621C48.1271 57.5392 47.9739 57.6932 47.8972 57.8473C47.744 58.0013 47.514 58.0784 47.2075 58.0013C47.1309 58.0013 46.901 57.9243 46.6711 57.9243L47.1309 55.6135C47.2841 54.9203 47.3608 54.8432 47.6673 54.8432H47.8206C47.8972 54.7662 47.8972 54.6121 47.8972 54.5351C47.3608 54.4581 46.5178 54.304 46.058 54.15C45.9813 54.227 45.9813 54.3811 45.9813 54.4581C46.058 54.4581 46.1346 54.5351 46.2112 54.5351C46.5178 54.6892 46.5178 54.8432 46.4411 55.3824C46.3645 55.6905 45.9813 57.6932 45.9813 57.6932C45.6748 57.6162 45.4449 57.6162 45.2916 57.5392C44.9851 57.4621 44.9084 57.154 44.9084 57V56.6919C44.8318 56.6148 44.6785 56.6148 44.6019 56.6148C44.6019 56.7689 44.4486 57.4621 44.372 57.6932C45.8281 58.0784 46.6711 58.2324 48.0505 58.3865C48.0505 58.3094 48.4337 57.5392 48.5103 57.3851C48.4337 57.4621 48.2038 57.3851 48.1271 57.4621ZM39.0075 54.5351C38.9309 54.6121 38.7776 54.7662 38.6243 54.8432C38.4711 54.9203 38.1645 54.9203 37.9346 54.7662C37.858 54.6892 37.7047 54.6121 37.4748 54.4581C37.4748 54.4581 38.4711 52.7635 38.701 52.3784C39.0841 51.8392 39.1608 51.7621 39.4673 51.8392C39.544 51.8392 39.544 51.9162 39.6206 51.9162C39.6972 51.8392 39.7739 51.6851 39.7739 51.6081C39.314 51.377 38.5477 50.9148 38.1645 50.6067C38.0879 50.6067 37.9346 50.7608 37.9346 50.8378C38.0112 50.9148 38.0879 50.9148 38.0879 50.9919C38.3178 51.223 38.3178 51.377 38.0112 51.9162C37.858 52.2243 36.7851 53.9959 36.7851 53.9959C36.5552 53.8419 36.3253 53.6878 36.172 53.6108C35.8654 53.3797 35.9421 53.0716 36.0187 52.9946C36.0187 52.9176 36.0954 52.7635 36.172 52.6865C36.0954 52.5324 35.9421 52.5324 35.8654 52.5324C35.7888 52.6865 35.4056 53.3027 35.2524 53.4567C36.4785 54.304 37.1683 54.7662 38.4711 55.4594L39.2374 54.6892C39.2374 54.6121 39.1608 54.5351 39.0075 54.5351ZM27.129 30.7338V30.9648C27.0524 31.273 27.0524 31.504 26.5159 31.504H25.8262V30.4257C25.6729 30.3486 25.5197 30.3486 25.443 30.4257V31.5811C25.2897 31.5811 24.2935 31.6581 24.2168 31.6581C24.1402 31.6581 24.0636 31.6581 23.9869 31.427V30.5797C24.0636 29.9635 24.8299 29.8094 25.0598 29.8094C25.1365 29.6554 25.1365 29.5784 24.9832 29.4243C24.6767 29.4243 23.9103 29.5784 23.6038 29.5784C23.5271 31.0419 23.6038 31.9662 23.6804 33.0446C23.757 33.1216 23.9103 33.1216 23.9869 33.0446V32.8905C23.9869 32.5054 24.2935 32.5054 24.7533 32.4284C25.0598 32.4284 25.7496 32.4284 26.3626 32.3513C27.129 32.2743 27.129 32.4284 27.2056 32.7365V32.8905C27.2823 32.9676 27.5122 32.8905 27.5122 32.8905C27.4355 32.2743 27.4355 31.504 27.4355 30.8878C27.4355 30.6567 27.2056 30.6567 27.129 30.7338ZM40.3103 12.4784C40.0038 12.5554 39.8505 13.0946 39.8505 13.3257C39.7739 13.5567 39.7739 13.9419 39.7739 13.9419C39.7739 14.0189 39.6972 14.0189 39.544 13.9419C39.3907 13.9419 39.2374 13.6338 39.1608 13.4797C39.1608 13.3257 39.1608 13.1716 39.0841 13.0946C39.1608 13.0946 39.2374 13.1716 39.314 13.0946C39.4673 13.0176 39.4673 12.8635 39.4673 12.5554C39.4673 12.4013 39.3907 12.3243 39.314 12.2473H39.1608V12.0162C39.1608 11.9392 39.0841 11.8621 39.0075 11.8621C38.9309 11.8621 38.7776 11.7851 38.701 11.8621C38.5477 11.8621 38.4711 11.9392 38.3944 11.9392C38.3178 12.0932 38.3178 12.1703 38.3178 12.1703C38.3178 12.2473 38.3944 12.3243 38.3944 12.3243C38.3178 12.3243 38.2411 12.3243 38.2411 12.4013C38.1645 12.4784 38.1645 12.6324 38.1645 12.7094C38.2411 12.9405 38.3178 13.0946 38.4711 13.1716C38.5477 13.1716 38.6243 13.1716 38.6243 13.0946C38.6243 13.1716 38.701 13.3257 38.701 13.4797C38.701 13.6338 38.701 14.0189 38.5477 14.0959C38.4711 14.0959 38.3944 14.173 38.3944 14.0959L38.0879 13.5567C37.858 13.1716 37.6281 12.8635 37.3982 12.8635C37.3215 12.8635 37.1683 12.9405 37.0916 13.0176C37.015 13.1716 37.015 13.4797 37.1683 13.6338C37.3215 13.7878 37.5514 13.8648 37.6281 13.7878L38.0879 14.7121C38.1645 14.9432 38.3178 15.3284 38.3944 15.5594C38.4711 15.7905 38.701 15.9446 39.0075 16.0216C39.0075 16.0216 39.1608 18.1784 39.7739 22.4919C39.8505 22.6459 40.2337 22.723 40.3869 22.6459C40.6168 22.5689 40.9234 22.4919 40.8468 22.1838C40.157 17.8703 39.6972 15.7905 39.6972 15.8676C39.9271 15.7135 40.157 15.5594 40.157 15.2513V14.25C40.157 13.8648 40.157 13.6338 40.2337 13.2486C40.3869 13.2486 40.5402 13.1716 40.6168 13.0176C40.6935 12.7865 40.6935 12.5554 40.6168 12.4013C40.5402 12.4784 40.4636 12.4013 40.3103 12.4784ZM39.7739 27.5757C39.9271 27.8067 40.3869 28.0378 41.0767 27.9608C41.6897 27.8838 41.9963 27.5757 42.1496 27.1905C42.3028 27.3446 42.686 28.9621 41.3066 29.1162C39.9271 29.2703 39.6972 27.9608 39.7739 27.5757ZM42.5327 24.8797C42.4561 24.8027 42.3795 24.7257 42.2262 24.7257C42.3028 24.5716 42.3795 24.5716 42.3795 24.4176C42.4561 24.2635 42.4561 24.1094 42.3795 23.8013C42.3028 23.6473 42.1496 23.6473 41.9963 23.5703C41.9963 23.4932 42.0729 23.4932 42.0729 23.3392C42.1496 23.1081 42.0729 23.0311 41.9963 22.877C41.843 22.6459 41.3066 22.6459 41.2299 22.8C41.0767 23.1081 40.6935 23.2621 40.3869 23.2621C40.0038 23.3392 39.6972 23.2621 39.3907 23.1081C39.1608 22.954 39.0075 22.954 38.8542 23.1081C38.701 23.2621 38.5477 23.4932 38.5477 23.8013C38.5477 24.1094 38.7776 24.2635 38.7776 24.4176C38.8542 24.6486 38.6243 24.8027 38.701 25.0338C38.7776 25.2648 38.9309 25.3419 39.0075 25.4959C39.0841 25.65 39.0075 25.804 39.0075 26.0351C39.0075 26.2662 39.2374 26.4203 39.314 26.4973C39.3907 26.6513 39.314 26.8824 39.3907 26.9594C39.544 27.1135 39.6206 27.1135 39.8505 27.1905C40.2337 27.2676 40.7701 27.2675 41.3832 27.0365C41.6897 26.8824 42.0729 26.7284 42.2262 26.3432C42.3028 26.1892 42.2262 25.9581 42.1496 25.804C42.3028 25.727 42.3795 25.65 42.3795 25.4959C42.686 25.1878 42.6094 24.9567 42.5327 24.8797ZM41.2299 25.8811C41.1533 25.9581 41 25.9581 40.9234 25.9581C40.9234 26.0351 41 26.1892 41 26.1892C41 26.1892 40.6935 26.2662 40.6935 26.1892C40.6168 26.1892 40.6168 26.1121 40.5402 26.0351C40.4636 26.0351 40.3869 26.1121 40.2337 26.0351C40.157 26.0351 40.0804 25.727 40.0804 25.65C40.157 25.573 40.2337 25.65 40.3869 25.573C40.3103 25.4959 40.3103 25.3419 40.3103 25.3419C40.3103 25.3419 40.6168 25.2648 40.6168 25.3419C40.6935 25.4189 40.6935 25.4959 40.6935 25.573C40.7701 25.573 40.9234 25.4959 41 25.573C41.2299 25.573 41.3066 25.804 41.2299 25.8811ZM47.514 13.9419C47.5907 13.2486 47.8206 12.7094 47.9739 12.3243C47.9739 12.2473 47.8206 12.0932 47.8206 12.0932C47.744 12.0932 44.4486 12.9405 41.6897 14.6351C41.1533 14.9432 41.5365 16.1757 41.9197 17.023C43.1458 19.95 44.5253 19.5648 45.0617 21.7986C45.215 22.5689 45.9047 25.3419 45.9813 25.727C46.2112 26.4973 46.901 26.9594 47.744 26.8824C47.514 23.2621 47.1309 17.3311 47.514 13.9419ZM43.9888 16.3297C43.9122 16.7148 43.529 17.4851 43.3757 17.4851C43.1458 17.4081 42.9159 16.5608 42.9159 16.1757C42.9159 15.9446 42.9925 15.8676 43.0692 15.7905C43.1458 15.7905 43.2991 16.0986 43.2991 16.4838H43.529C43.6056 16.0216 43.8355 15.7905 43.9122 15.8676C44.0654 15.8676 44.0654 16.0986 43.9888 16.3297ZM45.215 13.8649C45.2916 13.6338 45.2916 13.5567 45.3683 13.5567C45.4449 13.5567 45.5215 13.8648 45.4449 14.25H45.6748C45.8281 13.8648 46.058 13.7108 46.1346 13.7108C46.2112 13.7878 46.2112 13.9419 46.1346 14.0959C45.9813 14.404 45.5982 15.0973 45.3683 15.0203C45.215 15.0973 45.1383 14.25 45.215 13.8649ZM46.3645 18.1784C46.2112 18.5635 45.7514 19.4108 45.5215 19.3338C45.215 19.2567 45.1383 18.2554 45.215 17.8703C45.215 17.6392 45.2916 17.4851 45.4449 17.4851C45.5215 17.4851 45.5982 17.7932 45.5982 18.3324H45.8281C45.9813 17.7932 46.2112 17.6392 46.2879 17.7162C46.4411 17.7932 46.4411 17.9473 46.3645 18.1784ZM61.9215 14.7121C58.9327 12.8635 55.6374 12.0932 55.5608 12.0932C55.4841 12.0932 55.3309 12.2473 55.4075 12.3243C55.5608 12.6324 55.7907 13.1716 55.8673 13.8649C56.2505 17.254 55.8673 23.1851 55.6374 26.8824C56.4804 26.9594 57.0935 26.4973 57.4 25.727C57.5533 25.3419 58.0897 22.5689 58.3196 21.7986C58.7795 19.95 61.0785 19.1797 61.6916 17.177C61.9982 16.2527 62.458 15.0203 61.9215 14.7121ZM57.1701 13.7878C57.2468 13.7878 57.4767 13.8648 57.6299 14.327H57.8598C57.7832 13.9419 57.8598 13.6338 57.9365 13.6338C58.0131 13.6338 58.0897 13.7108 58.0897 13.9419C58.1664 14.25 58.0897 15.0973 57.8598 15.1743C57.7066 15.2513 57.2468 14.5581 57.0935 14.25C57.0935 14.0189 57.0935 13.8648 57.1701 13.7878ZM57.9365 19.95C57.7066 20.027 57.2468 19.1797 57.0935 18.7946C57.0168 18.5635 57.0168 18.3324 57.0935 18.2554C57.1701 18.1784 57.4 18.4094 57.5533 18.8716H57.7832C57.7832 18.4094 57.8598 18.0243 57.9365 18.0243C58.0131 18.0243 58.0897 18.1784 58.1664 18.4094C58.3197 18.8716 58.1664 19.873 57.9365 19.95ZM60.1589 17.5621C59.929 17.5621 59.6225 16.7919 59.5458 16.4067C59.4692 16.1757 59.5458 16.0216 59.6225 15.9446C59.6991 15.9446 59.929 16.0986 60.0056 16.5608H60.2355C60.2355 16.0986 60.3888 15.7905 60.4654 15.7905C60.5421 15.7905 60.6187 15.9446 60.6187 16.1757C60.6187 16.6378 60.3888 17.4851 60.1589 17.5621ZM54.1047 8.08782C54.1047 8.08782 54.1047 7.47161 53.5683 7.31755V7.1635C53.5683 7.1635 54.1047 7.08647 54.4112 7.31755V7.54863C54.7944 8.47296 54.1813 8.85809 54.1813 9.55134C53.415 9.08917 52.8019 9.08917 52.8019 9.08917L52.4187 8.08782C52.4187 8.08782 52.572 8.0108 52.9552 8.0108C53.3383 8.0108 53.7982 7.93377 54.1047 8.08782ZM51.5757 4.92971C50.5028 4.92971 49.3533 5.00674 48.6636 5.39188C48.5103 5.08377 48.2804 3.69728 47.8206 3.23512C47.744 3.15809 47.5907 2.92701 47.514 2.92701C47.4374 2.84999 47.4374 2.77296 47.514 2.77296C47.5907 2.77296 47.6673 2.69593 47.8206 2.77296C47.9739 2.77296 48.0505 2.84999 48.1271 3.08107H48.2038V2.77296C48.2038 2.69593 48.357 2.6189 48.5103 2.84999C48.5869 2.92701 48.6636 3.00404 48.6636 3.08107C48.6636 3.15809 48.7402 3.31215 48.6636 3.38917C48.5869 3.4662 48.5103 3.38917 48.4337 3.38917V3.4662C48.5869 3.62026 48.8935 3.85134 49.2 3.77431C49.5832 3.69728 49.7365 3.4662 49.6598 3.15809C49.6598 3.15809 49.5832 3.23512 49.5066 3.23512C49.4299 3.23512 49.2767 3.23512 49.2 3.00404C49.1234 2.84999 49.1234 2.69593 49.2 2.69593C49.2 2.6189 49.3533 2.6189 49.5066 2.69593V2.6189C49.2767 2.54188 49.2767 2.38782 49.2767 2.3108C49.2767 2.23377 49.3533 2.07972 49.5832 2.07972C49.8897 2.00269 49.9664 2.15674 49.9664 2.23377C49.9664 2.3108 49.9664 2.46485 49.8131 2.54188L49.8897 2.6189C49.9664 2.6189 49.9664 2.54188 49.9664 2.54188C49.9664 2.54188 50.043 2.46485 50.1197 2.46485C50.1963 2.46485 50.2729 2.46485 50.3496 2.69593C50.4262 3.00404 50.2729 3.08107 50.1963 3.08107C50.1197 3.08107 50.043 3.08107 49.9664 3.00404C50.1196 3.31215 50.3496 3.54323 50.8094 3.4662C51.1926 3.4662 51.4225 3.23512 51.4225 2.77296C51.4225 2.77296 51.3458 2.84999 51.1926 2.84999C51.0393 2.84999 50.9626 2.77296 50.9626 2.54188C50.886 2.3108 50.9626 2.23377 51.1159 2.15674C51.1925 2.07972 51.3458 2.15674 51.3458 2.23377V2.15674C51.2692 2.07972 51.1926 2.00269 51.1926 1.84863C51.1926 1.77161 51.3458 1.69458 51.5757 1.69458C51.8056 1.69458 51.9589 1.77161 51.9589 1.84863C51.9589 1.92566 51.8823 2.00269 51.8056 2.15674V2.23377C51.8056 2.23377 51.9589 2.15674 52.0355 2.15674C52.1122 2.15674 52.1888 2.3108 52.1888 2.54188C52.1122 2.69593 52.0355 2.84999 51.9589 2.84999C51.8056 2.84999 51.8056 2.77296 51.729 2.77296C51.729 3.23512 52.0355 3.4662 52.3421 3.4662C52.7253 3.4662 53.0318 3.31215 53.1084 3.00404C53.1084 3.08107 53.0318 3.08107 52.9552 3.08107C52.8785 3.08107 52.7253 3.00404 52.8019 2.69593C52.8785 2.46485 52.9552 2.46485 53.0318 2.46485C53.0318 2.46485 53.1084 2.46485 53.1851 2.54188L53.2617 2.6189L53.3383 2.54188C53.1851 2.46485 53.1851 2.23377 53.1851 2.23377C53.1851 2.15674 53.3383 2.00269 53.5683 2.07972C53.7982 2.15674 53.8748 2.23377 53.8748 2.3108C53.8748 2.38782 53.7982 2.54188 53.6449 2.6189V2.69593C53.7982 2.6189 53.9514 2.69593 53.9514 2.69593C53.9514 2.77296 54.0281 2.84999 53.9514 3.00404C53.8748 3.23512 53.7215 3.23512 53.6449 3.23512C53.5682 3.23512 53.5683 3.15809 53.4916 3.15809C53.4916 3.4662 53.5683 3.69728 53.9514 3.77431C54.258 3.85134 54.6411 3.62026 54.7178 3.4662V3.38917C54.6411 3.4662 54.5645 3.4662 54.4879 3.38917C54.4112 3.31215 54.4112 3.23512 54.4879 3.08107C54.4879 3.00404 54.5645 2.92701 54.6411 2.84999C54.7944 2.69593 54.9477 2.77296 54.9477 2.77296C55.0243 2.84999 55.0243 2.92701 54.9477 3.08107H55.0243C55.101 2.92701 55.1776 2.84999 55.3309 2.77296H55.6374C55.714 2.77296 55.714 2.84999 55.6374 2.92701C55.5608 2.92701 55.4075 3.15809 55.3309 3.23512C54.871 3.77431 54.6411 5.08377 54.4879 5.39188C53.7982 5.08377 52.7253 4.92971 51.5757 4.92971Z" fill="white"/>
<path d="M50.9626 10.7838C51.2692 10.7838 51.4991 10.3987 51.4991 10.3987H51.729C51.729 10.3987 51.8823 10.7838 52.1888 10.7838C53.2617 10.9379 54.1047 11.0919 54.4112 11.246C54.6411 10.8609 54.5645 10.4757 53.9514 10.0906C53.7215 9.93653 53.1084 9.70545 52.1888 9.70545C51.6524 10.3217 51.0393 9.55139 50.3496 9.78247C50.5795 9.55139 50.886 9.24328 51.1926 9.24328L51.4991 9.39734C51.6524 9.47436 52.0355 9.32031 52.1122 9.24328C52.1888 9.16626 51.8056 7.08653 51.8056 7.08653C51.8056 7.08653 52.7253 6.54734 53.4916 6.54734C54.1813 6.54734 54.4112 7.0095 54.4112 7.0095C54.7178 5.54599 52.8785 5.62301 51.5757 5.62301C47.9739 5.62301 48.8935 6.31626 49.0468 7.54869C49.0468 7.8568 48.5103 8.1649 49.0468 9.39734C49.1234 9.55139 49.2 9.78247 49.2 10.0906C48.7402 10.3987 48.5869 10.8609 48.8168 11.246C49.2767 11.0149 50.1963 10.8609 50.9626 10.7838ZM51.3458 7.08653C51.1925 7.62572 51.1159 8.16491 51.1159 8.16491C51.1159 8.16491 50.886 8.08788 50.4262 8.08788H49.2767C49.3533 7.8568 49.4299 7.39463 49.9664 7.39463V7.24058L49.2767 7.08653C49.8131 5.93112 51.1159 6.93247 51.3458 7.08653ZM54.1047 11.6311C52.3421 11.323 50.7327 11.323 48.9701 11.7081C48.6636 12.9406 48.2804 15.5595 48.8935 16.3298C49.0468 16.4838 50.043 16.946 50.9626 16.7149C51.1925 16.5609 51.1926 15.4054 51.2692 14.8663C51.3458 14.096 51.3458 14.019 51.4225 14.019H51.729C51.8823 14.096 51.8056 16.4838 52.1122 16.6379C52.9552 16.946 54.1813 16.5609 54.4112 16.2527C54.9477 15.6365 54.4112 12.4014 54.1047 11.6311ZM51.5757 12.7095C50.7327 12.7095 50.5028 12.4784 50.5028 12.0163C50.5028 12.0163 50.7327 12.1703 51.5757 12.1703C52.4187 12.1703 52.6486 12.0163 52.6486 12.0163C52.6486 12.4784 52.3421 12.7095 51.5757 12.7095ZM51.5757 34.8163C48.8935 34.8163 45.7514 35.1244 44.5253 35.3554C44.2187 34.6622 43.4524 32.8136 42.3795 31.5811C42.2262 31.4271 41.7664 30.9649 41.6897 30.8109C41.6131 30.7338 41.5365 30.5027 41.6897 30.5027C41.9197 30.4257 42.1496 30.4257 42.3795 30.4257C42.7626 30.5027 42.9926 30.6568 43.0692 31.119L43.2225 31.196C43.1458 30.9649 43.1458 30.7338 43.2991 30.5798C43.3757 30.5027 43.6823 30.3487 44.1421 30.7338C44.372 30.9649 44.4486 31.119 44.5253 31.35C44.6019 31.5811 44.6785 31.8122 44.4486 31.9663C44.2954 32.0433 44.0654 32.0433 43.8355 31.9663V32.1203C44.1421 32.5054 44.9084 32.9676 45.7514 32.8906C46.7477 32.7365 46.9776 32.1973 46.901 31.5811C46.901 31.5811 46.8243 31.5811 46.8243 31.5041C46.7477 31.5811 46.6711 31.6582 46.5178 31.7352C46.3645 31.7352 46.058 31.7352 45.7514 31.273C45.5982 30.8879 45.5982 30.6568 45.6748 30.5798C45.7514 30.5027 45.9813 30.4257 46.4411 30.5027V30.4257C45.9047 30.2717 45.8281 29.9636 45.8281 29.7325C45.8281 29.5784 45.9813 29.2703 46.5944 29.1933C47.2841 29.0392 47.514 29.3473 47.5907 29.5014C47.6673 29.6554 47.5907 30.0406 47.2841 30.2717L47.3608 30.3487C47.4374 30.2717 47.514 30.1946 47.5907 30.1946C47.6673 30.1176 47.8206 30.1176 47.8972 30.1176C48.1271 30.1176 48.2804 30.1946 48.4337 30.7338C48.5869 31.4271 48.1271 31.5041 48.0505 31.5041C47.8972 31.5041 47.6673 31.4271 47.5907 31.4271L47.514 31.5041C47.8972 32.1973 48.5103 32.6595 49.5066 32.5825C50.4262 32.5054 51.0393 32.0433 51.0393 31.0419C51.0393 31.0419 50.9626 31.0419 50.9626 30.9649C50.9626 30.9649 50.8094 31.196 50.5028 31.196C50.1963 31.196 49.9664 30.9649 49.8897 30.5798C49.7365 30.1176 49.9664 29.8865 50.1963 29.8095C50.5028 29.7325 50.7327 29.8865 50.8094 29.9636L50.886 29.8865C50.7327 29.7325 50.5795 29.5014 50.5795 29.2703C50.6561 29.0392 50.9626 28.8081 51.4991 28.8081C52.0355 28.8081 52.3421 28.9622 52.4187 29.2703C52.4954 29.4244 52.3421 29.6554 52.1122 29.8865L52.1888 29.9636C52.2654 29.8865 52.572 29.7325 52.8019 29.8095C53.0318 29.8865 53.1851 30.1176 53.1084 30.5798C53.0318 30.9649 52.8019 31.196 52.4954 31.196C52.1888 31.196 52.0355 30.9649 52.0355 30.9649C52.0355 30.9649 51.9589 30.9649 51.9589 31.0419C51.9589 32.0433 52.6486 32.5825 53.4916 32.5825C54.4879 32.6595 55.101 32.2744 55.4841 31.5041C55.4841 31.5041 55.4841 31.4271 55.4075 31.4271C55.2542 31.5041 55.0243 31.5041 54.9477 31.5041C54.7944 31.5041 54.4112 31.35 54.5645 30.7338C54.7178 30.1946 54.8711 30.1176 55.101 30.1176C55.1776 30.1176 55.3309 30.1946 55.4075 30.1946C55.4841 30.2717 55.5608 30.2717 55.6374 30.3487L55.714 30.2717C55.4075 30.0406 55.3309 29.6554 55.4075 29.5014C55.4841 29.3473 55.714 29.0392 56.4038 29.1933C57.0168 29.2703 57.1701 29.5784 57.1701 29.7325C57.1701 29.8865 57.0935 30.2717 56.557 30.4257V30.5027C57.0169 30.3487 57.2468 30.4257 57.3234 30.5798C57.4 30.6568 57.4 30.9649 57.2468 31.273C57.0168 31.7352 56.6337 31.7352 56.4804 31.7352C56.3271 31.7352 56.2505 31.5811 56.1739 31.5041C56.1739 31.5041 56.0972 31.5041 56.0972 31.5811C56.0206 32.1973 56.2505 32.7365 57.2468 32.8906C58.0897 33.0446 58.8561 32.5825 59.1626 32.1203V31.9663C58.9327 32.0433 58.7028 32.1203 58.5496 31.9663C58.3197 31.8122 58.3963 31.5811 58.4729 31.35C58.5496 31.119 58.6262 30.9649 58.8561 30.7338C59.2393 30.3487 59.5458 30.5027 59.6991 30.5798C59.7757 30.7338 59.8524 30.9649 59.7757 31.196L59.929 31.119C60.0056 30.6568 60.2355 30.5027 60.6187 30.4257C60.9253 30.3487 61.1552 30.4257 61.3084 30.5027C61.4617 30.5798 61.3851 30.7338 61.3084 30.8109C61.2318 30.8879 60.772 31.35 60.6187 31.5811C59.5458 32.7365 58.7795 34.6622 58.4729 35.3554C57.4767 35.1244 54.258 34.8163 51.5757 34.8163ZM49.5066 47.2946C49.6598 47.2946 49.7365 47.2176 49.8897 47.0636H49.3533C49.3533 47.2176 49.3533 47.2946 49.5066 47.2946ZM49.5832 42.2109H49.0468C49.0468 42.3649 49.1234 42.4419 49.2 42.4419C49.4299 42.4419 49.5066 42.3649 49.5832 42.2109ZM54.6412 43.8284H54.7944C55.1776 43.8284 55.4841 43.5973 55.4841 43.1352C55.4841 42.673 55.101 42.519 54.7944 42.519C54.0281 42.519 54.0281 43.3663 53.1851 43.5203H53.6449C54.1813 43.5973 54.4879 43.5973 54.6412 43.8284Z" fill="white"/>
<path d="M51.5757 35.8176C47.8206 35.8176 45.5215 36.2028 44.6785 36.3568C44.6785 36.973 44.9084 42.2879 45.0617 46.3703C45.2916 51.3001 47.8972 52.8406 51.5757 52.8406C55.0243 52.8406 57.8598 52.0703 58.0897 46.3703C58.3197 42.2879 58.4729 36.973 58.4729 36.3568C57.7066 36.2028 55.4075 35.8176 51.5757 35.8176ZM52.2654 36.973C52.4953 36.973 52.572 37.1271 52.572 37.2041H52.8019C52.8019 37.1271 52.8785 36.973 53.1084 36.973C53.415 36.973 53.4916 37.2041 53.4916 37.2041C53.4916 37.5892 52.9552 37.6663 52.8019 37.8203H52.7253C52.572 37.6663 52.0355 37.5892 52.0355 37.2041C51.8823 37.2041 51.8823 36.973 52.2654 36.973ZM48.6636 37.3582H48.8935L48.7402 36.5879H48.8168C49.0468 36.742 49.1234 36.973 49.1234 36.973H49.2C49.2 36.819 49.3533 36.5879 49.3533 36.5879H49.5066C49.5832 36.742 49.6598 36.973 49.6598 36.973H49.7365C49.7365 36.973 49.8131 36.742 50.043 36.5879H50.1197L49.9664 37.2041C50.1963 37.2041 50.7327 38.0514 50.7327 38.8217C50.9626 38.7447 52.1122 38.7447 52.1888 38.7447C51.4225 38.6676 50.886 38.2825 50.886 37.2041H51.1159C51.4991 37.2811 51.729 37.5892 51.729 37.7433C51.729 37.8974 51.6524 37.9744 51.5757 38.0514C51.5757 38.2055 51.8823 38.4365 52.4187 38.4365C53.5682 38.4365 53.4916 37.1271 54.9477 37.1271C55.4841 37.1271 56.2505 37.3582 56.2505 38.2055C56.2505 39.1298 55.1776 39.2068 54.9477 39.2068C55.101 39.3609 54.8711 39.746 55.4075 39.746C55.8673 39.746 56.4804 39.592 56.7103 39.592C57.0935 39.592 56.8636 40.0541 57.1701 40.3622C57.4 40.5933 57.4 40.6703 57.4 40.7474C57.4 40.8244 57.3234 40.9784 57.2468 40.9784V40.8244H57.1701C57.1701 40.8244 57.0935 40.8244 57.0168 40.6703C56.8636 40.6703 56.8636 40.7474 56.8636 40.8244V40.9784C56.8636 41.1325 56.7103 41.1325 56.7103 41.1325V41.2865C56.6337 41.2865 56.557 41.2095 56.557 41.0555V40.9014C56.557 40.8244 56.557 40.8244 56.4804 40.8244H56.4038C56.4038 40.8244 56.4038 41.0555 56.2505 41.0555H56.0972L56.0206 41.1325V41.2095C55.9439 41.4406 55.9439 41.3636 55.9439 41.2865C55.9439 41.0555 56.0972 41.1325 56.0972 41.0555C56.0972 40.9784 56.0206 40.9784 56.0206 40.9784H55.7907C55.714 41.0555 55.714 41.0555 55.714 41.1325C55.714 41.0555 55.6374 40.9784 55.6374 40.9784C55.6374 40.8244 55.7907 40.7474 56.0206 40.7474H56.2505C56.4038 40.7474 56.557 40.5933 56.557 40.5163C56.2505 40.5163 55.1776 40.9014 54.258 40.9014C52.9552 40.9014 53.9514 39.2838 52.9552 39.2838C51.9589 39.2838 51.729 40.3622 50.6561 40.3622C50.2729 40.3622 49.9664 40.2852 49.8897 40.2852C49.8897 40.5933 49.8897 40.7474 49.5832 40.7474C49.3533 40.7474 48.5103 40.8244 47.2075 40.8244C47.1309 41.2865 46.9776 41.3636 46.8243 41.3636C46.7477 41.3636 46.6711 41.2865 46.5944 41.2865C46.6711 41.2865 46.8243 41.2865 46.8243 41.2095L46.7477 41.1325C46.7477 41.1325 46.7477 41.0555 46.8243 40.9784H46.7477C46.5944 40.9784 46.4411 41.2865 46.2112 41.2865C46.1346 41.2865 46.058 41.2095 46.058 41.1325C45.9813 41.1325 45.9047 41.2095 45.9047 41.2865C45.9047 41.1325 45.9813 40.9784 46.1346 40.9784C46.2879 40.9784 46.2879 40.9784 46.2879 40.9014V40.8244H46.1346C45.9813 40.8244 45.9047 40.7474 45.9047 40.6703C45.9047 40.6703 45.8281 40.6703 45.7514 40.7474C45.7514 40.5933 45.9047 40.4392 45.9813 40.4392C46.1346 40.4392 46.1346 40.4392 46.2879 40.5163V40.4392C46.2879 40.3622 46.2112 40.3622 46.058 40.2852C45.9813 40.2852 45.9813 40.1311 45.9047 40.1311C45.8281 40.1311 45.7514 40.2082 45.7514 40.2082C45.8281 40.0541 45.9047 39.9001 46.1346 39.9001C46.5178 39.9001 46.5178 40.2852 46.9776 40.2852C47.5907 40.2852 48.5869 40.2082 48.7402 40.1311C48.5869 39.9771 48.5103 39.9001 48.5103 39.669C48.5103 39.4379 48.7402 39.1298 48.8168 38.9757H48.6636C48.5869 38.9757 48.4337 38.9757 48.4337 38.8217C48.4337 38.6676 48.5103 38.5906 48.5869 38.5136H48.7402C48.7402 38.5906 48.8168 38.6676 49.1234 38.6676C49.4299 38.6676 49.5066 38.5136 49.5066 38.3595C49.5066 37.9744 49.3533 37.8974 49.0468 37.8974C48.8168 37.8974 48.8168 37.8974 48.8168 38.0514H48.6636C48.5869 37.8974 48.5103 37.7433 48.5103 37.5892C48.2038 37.4352 48.2804 37.3582 48.6636 37.3582ZM51.4991 41.3636H51.4225C51.1925 41.3636 51.1925 41.8257 50.8094 41.5947C50.7327 41.5947 50.7327 41.6717 50.8094 41.7487C50.7327 41.6717 50.6561 41.5947 50.7327 41.5176C50.8094 41.4406 50.9626 41.3636 50.9626 41.2865C50.9626 41.2865 50.9626 41.2095 50.886 41.2095C50.7327 41.2095 50.6561 41.4406 50.5028 41.2865V41.2095C50.5028 41.2095 50.4262 41.2095 50.3496 41.2865C50.3496 41.1325 50.4262 41.1325 50.5028 41.0555C50.6561 40.9784 50.8094 40.9784 50.8094 40.9784V40.9014C50.7327 40.8244 50.5795 40.9784 50.5795 40.8244C50.5028 40.8244 50.4262 40.8244 50.4262 40.9014C50.4262 40.7474 50.5795 40.6703 50.7327 40.5933C50.886 40.5933 51.1925 40.7474 51.4225 40.8244H51.9589C52.1122 40.8244 52.1122 40.7474 52.0355 40.5163C51.9589 40.1311 52.0355 39.823 52.3421 39.592C52.572 39.4379 52.8019 39.4379 53.0318 39.4379C53.1084 39.5149 53.1851 39.592 53.1851 39.746C53.1851 39.9001 53.1851 39.9771 53.2617 40.2082C53.1084 40.2082 52.8785 40.2852 52.7253 40.4392C52.6486 40.5933 52.8019 40.8244 52.8019 40.9784C52.8019 41.1325 52.7253 41.1325 52.572 41.2095H51.9589V41.2865C51.9589 41.3636 51.8823 41.5176 51.729 41.5176C51.5757 41.5947 51.4991 41.6717 51.3458 41.5947C51.4225 41.5947 51.4991 41.5176 51.4991 41.5176C51.3458 41.4406 51.4991 41.3636 51.4991 41.3636ZM52.2654 41.9028C52.4953 41.9028 52.572 42.0568 52.572 42.1338H52.8019C52.8019 42.0568 52.8785 41.9028 53.1084 41.9028C53.415 41.9028 53.4916 42.1338 53.4916 42.1338C53.4916 42.519 52.9552 42.596 52.8019 42.7501H52.7253C52.572 42.596 52.0355 42.519 52.0355 42.1338C51.8823 42.0568 51.8823 41.9028 52.2654 41.9028ZM48.1271 44.7528C47.9739 44.6757 47.8972 44.5987 47.8206 44.5217C47.514 44.2136 47.4374 43.7514 47.2075 43.5203C46.9776 43.2122 46.8243 43.0582 46.8243 42.9811H46.5178C46.4411 42.9811 46.2112 42.9811 46.058 42.673C46.1346 42.673 46.2112 42.7501 46.2112 42.7501C46.2112 42.673 46.2879 42.673 46.2879 42.673C46.3645 42.673 46.3645 42.7501 46.4411 42.7501H46.5178V42.673C46.5178 42.519 46.3645 42.519 46.2879 42.519C46.058 42.519 46.058 42.2879 46.058 42.2879C46.058 42.2879 46.058 42.2109 45.9813 42.2109H45.9047C45.9813 42.1338 46.1346 42.0568 46.2879 42.0568C46.4411 42.0568 46.5944 42.2879 46.6711 42.2879C46.7477 42.2879 46.7477 42.2109 46.7477 42.2109C46.7477 42.1338 46.6711 42.1338 46.5944 42.0568L46.5178 41.9798V41.9028C46.4411 41.8257 46.4411 41.8257 46.2879 41.8257C46.4411 41.7487 46.5178 41.7487 46.5944 41.7487C46.8243 41.7487 46.9776 41.9798 46.9776 42.1338C47.0542 42.1338 47.0542 42.1338 47.0542 42.0568V41.9798C47.0542 41.9028 47.0542 41.8257 47.1309 41.8257C47.1309 41.7487 47.0542 41.7487 46.9776 41.7487H47.1309C47.2075 41.7487 47.4374 41.8257 47.4374 42.0568C47.4374 42.2879 47.2841 42.442 47.2841 42.519C47.2841 42.673 47.9739 43.7514 48.2804 43.9825C48.1271 44.0595 47.8972 44.5217 48.1271 44.7528ZM47.514 42.3649H47.6673C48.0505 42.3649 48.0505 42.9041 48.5103 42.9041C48.7402 42.9041 48.7402 42.8271 48.8935 42.8271C48.9701 42.8271 49.0468 42.8271 49.0468 42.9811C49.0468 43.1352 48.9701 43.1352 48.6636 43.1352C47.7439 43.2122 47.9739 42.673 47.514 42.3649ZM47.5907 37.5122C47.9739 37.5122 47.9739 38.0514 48.4337 38.0514C48.6636 38.0514 48.6636 37.9744 48.8168 37.9744C48.8935 37.9744 48.9701 37.9744 48.9701 38.1284C48.9701 38.2825 48.8935 38.2825 48.5869 38.2825C47.6673 38.2825 47.8972 37.7433 47.3608 37.5122C47.514 37.5892 47.5907 37.5122 47.5907 37.5122ZM46.2112 37.2041C46.3645 37.2041 46.5178 37.4352 46.5944 37.4352C46.6711 37.4352 46.6711 37.3582 46.6711 37.3582C46.6711 37.2811 46.5944 37.2811 46.5178 37.2041L46.4411 37.1271V37.0501C46.4411 36.973 46.3645 36.973 46.2879 36.973C46.4411 36.896 46.5178 36.896 46.5944 36.896C46.8243 36.896 46.9776 37.1271 46.9776 37.2811C47.0542 37.2811 47.0542 37.2811 47.0542 37.2041V37.1271C47.0542 37.0501 47.0542 36.973 47.1309 36.973C47.1309 36.896 47.0542 36.896 46.9776 36.896H47.1309C47.2075 36.896 47.4374 36.973 47.4374 37.2041C47.4374 37.4352 47.2841 37.5122 47.2841 37.6663C47.2841 37.8203 47.9739 38.8987 48.2804 39.1298C48.1271 39.3609 47.8972 39.746 48.2038 39.9771C48.0505 39.9001 47.9739 39.823 47.8972 39.746C47.5907 39.4379 47.514 38.9757 47.2841 38.7447C47.0542 38.4365 46.901 38.2825 46.901 38.2055H46.5944C46.5178 38.2055 46.2879 38.2055 46.1346 37.8974C46.2112 37.8974 46.2879 37.9744 46.2879 37.9744C46.2879 37.8974 46.3645 37.8974 46.3645 37.8974C46.4411 37.8974 46.4411 37.9744 46.5178 37.9744H46.5944V37.8974C46.5944 37.7433 46.4411 37.7433 46.3645 37.7433C46.1346 37.7433 46.1346 37.5122 46.1346 37.5122C46.1346 37.5122 46.1346 37.4352 46.058 37.4352H45.9813C45.9813 37.2811 46.058 37.2041 46.2112 37.2041ZM45.8281 38.5906C46.058 38.5906 46.1346 38.7447 46.1346 38.8217H46.3645C46.3645 38.7447 46.4411 38.5906 46.6711 38.5906C46.9776 38.5906 47.0542 38.8217 47.0542 38.8217C47.0542 39.2068 46.5178 39.2838 46.3645 39.4379H46.2879C46.1346 39.2838 45.5982 39.2068 45.5982 38.8217C45.4449 38.7447 45.4449 38.5906 45.8281 38.5906ZM45.4449 43.6744C45.4449 43.5974 45.4449 43.4433 45.8281 43.4433C46.058 43.4433 46.1346 43.5974 46.1346 43.6744H46.3645C46.3645 43.5974 46.4411 43.4433 46.6711 43.4433C46.9776 43.4433 47.0542 43.6744 47.0542 43.6744C47.0542 44.0595 46.5178 44.1365 46.3645 44.2906H46.2879C45.9813 44.1365 45.4449 44.0595 45.4449 43.6744ZM46.058 45.6771C46.2112 45.6771 46.2112 45.6771 46.2112 45.6001V45.523H46.058C45.9047 45.523 45.8281 45.446 45.8281 45.369C45.8281 45.369 45.7514 45.369 45.6748 45.446C45.6748 45.292 45.8281 45.1379 45.9047 45.1379C46.058 45.1379 46.058 45.1379 46.2112 45.2149V45.1379C46.2112 45.0609 46.1346 45.0609 45.9813 44.9838C45.9047 44.9838 45.9047 44.8298 45.8281 44.8298C45.7514 44.8298 45.6748 44.9068 45.6748 44.9068C45.7514 44.7528 45.8281 44.5987 46.058 44.5987C46.4411 44.5987 46.4411 44.9838 46.901 44.9838C47.514 44.9838 48.357 44.9068 48.5103 44.8298C48.4337 44.7528 48.2804 44.6757 48.2804 44.4447C48.2804 44.2136 48.5103 43.9055 48.5869 43.7514H48.4337C48.357 43.7514 48.2038 43.7514 48.2038 43.5974C48.2038 43.4433 48.2804 43.3663 48.357 43.2892H48.5103C48.5103 43.4433 48.5869 43.4433 48.8935 43.4433C49.2 43.4433 49.2767 43.2892 49.2767 43.1352C49.2767 42.7501 49.1234 42.7501 48.8168 42.7501C48.5869 42.7501 48.5869 42.7501 48.5869 42.9041H48.4337C48.357 42.7501 48.2804 42.596 48.2804 42.442C48.2804 42.2879 48.357 42.2109 48.7402 42.2109H48.9701L48.8168 41.4406H48.8935C49.1234 41.5947 49.2 41.8257 49.2 41.8257H49.2767C49.2767 41.6717 49.4299 41.4406 49.4299 41.4406H49.5832C49.6598 41.5947 49.7365 41.8257 49.7365 41.8257H49.8131C49.8131 41.8257 49.8897 41.5947 50.1197 41.4406H50.1963L50.043 42.0568C50.2729 42.0568 50.8094 42.9041 50.8094 43.6744C51.0393 43.5974 52.1888 43.5974 52.2654 43.5974C51.4991 43.5203 50.9626 43.1352 50.9626 42.0568H51.1925C51.5757 42.1338 51.8056 42.442 51.8056 42.596C51.8056 42.7501 51.729 42.8271 51.6524 42.9041C51.6524 43.0582 51.9589 43.2892 52.4954 43.2892C53.6449 43.2892 53.415 41.9798 54.9477 41.9798C55.4841 41.9798 56.2505 42.2109 56.2505 43.0582C56.2505 43.9825 55.3309 44.0595 55.101 44.0595C55.2542 44.2136 54.9477 44.8298 55.4841 44.7528C55.944 44.6757 56.557 44.4447 56.7103 44.4447C57.0935 44.3676 56.9402 44.9068 57.3234 45.2149C57.5533 45.446 57.6299 45.446 57.6299 45.523C57.6299 45.6001 57.6299 45.7541 57.4767 45.8311V45.6771H57.4C57.4 45.6771 57.3234 45.6771 57.2468 45.523C57.0935 45.6001 57.0935 45.6001 57.0935 45.6771C57.0935 45.7541 57.0935 45.7541 57.1701 45.8311C57.1701 45.9852 57.0935 45.9852 57.0168 46.0622V46.2163C56.9402 46.2163 56.8636 46.1392 56.7869 46.0622V45.9082C56.7869 45.8311 56.7103 45.8311 56.7103 45.8311H56.6337C56.6337 45.8311 56.6337 46.0622 56.4804 46.0622H56.3271C56.3271 46.0622 56.2505 46.1392 56.3271 46.1392V46.2163L56.1739 46.0622C56.1739 45.8311 56.3271 45.9082 56.3271 45.8311C56.3271 45.7541 56.2505 45.7541 56.2505 45.7541C56.1739 45.7541 56.1739 45.8311 56.0972 45.8311H56.0206C56.0206 45.9082 55.9439 45.9082 55.9439 45.9852C55.8673 45.9082 55.8673 45.9082 55.8673 45.8311C55.8673 45.6771 56.0206 45.6001 56.1739 45.523H56.4038C56.557 45.523 56.6337 45.369 56.6337 45.2149C56.3271 45.292 55.2542 45.6771 54.4112 45.6771C53.1084 45.6771 54.1047 43.9825 53.1084 43.9825C52.1122 43.9825 51.8823 45.0609 50.8094 45.0609C50.4262 45.0609 50.1197 44.9838 50.043 44.9838C50.043 45.292 50.043 45.446 49.7365 45.446C49.5066 45.446 48.8935 45.523 47.514 45.523C47.4374 45.9852 47.2841 46.0622 47.1309 46.0622C47.0542 46.0622 46.9776 45.9852 46.901 45.9852C46.9776 45.9852 47.1309 45.9852 47.1309 45.9082L47.0542 45.8311C47.0542 45.8311 47.0542 45.7541 47.1309 45.6771H47.0542C46.901 45.6771 46.7477 45.9852 46.5178 45.9852C46.4411 45.9852 46.3645 45.9082 46.3645 45.8311C46.2879 45.8311 46.2112 45.9082 46.2112 45.9852C45.7514 45.8311 45.8281 45.6771 46.058 45.6771ZM51.4991 46.1392H51.4225C51.1925 46.1392 51.1925 46.6014 50.8094 46.3703C50.7327 46.3703 50.7327 46.4474 50.8094 46.5244C50.7327 46.4474 50.6561 46.3703 50.7327 46.2933C50.8094 46.2163 50.9626 46.1392 50.9626 46.0622C50.9626 46.0622 50.9626 45.9852 50.886 45.9852C50.7327 45.9852 50.6561 46.2163 50.5028 46.0622V45.9852C50.5028 45.9852 50.4262 45.9852 50.3496 46.0622C50.3496 45.9852 50.4262 45.9082 50.5028 45.8311C50.6561 45.7541 50.8094 45.7541 50.8094 45.7541V45.6771C50.7327 45.6001 50.5795 45.7541 50.5795 45.6001C50.5028 45.6001 50.4262 45.6001 50.4262 45.6771C50.4262 45.523 50.5795 45.446 50.7327 45.369C50.886 45.369 51.1925 45.523 51.4225 45.6001H51.9589C52.1122 45.6001 52.1122 45.523 52.0355 45.292C51.9589 44.9068 52.0355 44.5987 52.3421 44.3676C52.572 44.2136 52.8019 44.2136 53.0318 44.2136C53.1084 44.2906 53.1851 44.3676 53.1851 44.5217C53.1851 44.6757 53.1851 44.7528 53.2617 44.9838C53.1084 44.9838 52.8785 45.0609 52.7253 45.2149C52.6486 45.369 52.8019 45.6001 52.8019 45.7541C52.8019 45.9082 52.7253 45.9082 52.572 45.9852H51.9589V46.0622C51.9589 46.1392 51.8823 46.2933 51.729 46.2933C51.5757 46.3703 51.4991 46.3703 51.3458 46.3703C51.4225 46.3703 51.4991 46.2933 51.4991 46.2933C51.3458 46.2163 51.4991 46.1392 51.4991 46.1392ZM52.2654 46.7555C52.4953 46.7555 52.572 46.9095 52.572 46.9865H52.8019C52.8019 46.9095 52.8785 46.7555 53.1084 46.7555C53.415 46.7555 53.4916 46.9865 53.4916 46.9865C53.4916 47.3717 52.9552 47.4487 52.8019 47.6028H52.7253C52.572 47.4487 52.0355 47.3717 52.0355 46.9865C51.8823 46.9095 51.8823 46.7555 52.2654 46.7555ZM48.5103 49.6055L48.2038 49.4514C47.8972 49.1433 47.8206 48.6811 47.5907 48.4501C47.3608 48.219 47.2075 47.9879 47.2075 47.9879H46.901C46.8243 47.9879 46.5944 48.0649 46.5178 47.6798C46.5944 47.6798 46.5944 47.7568 46.6711 47.7568C46.6711 47.6798 46.7477 47.6798 46.7477 47.6798H46.8243C46.8243 47.6798 46.901 47.6798 46.901 47.6028C46.901 47.5257 46.8243 47.4487 46.7477 47.4487C46.5944 47.4487 46.5178 47.2947 46.5178 47.2176C46.5178 47.2176 46.5178 47.1406 46.4411 47.2176H46.3645C46.4411 47.0636 46.5944 47.0636 46.6711 47.0636C46.8243 47.0636 46.901 47.0636 46.9776 47.2176L47.0542 47.1406C47.0542 47.0636 46.9776 47.0636 46.901 47.0636L46.8243 46.9865V46.9095C46.7477 46.8325 46.7477 46.8325 46.6711 46.8325C46.8243 46.7555 46.8243 46.6784 46.901 46.6784C47.2075 46.6784 47.2841 46.9095 47.2841 47.0636C47.3608 47.0636 47.3608 46.9865 47.3608 46.9865V46.9095C47.3608 46.8325 47.3608 46.7555 47.4374 46.7555C47.4374 46.6784 47.3608 46.6784 47.2841 46.6784C47.3608 46.6784 47.3608 46.6014 47.4374 46.6014C47.514 46.6014 47.6673 46.6784 47.7439 46.8325C47.7439 47.0636 47.6673 47.2176 47.6673 47.2947C47.6673 47.4487 48.357 48.4501 48.6636 48.6811C48.5103 48.9122 48.2804 49.3744 48.5103 49.6055ZM47.8206 47.2947H47.9739C48.357 47.2947 48.357 47.8338 48.8168 47.8338C49.0468 47.8338 49.0468 47.7568 49.2 47.7568C49.2767 47.7568 49.3533 47.7568 49.3533 47.9109C49.3533 48.0649 49.2767 48.0649 49.0468 48.0649C48.1271 48.0649 48.357 47.5257 47.8206 47.2947ZM45.8281 48.6041C45.8281 48.5271 45.8281 48.373 46.2112 48.373C46.4411 48.373 46.5178 48.5271 46.5178 48.6041H46.7477C46.7477 48.5271 46.8243 48.373 47.0542 48.373C47.3608 48.373 47.4374 48.6041 47.4374 48.6041C47.4374 48.9892 46.901 49.0663 46.7477 49.2203H46.6711C46.3645 49.1433 45.8281 48.9892 45.8281 48.6041ZM52.6486 50.2217C52.572 50.3757 52.7253 50.6838 52.7253 50.8379C52.7253 50.992 52.6486 51.069 52.572 51.069C52.4953 51.069 52.3421 51.146 52.0355 51.223C52.0355 51.223 52.1122 51.3001 52.1122 51.4541C52.1122 51.6082 51.8056 51.6852 51.729 51.6852C51.8056 51.6082 51.8056 51.5311 51.8056 51.5311C51.6524 51.4541 51.8056 51.3771 51.8056 51.3771H51.729C51.4991 51.4541 51.6524 51.9163 51.2692 51.7622C51.1925 51.8392 51.2692 51.8393 51.2692 51.9163C51.1925 51.9163 51.1159 51.7622 51.1159 51.6852L51.3458 51.4541C51.3458 51.4541 51.3458 51.3771 51.2692 51.4541C51.1159 51.4541 51.1159 51.6852 50.9626 51.6082V51.5311C50.9626 51.5311 50.886 51.5311 50.8094 51.6082C50.8094 51.5311 50.8094 51.4541 50.9626 51.3771C51.0393 51.3001 51.1925 51.3001 51.1925 51.223C51.1159 51.146 50.9626 51.3001 50.886 51.223C50.8094 51.223 50.8094 51.3001 50.7327 51.3771C50.7327 51.223 50.8094 51.069 50.9626 50.9919C51.1159 50.9149 51.4225 51.069 51.6524 50.9919C51.729 50.9919 51.8823 50.9149 51.8823 50.9149C51.9589 50.9149 51.9589 50.9149 52.0355 50.8379C52.1888 50.8379 52.1122 50.7609 52.0355 50.5298C51.8823 50.2217 52.1122 49.5284 52.3421 49.3744C52.4954 49.2203 52.7253 49.2203 52.9552 49.2203C53.0318 49.2974 53.0318 49.3744 53.0318 49.5284C53.0318 49.6825 53.0318 49.7595 53.1084 49.9906C52.9552 49.9906 52.7253 49.9906 52.6486 50.2217ZM56.7103 50.6068V50.4528H56.6337C56.557 50.4528 56.557 50.4528 56.4804 50.3757C56.4038 50.4528 56.3271 50.5298 56.4038 50.5298C56.4038 50.6068 56.4038 50.6068 56.4804 50.6838C56.4804 50.8379 56.4038 50.9149 56.4038 50.9149V51.069C56.3271 51.069 56.2505 51.069 56.1739 50.9149V50.7609C56.1739 50.6838 56.1739 50.7609 56.0972 50.7609H56.0206C56.0206 50.8379 56.0206 50.9919 55.9439 50.9919H55.7907V51.146C55.714 51.146 55.714 51.069 55.6374 50.9919C55.5608 50.8379 55.714 50.7609 55.714 50.6838H55.6374C55.5608 50.7609 55.5608 50.7609 55.4841 50.7609H55.4075V50.9149C55.3309 50.8379 55.3309 50.8379 55.3309 50.7609C55.3309 50.6068 55.4075 50.4528 55.5608 50.4528H55.714C55.7907 50.4528 55.944 50.2217 55.8673 50.1447C55.5608 50.2217 54.7178 50.8379 53.9514 50.8379C52.8785 50.8379 53.7215 48.9892 52.8019 48.9892C51.9589 48.9892 51.6524 50.0676 50.7327 50.0676C50.4262 50.0676 50.1197 49.9906 50.043 49.9906C50.043 50.2987 50.043 50.4528 49.7365 50.4528C49.5066 50.4528 49.2 50.5298 47.9739 50.5298C47.8972 50.992 47.8206 51.069 47.6673 51.069C47.5907 51.069 47.514 50.9919 47.514 50.9919C47.5907 50.9919 47.6673 50.992 47.6673 50.9149L47.5907 50.8379C47.5907 50.8379 47.5907 50.7609 47.6673 50.7609H47.5907C47.4374 50.7609 47.2841 50.9919 47.0542 50.9919C46.9776 50.9919 46.901 50.9149 46.901 50.8379C46.8243 50.8379 46.7477 50.9149 46.7477 50.9919C46.7477 50.8379 46.8243 50.6838 46.9776 50.6838C47.1309 50.6838 47.1309 50.6838 47.1309 50.6068V50.5298H46.9776C46.901 50.5298 46.7477 50.4528 46.7477 50.3757C46.7477 50.3757 46.6711 50.3757 46.5944 50.4528C46.5944 50.2987 46.7477 50.1447 46.8243 50.1447C46.9776 50.1447 46.9776 50.1447 47.1309 50.2217V50.1447C47.1309 50.0676 47.0542 50.0676 46.901 49.9906C46.8243 49.9906 46.8243 49.8365 46.7477 49.8365C46.6711 49.8365 46.5944 49.9136 46.5944 49.9136C46.5944 49.7595 46.7477 49.6055 46.9776 49.6055C47.2841 49.6055 47.2841 49.9906 47.7439 49.9906C48.2804 49.9906 48.7402 49.9136 48.8935 49.8365C48.8168 49.6825 48.6636 49.6055 48.6636 49.3744C48.6636 49.1433 48.8168 48.8352 48.8935 48.6811H48.7402C48.6636 48.6811 48.5103 48.6811 48.5103 48.5271C48.5103 48.373 48.5869 48.296 48.6636 48.219H48.8168C48.8168 48.373 48.8935 48.373 49.2 48.373C49.5066 48.373 49.5832 48.219 49.5832 48.0649C49.5832 47.6798 49.4299 47.6028 49.1234 47.6028C48.8935 47.6028 48.8935 47.6028 48.8935 47.7568H48.7402C48.6636 47.6028 48.5869 47.4487 48.5869 47.2947C48.5869 47.1406 48.6636 47.0636 49.0468 47.0636H49.2767L49.2 46.2933H49.2767C49.4299 46.4474 49.5832 46.6784 49.5832 46.6784H49.6598C49.6598 46.5244 49.8131 46.2933 49.8131 46.2933H49.8897C49.9664 46.4474 49.9664 46.6784 49.9664 46.6784H50.043C50.043 46.6784 50.1196 46.4474 50.2729 46.2933H50.3496L50.2729 46.9095C50.5028 46.9095 50.9626 47.7568 50.9626 48.5271C51.1925 48.4501 52.1888 48.4501 52.2654 48.4501C51.5757 48.373 51.0393 47.9879 51.0393 46.9095H51.2692C51.6524 46.9865 51.8056 47.2947 51.8056 47.4487C51.8056 47.6028 51.729 47.6798 51.6524 47.7568C51.6524 47.9109 51.8823 48.142 52.4187 48.142C53.415 48.142 53.4916 46.9865 54.7178 46.9865C55.1776 46.9865 55.7907 47.1406 55.7907 47.9879C55.7907 48.8352 54.8711 48.9892 54.7178 48.9892C54.8711 49.1433 54.4112 49.8365 54.8711 49.7595C55.3309 49.6055 55.7907 49.2974 55.9439 49.2974C56.3271 49.2203 56.1739 49.6825 56.557 49.9136C56.7869 50.0676 56.8636 50.1447 56.8636 50.2217C56.7869 50.3757 56.7869 50.5298 56.7103 50.6068ZM56.7869 49.2203H56.7103C56.557 49.0663 56.0206 48.9892 56.0206 48.6041C56.0206 48.5271 56.0206 48.373 56.4038 48.373C56.6337 48.373 56.7103 48.5271 56.7103 48.6041H56.9402C56.9402 48.5271 57.0168 48.373 57.2468 48.373C57.5533 48.373 57.6299 48.6041 57.6299 48.6041C57.4767 48.9892 56.9402 49.1433 56.7869 49.2203ZM57.0935 44.2906H57.0168C56.8636 44.1365 56.3271 44.0595 56.3271 43.6744C56.3271 43.5974 56.3271 43.4433 56.7103 43.4433C56.9402 43.4433 57.0168 43.5974 57.0168 43.6744H57.2468C57.2468 43.5974 57.3234 43.4433 57.5533 43.4433C57.8598 43.4433 57.9365 43.6744 57.9365 43.6744C57.7832 44.0595 57.2468 44.1365 57.0935 44.2906ZM57.0935 39.4379H57.0168C56.8636 39.2838 56.3271 39.2068 56.3271 38.8217C56.3271 38.7447 56.3271 38.5906 56.7103 38.5906C56.9402 38.5906 57.0168 38.7447 57.0168 38.8217H57.2468C57.2468 38.7447 57.3234 38.5906 57.5533 38.5906C57.8598 38.5906 57.9365 38.8217 57.9365 38.8217C57.8598 39.2068 57.3234 39.2838 57.0935 39.4379Z" fill="white"/>
<path d="M55.1776 48.0649C55.1776 47.6798 54.8711 47.5257 54.6411 47.5257C54.0281 47.5257 53.7982 48.296 53.0318 48.45H53.415C53.9514 48.45 54.1813 48.5271 54.3346 48.6811H54.4112C54.7944 48.6811 55.1776 48.45 55.1776 48.0649ZM54.6411 38.9757H54.7944C55.1776 38.9757 55.5608 38.7446 55.5608 38.2825C55.5608 37.8203 55.1776 37.6663 54.9477 37.6663C54.1813 37.6663 54.1047 38.5906 53.1851 38.6676H53.6449C54.1813 38.7446 54.4879 38.8217 54.6411 38.9757ZM49.2 37.6663C49.4299 37.6663 49.5066 37.5892 49.5832 37.4352H49.0468C49.0468 37.5122 49.1234 37.6663 49.2 37.6663ZM67.0561 23.4163C67.3626 23.4163 67.5925 23.5703 67.5925 23.9554C67.5925 24.4946 67.3626 24.7257 67.1327 24.7257C66.9028 24.7257 66.3664 24.5717 66.3664 24.0325C66.3664 23.4933 66.9028 23.4163 67.0561 23.4163ZM64.1439 23.5703C64.3739 23.5703 64.6038 23.8014 64.6804 23.9554C64.757 23.7244 64.9869 23.6473 65.1402 23.6473C65.4468 23.6473 65.6 23.8784 65.7533 24.2636C65.9066 24.5717 66.1365 24.9568 66.5963 25.0338C66.5963 25.65 66.443 26.0352 65.9066 26.0352C65.6767 26.0352 65.5234 25.9582 65.4468 25.9582C65.2935 26.1122 65.2168 26.2663 64.8337 26.2663C64.6038 26.2663 64.2972 26.1122 64.2206 25.9582C63.9907 26.1122 63.914 26.2663 63.6075 26.2663C63.3776 26.2663 63.1477 26.0352 62.9944 25.8811C62.8411 25.9582 62.7645 25.9582 62.6112 25.9582C62.2281 25.9582 61.9215 25.1109 61.9215 24.8027C61.9215 24.5717 62.0748 24.3406 62.3813 24.3406C62.458 24.3406 62.6112 24.4176 62.6879 24.4176C62.6879 24.2636 62.7645 23.8784 63.1477 23.8784C63.301 23.8784 63.5309 23.9554 63.6075 24.0325C63.6841 23.8014 63.7608 23.5703 64.1439 23.5703Z" fill="white"/>
<path d="M63.9907 20.027C63.3009 20.027 61.5383 20.8743 61.5383 22.5689C61.5383 22.954 61.5383 23.4162 61.615 23.6473C61.6916 23.5703 61.7682 23.5703 61.8449 23.5703C61.9215 23.5703 62.1514 23.6473 62.228 23.8013C62.228 23.5703 62.3047 23.2621 62.7645 23.2621C62.9944 23.2621 63.071 23.3392 63.2243 23.4162C63.3009 23.0311 63.6075 22.954 63.8374 22.954C64.0673 22.954 64.3738 23.1081 64.5271 23.4162C64.5271 23.1081 64.757 23.0311 64.9869 23.0311C65.4467 23.0311 65.6 23.3392 65.8299 23.7243C65.8299 23.2621 66.5196 23.0311 66.9794 23.0311H67.1327C67.1327 21.6446 66.5196 20.5662 65.0636 20.1811C65.3701 17.8703 65.2168 17.7162 65.1402 17.6392C65.0636 17.5621 64.9869 17.4851 64.8337 17.4851V17.177C65.0636 17.1 65.2168 16.9459 65.2168 16.7149C65.2168 16.5608 65.0636 15.4824 65.0636 15.4824C65.0636 15.3284 65.1402 15.2513 65.2168 15.2513C65.2935 15.2513 66.2897 15.6365 66.3664 15.7135C66.5963 15.7135 66.8262 15.4824 66.8262 15.2513C66.8262 14.9432 66.6729 14.7121 66.443 14.7121C66.2897 14.7121 65.4467 14.9432 65.2168 14.9432C65.1402 14.9432 64.9869 14.7892 65.0636 14.7121C65.0636 14.7121 65.3701 13.6338 65.4467 13.4797C65.4467 13.2486 65.2168 13.0176 64.9869 13.0176C64.6804 12.9405 64.4505 13.0946 64.4505 13.4027C64.4505 13.5567 64.6037 14.6351 64.6037 14.6351C64.6037 14.7121 64.5271 14.8662 64.3738 14.8662C64.1439 14.7892 63.3009 14.4811 63.2243 14.4811C62.9944 14.4811 62.7645 14.7121 62.7645 14.9432C62.7645 15.2513 62.9178 15.4824 63.1477 15.4824C63.3009 15.4824 64.2972 15.2513 64.3738 15.2513C64.5271 15.2513 64.5271 15.3284 64.5271 15.4824C64.5271 15.4824 64.2206 16.5608 64.2206 16.7149C64.2206 16.9459 64.2972 17.1 64.5271 17.177V17.4851C64.4505 17.4851 64.2972 17.4851 64.2206 17.5621C64.2206 17.5621 64.0673 17.7162 63.9907 20.027Z" fill="white"/>
</svg>
