<svg width="518" height="247" viewBox="0 0 518 247" fill="none" xmlns="http://www.w3.org/2000/svg">
<g opacity="0.25">
<path d="M507.035 275.347C507.035 420.06 389.549 537.395 244.651 537.395C99.7517 537.395 -17.7339 420.06 -17.7339 275.347C-17.7339 130.633 99.7517 13.2979 244.651 13.2979C389.549 13.2979 507.035 130.633 507.035 275.347Z" stroke="white" stroke-width="0.5"/>
<path d="M414.613 265.178V264.395C414.613 262.831 415.396 261.267 417.746 261.267H421.662C421.662 262.049 421.662 266.742 422.445 267.524H424.795C424.795 266.742 424.011 262.049 424.011 261.267C424.795 261.267 429.494 260.484 430.277 260.484C431.061 260.484 431.061 260.484 431.061 261.267V265.96C431.061 269.089 427.928 269.871 426.361 269.871V272.218C427.928 272.218 431.061 271.436 432.627 271.436C432.627 263.613 431.844 258.92 431.061 252.662H429.494V253.444C429.494 255.791 427.928 255.791 425.578 255.791C424.011 255.791 420.095 256.573 416.962 256.573C413.046 257.355 413.046 256.573 412.263 255.009V254.226H410.696C411.48 257.355 411.48 261.267 411.48 265.178H414.613ZM120.115 388.771L120.899 389.553C121.682 391.118 122.465 391.9 120.115 394.246L116.982 397.375C116.199 396.593 113.066 393.464 113.066 392.682C112.283 392.682 111.5 393.464 111.5 394.246C111.5 395.029 115.416 398.158 115.416 398.94L110.717 403.633C109.933 404.415 109.933 404.415 109.15 403.633L106.017 400.504C103.667 398.158 106.017 395.811 106.8 394.246C106.8 393.464 106.017 392.682 105.234 392.682C103.667 393.464 102.101 395.811 100.534 397.375C106.017 403.633 108.367 406.762 113.066 410.673C113.85 410.673 113.85 409.891 114.633 409.109L113.85 408.327C112.283 406.762 113.85 405.198 115.416 403.633L121.682 397.375C124.815 394.246 124.815 395.029 126.381 395.811L127.165 396.593C127.948 396.593 127.948 395.811 128.731 395.029L120.899 387.206C120.899 387.989 120.115 388.771 120.115 388.771ZM416.179 290.991C423.228 289.427 424.011 288.645 429.494 287.863C431.061 287.08 432.627 287.08 432.627 288.645V289.427C433.41 290.209 434.193 290.209 434.193 289.427C434.193 286.298 434.977 283.169 434.977 279.258C434.193 278.476 433.41 278.476 433.41 279.258V280.822C432.627 282.387 432.627 283.169 430.277 283.169C428.711 283.169 413.829 287.08 413.046 287.08V287.863C413.046 287.863 413.829 290.991 413.829 291.774C418.529 294.12 426.361 298.032 428.711 299.596C431.844 301.16 431.844 301.943 431.844 302.725V303.507C431.844 304.289 433.41 304.289 433.41 303.507C433.41 301.16 434.193 297.249 434.193 294.903C434.193 294.12 432.627 294.12 432.627 294.903V295.685C432.627 296.467 431.844 297.249 429.494 296.467C424.011 294.903 420.095 292.556 416.179 290.991ZM373.884 167.398C373.884 166.616 374.667 166.616 375.451 165.834L376.234 166.616C377.8 168.181 377.8 168.181 380.933 165.834C382.5 164.269 386.416 161.14 387.982 160.358C389.549 159.576 391.115 158.011 390.332 156.447L389.549 155.665C389.549 154.883 390.332 154.1 391.115 154.883C393.465 158.011 396.598 161.14 398.165 163.487C398.165 164.269 397.381 164.269 396.598 164.269L395.815 163.487C394.248 161.923 392.682 162.705 391.115 164.269C388.766 166.616 385.633 168.181 384.066 169.745C381.717 171.309 380.933 172.092 381.717 174.438C381.717 174.438 382.5 175.221 382.5 176.003C382.5 176.785 381.717 176.785 380.933 176.785C378.584 172.874 375.451 169.745 373.884 167.398ZM86.4362 220.59C85.653 220.59 84.8697 220.59 84.8697 219.808V218.244C84.8697 216.679 84.8697 215.897 81.7368 214.332C79.3871 213.55 75.4709 211.986 73.1212 211.203C71.5547 210.421 69.205 209.639 68.4218 211.986C68.4218 211.986 68.4218 212.768 67.6385 212.768C66.8553 212.768 66.0721 212.768 66.0721 211.986C67.6385 208.075 69.205 204.163 69.9882 201.817C70.7715 201.817 71.5547 201.817 71.5547 202.599V203.381C70.7715 205.728 72.338 206.51 74.6877 207.292C77.8206 208.075 80.9536 209.639 83.3033 210.421C86.4362 211.203 87.2195 211.986 88.0027 210.421C88.0027 210.421 88.7859 209.639 88.7859 208.857C89.5692 208.857 90.3524 208.857 90.3524 209.639C89.5692 211.986 87.2195 217.461 86.4362 220.59ZM387.982 187.736C387.982 186.954 388.766 186.172 389.549 186.954L390.332 187.736C390.332 187.736 391.115 189.301 392.682 188.519C394.248 187.736 395.032 187.736 395.032 186.954C394.248 186.172 391.899 181.479 389.549 178.35C389.549 177.567 389.549 176.785 390.332 176.785C391.115 176.785 410.696 179.914 411.48 179.914C412.263 180.696 411.48 181.479 411.48 182.261C410.696 182.261 394.248 179.914 393.465 179.914C395.032 182.261 396.598 184.607 397.381 186.172C398.165 185.39 400.514 184.607 402.081 183.825H402.864L405.214 186.172V186.954C403.647 187.736 400.514 189.301 399.731 190.083C400.514 190.865 401.298 193.212 401.298 193.212C401.298 193.994 399.731 194.777 398.948 193.994C398.948 193.994 397.381 191.648 397.381 190.865C396.598 190.865 395.815 191.648 394.248 192.43C393.465 193.212 394.248 193.994 394.248 194.777C394.248 195.559 395.032 195.559 395.032 196.341C395.032 197.123 394.248 197.123 393.465 197.123C391.899 193.212 390.332 190.865 387.982 187.736ZM395.815 207.292C395.032 206.51 395.032 205.728 395.815 204.946C396.598 204.946 415.396 205.728 416.962 205.728C416.179 203.381 414.613 200.252 413.829 198.688C413.046 197.123 412.263 197.123 410.696 197.123H409.913C409.13 197.123 409.13 195.559 409.913 195.559C410.696 195.559 414.613 194.777 416.179 194.777C416.179 195.559 416.962 196.341 416.962 197.123C416.962 197.905 420.095 204.163 420.095 205.728C420.878 206.51 420.878 208.075 421.662 208.857C421.662 209.639 420.878 209.639 420.878 209.639C419.312 208.857 417.745 208.857 416.962 208.857C416.962 208.075 397.381 207.292 395.815 207.292ZM116.982 170.527C116.982 171.309 115.416 172.092 114.633 171.309C113.85 170.527 106.017 154.1 105.234 152.536C103.667 154.1 101.318 157.229 100.534 158.794C99.7512 160.358 99.7512 161.14 100.534 161.923C100.534 162.705 100.534 162.705 101.318 162.705C101.318 163.487 100.534 164.269 99.7513 163.487C98.968 162.705 96.6183 158.794 95.8351 158.011C96.6183 157.229 96.6183 156.447 97.4015 156.447C98.1848 155.665 102.101 150.189 102.884 149.407C103.667 148.625 104.451 147.06 105.234 146.278H106.8C106.8 147.842 107.584 148.625 107.584 149.407C107.584 151.754 116.199 168.963 116.982 170.527ZM402.864 223.719C402.864 222.937 403.647 222.937 404.43 222.937C405.214 225.284 407.563 227.63 409.913 229.195C413.046 230.759 416.179 231.542 420.095 230.759C424.011 229.977 427.144 227.63 426.361 224.501C424.795 221.373 422.445 222.155 420.878 222.937C416.962 224.501 416.962 226.848 417.746 229.195C417.746 229.977 416.962 229.977 416.179 229.977C415.396 229.977 414.613 228.413 413.829 226.066C413.046 222.155 416.179 219.808 417.746 219.026C422.445 217.461 426.361 220.59 427.144 223.719C428.711 228.413 427.144 233.888 420.095 235.453C413.046 237.017 405.214 231.542 402.864 223.719ZM416.962 349.659C416.962 349.659 416.962 350.441 416.179 350.441C415.396 351.224 414.613 352.006 412.263 350.441L402.864 346.53C399.731 344.966 399.731 344.966 400.514 343.401V342.619C400.514 341.837 399.731 341.837 398.948 341.837L397.381 346.53L395.032 351.224C392.682 355.917 391.115 362.957 398.165 366.868C403.647 370.779 409.913 369.215 414.613 359.828C416.179 356.699 417.746 353.57 418.529 351.224C418.529 349.659 417.745 349.659 416.962 349.659ZM413.046 356.699C413.046 356.699 413.046 357.481 412.263 358.264C409.913 362.957 405.214 365.304 400.514 362.957C396.598 360.61 395.815 358.264 395.032 355.917C395.032 354.352 395.032 352.788 395.815 351.224C396.598 349.659 396.598 349.659 397.381 348.877C398.165 348.877 399.731 348.877 400.514 349.659L411.48 355.135C413.046 355.917 413.046 355.917 413.046 356.699ZM376.234 402.069C377.017 402.851 377.017 403.633 377.017 404.416C377.017 405.198 377.017 406.762 375.451 407.544C375.451 407.544 374.667 408.327 373.101 409.109C373.101 409.109 366.052 401.287 364.485 399.722C362.136 397.375 362.136 396.593 362.919 395.029C362.919 395.029 362.919 394.246 363.702 394.246C363.702 393.464 362.919 392.682 362.136 392.682L355.087 399.722C355.087 400.504 355.87 401.287 355.87 401.287L356.653 400.504C358.219 399.722 359.003 399.722 361.352 402.069C362.919 403.633 369.968 411.456 369.968 411.456L367.618 413.802C366.052 415.367 364.485 413.802 364.485 413.802C363.702 413.802 363.702 413.02 362.919 413.02C362.136 413.02 361.352 413.802 361.352 414.585C362.136 415.367 364.485 418.496 365.269 419.278C371.535 413.802 374.667 410.673 380.15 405.198C380.15 405.198 377.8 400.504 377.017 400.504C377.8 401.287 377.017 401.287 376.234 402.069ZM380.15 374.691C380.15 375.473 380.933 375.473 381.717 375.473L382.5 374.691C383.283 373.126 384.066 373.908 384.85 376.255C385.633 377.037 385.633 377.82 386.416 378.602C385.633 379.384 382.5 384.077 381.717 384.86C380.933 384.86 380.933 384.86 379.367 384.077C377.8 383.295 377.017 383.295 377.8 381.731L378.584 380.948C378.584 380.166 377.8 379.384 377.017 380.166C376.234 380.948 373.884 384.077 371.535 387.206C371.535 387.989 372.318 388.771 373.101 388.771L373.884 387.989C375.451 386.424 377.017 387.206 378.584 387.989C380.15 388.771 395.032 393.464 395.815 393.464H396.598C396.598 393.464 397.381 391.118 397.381 390.335C396.598 389.553 390.332 378.602 388.766 375.473C387.199 372.344 387.199 371.562 387.982 370.779C387.982 369.997 387.982 369.997 388.766 369.997C388.766 369.215 387.982 369.215 387.199 369.215C384.066 369.215 380.15 373.908 380.15 374.691ZM391.115 387.989L382.5 384.86L386.416 380.166L391.115 387.989ZM62.1559 279.258C61.3726 279.258 60.5894 279.258 59.8062 278.476C59.0229 277.693 58.2397 276.911 58.2397 275.347V272.218H70.7715C74.6877 272.218 74.6877 272.218 75.4709 274.564V275.347H77.0374V265.178C76.2541 265.178 75.4709 264.395 75.4709 265.178V265.96C75.4709 267.524 73.9044 268.307 70.7715 268.307H58.2397V264.395C58.2397 262.831 59.8062 262.049 60.5894 262.049H62.1559C62.9391 261.267 62.1559 260.484 62.1559 260.484H55.89C55.1067 268.307 55.1067 273 55.1067 280.822C55.1067 280.822 59.8062 282.387 60.5894 282.387C62.1559 280.822 62.1559 280.04 62.1559 279.258ZM78.6039 296.467C77.8206 295.685 77.0374 296.467 77.0374 296.467V297.249C77.0374 298.814 76.2541 298.814 74.6877 298.032C73.1212 298.032 73.1212 297.249 72.338 297.249C72.338 296.467 71.5547 290.991 71.5547 289.427C72.3379 289.427 72.338 289.427 73.9044 288.645C75.4709 287.863 76.2541 287.08 76.2541 289.427V290.209C77.0374 290.991 77.8206 290.209 77.8206 290.209C77.8206 288.645 77.8206 285.516 77.0374 280.822C76.2541 280.04 75.4709 280.822 75.4709 280.822V282.387C75.4709 284.734 73.1212 284.734 72.338 285.516L56.6732 293.338V294.12C56.6732 294.12 57.4564 296.467 58.2397 296.467C59.0229 296.467 71.5547 300.378 74.6877 301.16C77.8206 301.943 78.6039 302.725 78.6039 303.507V304.289H80.1703C79.3871 302.725 78.6039 297.249 78.6039 296.467ZM61.3726 294.903L69.205 290.991L69.9882 297.249L61.3726 294.903ZM108.367 369.997C106.017 366.868 103.667 365.304 100.534 364.522C97.4015 363.739 94.2686 364.522 91.9189 366.086C89.5692 367.65 87.2195 370.779 87.2195 373.126C86.4362 376.255 87.2195 379.384 89.5692 382.513C93.4854 388.771 100.534 390.335 106.017 386.424C108.367 384.86 109.933 382.513 110.717 379.384C111.5 377.037 110.717 373.126 108.367 369.997ZM102.101 383.295C99.7513 384.86 97.4015 385.642 95.0518 384.86C93.4854 384.86 91.9189 383.295 91.1356 381.731C90.3524 380.166 89.5692 378.602 90.3524 377.037C91.1356 374.691 92.7021 372.344 95.8351 369.997C100.534 366.868 104.451 366.868 106.8 370.779C109.15 376.255 106.017 380.166 102.101 383.295ZM147.529 410.673C147.529 411.456 146.745 412.238 146.745 412.238H145.962C144.396 411.456 143.613 411.456 141.263 414.585C139.696 416.931 137.347 420.06 135.78 421.625C134.214 423.971 133.43 424.754 134.997 426.318L135.78 427.1C135.78 427.883 134.997 428.665 134.997 428.665C131.864 426.318 126.381 422.407 120.899 416.931C121.682 415.367 123.248 413.802 124.032 412.238C124.815 412.238 125.598 412.238 125.598 413.02C125.598 413.802 124.815 413.802 124.815 414.585C124.815 415.367 124.032 416.931 125.598 417.714C127.165 419.278 128.731 420.06 129.514 420.842C130.297 421.625 130.297 420.842 131.081 420.842C131.864 420.06 134.997 416.149 134.997 416.149C134.214 415.367 130.298 412.238 130.298 412.238C130.298 411.456 131.081 410.673 131.864 410.673C132.647 411.456 135.78 413.802 136.563 414.585L138.913 411.456C141.263 409.109 140.48 408.327 138.913 406.762C138.13 405.98 137.347 405.98 137.347 405.198C135.78 404.416 134.214 404.416 132.647 405.198C131.864 405.198 131.864 405.98 131.081 405.98C130.297 405.98 129.514 405.198 129.514 404.416C130.297 403.633 133.43 401.287 134.214 400.504C137.347 403.633 142.046 407.544 147.529 410.673ZM84.0865 327.757C84.0865 326.974 84.8697 326.974 85.653 326.974C86.4362 330.103 87.2195 331.668 88.7859 334.797C88.7859 335.579 88.0027 335.579 87.2195 335.579V334.797C86.4362 334.014 86.4362 333.232 82.52 333.232C80.1703 333.232 73.9044 334.797 73.1212 334.797C70.7715 335.579 69.205 335.579 69.9882 337.926V338.708C69.9882 339.49 69.205 339.49 68.4218 339.49C67.6385 336.361 66.8553 334.797 65.2888 331.668C66.072 331.668 67.6385 330.885 68.4218 329.321C69.9882 327.756 75.4709 323.845 77.8206 321.499C76.2541 320.716 66.8553 319.934 66.0721 319.152C64.5056 319.152 62.9391 318.37 61.3726 319.152C61.3726 317.587 59.8062 313.676 59.8062 311.33C59.8062 310.547 61.3726 310.547 61.3726 311.33V312.112C62.1559 313.676 62.1559 313.676 64.5056 312.894C67.6385 312.112 71.5547 310.547 73.9044 309.765C77.0374 308.983 77.8206 308.201 77.8206 306.636V305.072C77.8206 304.289 79.3871 304.289 79.3871 305.072C80.1703 309.765 80.9536 312.112 81.7368 314.458C81.7368 315.241 80.1703 315.241 80.1703 315.241V314.458C79.3871 312.894 79.3871 312.112 76.2541 313.676C73.1212 314.458 66.8553 316.805 65.2888 317.587C67.6385 318.37 74.6877 319.152 77.8206 319.934C81.7368 320.716 82.52 320.716 84.0865 320.716C84.0865 320.716 84.8697 321.499 84.8697 322.281C84.0865 322.281 82.52 323.845 80.1703 326.192C77.8206 328.539 72.338 333.232 70.7715 334.014C73.1212 333.232 79.3871 332.45 80.9536 331.668C83.3033 330.885 85.653 330.885 84.8697 328.539M409.13 308.983C409.913 308.201 410.696 308.983 410.696 308.983V309.765C410.696 311.33 411.48 312.112 414.613 312.894C417.746 313.676 420.878 314.458 423.228 314.458C425.578 315.241 427.144 315.241 427.928 313.676V312.894H429.494C429.494 314.458 428.711 317.587 427.928 319.152V319.934C427.144 319.934 427.144 319.934 425.578 320.716C424.795 320.716 410.696 327.757 409.13 328.539C410.696 329.321 416.179 330.885 417.746 331.668C420.878 332.45 421.662 333.232 422.445 330.885C422.445 330.885 422.445 330.103 423.228 330.103C424.011 330.103 424.795 330.103 424.795 330.885C424.011 334.014 422.445 337.143 421.662 339.49C420.878 339.49 420.095 339.49 420.095 338.708V337.926C420.878 336.361 420.095 335.579 416.962 334.797C414.613 334.014 403.647 330.103 402.864 330.103C402.864 330.103 402.081 329.321 402.864 328.539C405.997 326.974 423.228 318.37 424.011 317.587C422.445 317.587 415.396 316.023 413.046 315.241C409.913 314.458 409.13 315.241 408.347 316.023V316.805C407.563 316.805 406.78 316.805 406.78 316.023C408.347 314.458 409.13 309.765 409.13 308.983ZM57.4564 248.751C58.2397 248.751 59.8062 249.533 62.1559 250.315C62.1559 250.315 72.338 256.573 73.9044 258.138C75.4709 259.702 75.4709 260.484 75.4709 260.484V261.267C76.2541 262.049 77.0374 262.049 77.0374 261.267C77.0374 260.484 77.0374 256.573 77.8206 254.226C77.8206 253.444 76.2541 253.444 76.2541 254.226V255.009C76.2541 255.791 75.4709 255.791 74.6877 255.009C73.9044 254.226 71.5547 252.662 70.7715 252.662C70.7715 251.88 71.5547 246.404 71.5547 245.622H75.4709C77.8206 246.404 77.0374 247.969 77.0374 247.969V248.751C77.0374 249.533 78.6039 249.533 78.6039 248.751C79.3871 243.275 80.1703 239.364 81.7368 231.542C79.3871 229.977 77.0374 229.195 76.2541 229.195C75.4709 229.195 75.4709 230.759 75.4709 230.759C76.2541 230.759 76.2541 231.542 76.2541 231.542C78.6038 233.106 78.6038 233.888 77.8206 235.453C77.8206 236.235 77.8206 237.017 77.0374 238.582C77.0374 240.146 75.4709 240.928 73.9044 240.146H69.9882L70.7715 234.671C69.9882 234.671 69.205 233.888 68.4218 234.671L69.205 242.493C68.4218 242.493 62.9391 241.711 62.1559 241.711C61.3726 241.711 61.3726 240.928 61.3726 240.928C61.3726 240.146 61.3726 238.582 62.1559 237.017C62.9391 234.671 63.7223 234.671 64.5056 233.888H66.8553C67.6385 233.106 67.6385 232.324 66.8553 232.324H61.3726C60.5894 237.017 59.8062 240.146 59.0229 244.84C58.2397 245.622 58.2397 246.404 57.4564 248.751ZM60.5894 246.404L61.3726 245.622C62.1559 245.622 68.4218 246.404 69.205 246.404C69.205 247.969 68.4218 251.097 68.4218 251.88C66.8553 251.097 61.3726 247.186 60.5894 247.186C60.5894 246.404 59.8062 246.404 60.5894 246.404ZM353.52 429.447C352.737 428.665 351.954 427.1 351.954 424.754C351.954 424.754 349.604 413.02 349.604 410.673C349.604 408.327 349.604 408.327 350.387 407.544L351.17 406.762C351.17 405.98 350.387 405.198 349.604 405.198C348.821 405.98 346.471 407.544 344.121 409.891C344.121 410.673 344.121 411.456 344.904 411.456C345.688 411.456 345.688 411.456 345.688 410.673C346.471 410.673 346.471 410.673 347.254 411.456C347.254 412.238 348.037 415.367 348.037 416.149C347.254 416.931 343.338 420.06 342.555 420.06C342.555 420.06 340.988 417.714 340.205 416.931C338.639 415.367 340.205 414.585 340.205 413.802L340.988 413.02C340.988 412.238 340.205 411.456 340.205 411.456C335.506 414.585 331.589 416.931 325.324 420.06C326.107 422.407 326.89 424.754 327.673 425.536C328.456 426.318 329.24 425.536 329.24 424.754V423.189C329.24 420.842 330.023 420.06 330.806 419.278C331.589 418.496 332.373 418.496 333.156 417.714C334.722 416.931 335.506 417.714 337.072 419.278L340.205 422.407C339.422 423.189 336.289 425.536 335.506 425.536C335.506 426.318 336.289 427.1 337.072 427.1C337.855 426.318 340.988 424.754 341.772 423.971C342.555 424.754 345.688 428.665 346.471 429.447C347.254 430.229 346.471 430.229 345.688 430.229C344.904 430.229 344.121 431.794 342.555 432.576C340.205 434.14 339.422 433.358 338.639 432.576C337.855 432.576 337.855 431.794 337.072 431.012C336.289 431.012 335.506 431.794 335.506 432.576C336.289 433.358 337.855 435.705 338.639 436.487C343.338 434.14 345.688 432.576 349.604 430.229C351.17 431.012 351.954 431.012 353.52 429.447ZM349.604 429.447H348.821C348.037 428.665 344.121 423.971 343.338 423.189C344.121 422.407 347.254 420.06 348.037 420.06C348.037 422.407 349.604 428.665 349.604 429.447C349.604 429.447 350.387 429.447 349.604 429.447ZM78.6039 359.828C82.52 357.481 88.7859 354.352 90.3524 353.57C93.4854 352.006 93.4854 351.224 93.4854 349.659V348.877C93.4854 348.095 94.2686 348.095 95.0518 348.095C96.6183 350.441 98.1848 354.352 99.7513 356.699C99.7513 357.481 98.968 357.481 98.1848 357.481C98.1848 357.481 98.1848 356.699 97.4015 356.699C96.6183 355.135 95.8351 355.135 92.7021 356.699C90.3524 357.481 86.4362 359.828 84.8697 360.61C81.7368 362.175 80.9536 362.957 81.7368 364.522V365.304C81.7368 366.086 80.9536 366.086 80.1703 366.086C78.6038 362.957 75.4709 358.264 75.4709 357.481C74.6877 356.699 74.6877 355.917 73.9044 354.352C73.1212 352.006 72.3379 348.095 77.0374 346.53C80.1703 344.966 81.7368 346.53 84.0865 348.095C84.8697 346.53 86.4362 344.183 87.2195 341.837C88.0027 339.49 88.0027 338.708 88.0027 337.143V336.361C88.0027 335.579 88.7859 335.579 89.5692 335.579C89.5692 336.361 91.1356 338.708 91.9189 341.054L85.653 353.57H84.8697C84.0865 352.788 83.3033 351.224 81.7368 351.224C80.1703 351.224 79.3871 351.224 78.6039 352.006C77.8206 352.006 77.0374 352.788 76.2541 354.352C75.4709 355.917 76.2541 356.699 76.2541 357.481C76.2541 358.264 77.0374 359.046 77.0374 359.828H78.6039ZM153.795 438.052C155.361 434.14 159.277 427.883 160.061 426.318C161.627 423.189 161.627 422.407 160.061 421.625L159.277 420.842C159.277 420.06 160.061 419.278 160.061 419.278C162.41 420.842 166.326 423.189 168.676 423.971C168.676 424.754 167.893 425.536 167.893 425.536H167.11C165.543 424.754 164.76 425.536 163.193 428.665C162.41 431.012 160.061 434.923 159.277 436.487C157.711 439.616 157.711 440.398 159.277 441.181C159.277 441.181 160.061 441.181 160.061 441.963C160.061 442.745 159.277 443.527 159.277 443.527C156.144 441.963 151.445 439.616 150.662 438.834C149.878 438.052 149.095 438.052 148.312 437.269C145.962 435.705 143.613 432.576 145.962 428.665C147.529 426.318 149.878 425.536 152.228 426.318C152.228 423.971 152.228 421.625 151.445 419.278C150.662 416.931 150.662 416.149 149.878 415.367L149.095 414.585C149.095 413.802 149.878 413.02 149.878 413.02C150.662 413.02 152.228 414.585 154.578 416.149C155.361 418.496 156.144 427.1 156.144 428.665C156.144 428.665 155.361 428.665 155.361 429.447C154.578 428.665 152.228 427.883 151.445 428.665C149.878 429.447 149.878 430.229 149.095 431.012C148.312 431.012 148.312 432.576 148.312 433.358C148.312 434.923 149.878 435.705 150.662 435.705C151.445 436.487 152.228 436.487 152.228 436.487C153.011 438.052 153.795 438.052 153.795 438.052ZM92.7021 204.946C92.7021 204.163 95.8351 198.688 91.9189 194.777C88.0027 190.865 84.0865 195.559 81.7368 200.252C80.1703 198.688 75.4709 193.994 73.9044 193.212C73.9044 192.43 77.0374 183.043 77.0374 182.261C77.8206 182.261 79.3871 183.825 80.1703 184.607C79.3871 186.172 77.8206 192.43 77.0374 193.212C77.8206 193.994 78.6038 194.777 79.3871 194.777C80.1703 193.212 82.52 188.519 87.2195 188.519C94.2686 188.519 98.1848 195.559 94.2686 204.946C94.2686 206.51 92.7021 206.51 92.7021 204.946ZM84.8697 178.35C84.8697 177.567 83.3033 174.438 85.653 170.527C86.4362 168.963 88.0027 167.398 89.5692 167.398C91.1356 167.398 95.0518 168.963 94.2686 173.656C95.8351 172.092 97.4015 171.309 98.968 171.309C99.7512 171.309 104.451 172.092 105.234 179.132C106.017 183.825 103.667 188.519 101.318 189.301C98.968 190.083 97.4015 187.736 98.968 185.39C99.7512 184.607 101.318 185.39 102.101 184.607C102.884 183.825 103.667 179.132 100.534 176.785C98.968 175.221 95.8351 174.438 94.2686 176.785C93.4854 177.567 93.4854 179.132 93.4854 180.696C92.7021 182.261 91.1356 181.479 90.3524 180.696C90.3524 179.132 91.1356 176.003 91.1356 173.656C90.3524 172.092 88.7859 170.527 86.4362 172.092C84.8697 173.656 85.653 176.003 85.653 176.785C87.2195 178.35 85.653 178.35 84.8697 178.35ZM332.373 86.8281C332.373 86.0459 333.156 84.4814 333.939 84.4814C334.722 84.4814 335.506 85.2636 335.506 85.2636C338.639 86.0459 339.422 86.0459 341.772 80.5702C343.338 77.4413 346.471 70.4012 348.037 68.0545C349.604 65.7078 351.17 62.5788 348.037 60.2321C347.254 60.2321 347.254 59.4499 346.471 59.4499C346.471 58.6676 347.254 57.1032 347.254 57.1032C352.737 59.4499 358.219 62.5788 362.136 64.9255C362.136 65.7078 361.352 67.2722 360.569 67.2722C359.786 67.2722 359.786 66.49 359.003 66.49C355.87 64.9255 354.303 68.0545 352.737 71.1834C350.387 75.8768 347.254 81.3525 346.471 83.6992C344.121 88.3926 344.121 89.1748 346.471 91.5215C347.254 91.5215 347.254 92.3038 348.037 92.3038C348.037 93.086 347.254 94.6505 346.471 94.6505C343.338 92.3038 337.072 88.3926 332.373 86.8281ZM392.682 129.069C392.682 128.287 394.248 127.504 395.032 126.722L396.598 128.287C398.948 129.851 399.731 129.851 404.43 125.94C407.563 123.593 412.263 118.118 414.613 116.553C416.962 114.206 419.312 112.642 417.746 109.513L416.962 108.731C416.962 107.948 418.529 106.384 419.312 106.384C424.011 111.077 427.928 115.771 430.277 118.9C430.277 119.682 428.711 120.464 427.928 120.464L427.144 119.682C424.795 117.335 422.445 119.682 419.312 122.029C415.396 125.158 410.696 129.851 409.13 131.415C405.214 134.544 404.43 136.109 405.997 138.456C405.997 139.238 406.78 139.238 406.78 140.02C406.78 140.802 405.214 141.585 404.43 141.585C401.298 137.673 395.815 132.198 392.682 129.069ZM409.13 401.287C409.913 401.287 411.48 402.069 411.48 402.851C411.48 403.633 410.696 403.633 410.696 404.416C409.13 406.762 409.13 407.544 413.829 411.456C416.962 413.802 422.445 418.496 424.795 420.06C427.144 421.625 429.494 424.754 431.844 421.625L432.627 420.842C433.41 420.842 434.977 421.625 434.977 422.407C431.061 427.883 427.144 431.794 424.011 434.923C423.228 434.923 421.662 434.14 421.662 433.358L422.445 432.576C424.795 429.447 422.445 427.883 419.312 425.536C415.396 422.407 410.696 418.496 408.347 416.149C404.43 413.02 402.864 412.238 400.514 414.585C399.731 414.585 399.731 415.367 398.948 416.149C398.165 416.149 397.381 415.367 396.598 413.802C401.298 411.456 406.78 405.198 409.13 401.287ZM247 481.857C247.783 482.639 247.783 484.203 247 484.986H245.433C242.3 485.768 241.517 485.768 241.517 492.026V506.106C241.517 509.235 240.734 512.364 244.65 513.146H246.217C247 513.928 247 515.493 246.217 516.275C239.951 516.275 233.685 516.275 229.769 515.493C228.985 514.711 228.985 513.146 229.769 512.364H231.335C235.251 512.364 235.251 509.235 235.251 505.324C235.251 499.848 235.251 494.373 236.035 491.244C236.035 486.55 236.034 484.986 232.902 484.203H231.335C230.552 483.421 231.335 481.857 231.335 481.075C235.251 481.857 243.084 481.857 247 481.857ZM114.633 436.487C114.633 437.269 113.85 438.834 113.066 438.834C112.283 438.834 112.283 438.052 111.5 438.052C109.15 436.487 108.367 436.487 104.451 441.181C102.101 444.31 97.4015 449.785 95.0518 452.132C93.4854 453.696 90.3524 456.043 93.4854 458.39L94.2686 459.172C94.2686 459.954 93.4853 461.519 92.7021 461.519C88.0027 457.608 83.3033 453.696 80.1703 450.567C80.1703 449.785 80.9536 448.221 81.7368 448.221L82.52 449.003C85.653 451.35 87.2195 449.003 89.5692 445.874C92.7021 441.963 97.4015 437.269 98.968 434.923C102.101 431.012 102.884 430.229 101.318 427.1C101.318 426.318 100.534 426.318 99.7513 425.536C99.7513 424.754 101.318 423.971 102.101 423.189C105.234 428.665 111.5 433.358 114.633 436.487ZM48.0576 209.639C47.2744 209.639 45.7079 209.639 45.7079 208.857C45.7079 208.075 45.7079 207.292 46.4911 207.292C47.2744 204.163 46.4911 203.381 41.0085 201.817C37.0923 200.252 30.8264 197.905 27.6934 197.123C24.5605 196.341 21.4275 194.777 19.8611 197.905C19.8611 198.688 19.0778 198.688 19.0778 199.47C18.2946 200.252 16.7281 199.47 16.7281 198.688C19.0778 192.43 20.6443 186.954 22.2108 183.043C22.994 182.261 24.5605 183.043 24.5605 183.825C24.5605 184.607 24.5605 184.607 23.7772 185.39C22.994 187.736 26.127 188.519 29.2599 190.083C33.9593 191.648 39.442 193.994 42.5749 194.777C47.2744 196.341 48.8408 196.341 50.4073 193.994C50.4073 193.212 51.1906 193.212 51.1906 192.43C51.9738 192.43 53.5403 192.43 53.5403 193.994C51.9738 197.905 49.6241 204.946 48.0576 209.639ZM425.578 172.874C420.095 163.487 413.829 154.1 410.696 150.189C410.696 149.407 412.263 148.625 413.046 148.625C413.046 149.407 413.829 149.407 413.829 149.407C416.179 151.754 416.962 151.754 421.662 147.842C424.795 145.496 431.061 140.802 433.41 140.02C435.76 138.456 438.893 136.891 437.326 133.762C437.326 132.98 436.543 132.98 436.543 132.198C436.543 131.416 438.11 130.633 438.893 130.633C442.809 135.327 445.942 140.802 448.292 143.931C448.292 144.713 446.725 145.496 445.942 145.496L445.159 144.714C442.809 141.585 439.676 143.931 437.326 145.496C433.41 148.625 429.494 150.971 425.578 153.318C421.662 156.447 420.878 156.447 421.662 159.576C421.662 160.358 422.445 161.14 423.228 162.705C424.011 164.269 425.578 165.834 427.144 166.616C428.711 167.398 431.061 167.398 431.844 167.398C432.627 167.398 434.193 166.616 434.977 166.616C435.76 166.616 436.543 167.398 435.76 168.963C433.41 170.527 430.277 171.309 425.578 172.874ZM441.243 207.292C438.11 197.123 432.627 186.172 431.061 182.261C431.844 181.479 432.627 180.696 433.41 180.696C433.41 181.479 434.193 181.479 434.193 182.261C435.76 184.607 436.543 184.607 442.026 182.261C445.159 180.696 452.991 177.567 454.558 176.785C456.907 175.221 460.824 174.438 459.257 171.309C459.257 170.527 459.257 170.527 458.474 169.745C458.474 168.963 460.04 168.181 460.824 168.181C463.957 173.656 466.306 179.132 467.873 183.043C467.873 183.825 466.306 184.607 465.523 184.607C465.523 183.825 464.74 183.825 464.74 183.043C463.173 179.914 460.04 181.479 456.907 183.043C452.208 185.39 448.292 186.954 444.376 188.519C439.676 190.865 438.893 190.865 439.676 193.994C439.676 194.777 440.459 196.341 441.243 197.123C442.026 198.688 442.809 200.252 444.376 201.817C445.942 202.599 448.292 203.381 449.075 203.381H452.208C452.991 203.381 453.774 204.946 452.991 206.51C449.075 205.728 445.942 206.51 441.243 207.292ZM301.826 72.7479C301.826 69.6189 302.61 66.49 303.393 64.1433C304.176 64.1433 305.743 64.1433 306.526 64.9255C306.526 68.0545 305.743 73.5301 312.009 75.0946C315.925 76.6591 318.274 75.0946 319.058 72.7479C320.624 69.6189 319.058 67.2722 315.141 63.3611C309.659 57.8854 308.876 54.7565 308.876 52.4098C309.659 48.4986 312.792 41.4585 323.757 45.3697C328.456 46.9341 330.806 48.4986 332.373 50.0631C332.373 50.8453 331.589 56.3209 330.806 57.8854C330.023 58.6677 328.456 57.8854 327.673 57.1032C327.673 56.3209 329.24 51.6275 323.757 49.2808C318.274 46.9341 316.708 50.0631 315.925 51.6275C315.141 53.9742 316.708 55.5387 320.624 60.2321C323.757 64.1433 328.456 67.2722 326.107 73.5301C324.54 79.0058 317.491 81.3525 311.225 79.0058C304.176 76.6591 301.826 72.7479 301.826 72.7479ZM281.462 481.075C283.029 483.421 283.812 487.332 283.812 489.679C283.029 490.461 281.462 490.461 280.679 490.461C279.113 487.332 277.546 482.639 271.28 483.421C267.364 484.203 265.798 486.55 265.798 488.897C265.798 492.026 268.93 493.59 273.63 495.155C281.462 497.501 283.029 499.848 283.812 502.195C285.378 506.106 284.595 513.928 273.63 514.711C268.147 515.493 265.798 514.711 263.448 514.711C262.665 513.928 261.881 509.235 261.881 506.888C262.665 506.106 263.448 506.106 265.014 506.106C265.014 506.888 266.581 511.582 272.847 511.582C278.329 510.799 279.113 507.671 278.329 505.324C277.546 502.977 275.98 502.195 270.497 499.848C265.797 498.284 260.315 496.719 259.532 490.461C258.748 484.986 263.448 479.51 270.497 478.728C277.546 478.728 281.462 481.075 281.462 481.075ZM91.9189 416.931C90.3524 420.06 88.0027 422.407 86.4362 423.971C85.653 423.971 84.0865 423.189 84.0865 421.625C85.653 418.496 88.7859 414.585 84.8697 409.891C81.7368 406.762 79.3871 406.762 77.0374 408.327C73.9044 410.673 74.6877 413.802 76.2541 418.496C78.6038 425.536 77.8206 428.665 76.2541 431.012C73.9044 434.14 66.8553 438.052 59.8062 430.229C56.6732 426.318 55.1067 423.189 54.3235 422.407C55.1067 421.625 58.2397 417.714 59.8062 416.931C60.5894 416.931 61.3726 417.714 62.1559 419.278C61.3726 420.06 58.2397 423.971 62.1559 428.665C65.2888 433.358 69.205 431.794 69.9882 430.229C71.5547 428.665 71.5547 426.318 69.9882 420.842C68.4218 416.149 66.8553 410.673 71.5547 406.762C76.2541 402.851 82.52 403.633 87.2195 409.109C91.9189 413.02 91.9189 416.931 91.9189 416.931ZM141.263 95.4327C140.48 95.4327 139.696 93.8682 139.696 93.086C140.48 93.086 140.48 92.3038 141.263 92.3038C143.613 90.7393 143.613 89.9571 141.263 84.4814C139.696 81.3525 135.78 74.3123 134.997 71.9656C133.43 69.6189 132.647 65.7078 128.731 67.2722C127.948 67.2722 127.948 67.2722 127.165 68.0545C126.381 68.0545 125.598 66.49 125.598 65.7078C131.081 62.5788 136.563 60.2321 140.48 57.8854C141.263 57.8854 142.046 59.4499 142.046 60.2321C141.263 60.2321 141.263 61.0144 140.48 61.0144C137.347 63.3611 138.913 65.7078 140.48 68.8367C142.829 73.5301 145.962 79.0058 146.745 81.3525C149.095 86.0459 149.878 86.8281 153.011 86.0459C153.795 86.0459 153.795 85.2636 154.578 85.2636C155.361 85.2636 156.144 86.8281 155.361 87.6103C152.228 89.1748 145.962 92.3038 141.263 95.4327ZM167.11 80.5702C164.76 78.2235 163.977 75.0946 163.193 72.7479C163.977 71.9656 164.76 71.1834 166.326 71.1834C168.676 73.5301 171.026 78.2235 177.292 75.8768C181.208 74.3123 181.991 71.9656 181.208 69.6189C180.425 66.49 177.292 65.7078 171.809 64.9255C163.977 64.1433 161.627 62.5788 160.061 60.2321C157.711 57.1032 156.144 49.2808 167.11 45.3697C171.809 43.8052 174.942 43.8052 176.508 43.0229C177.292 43.8052 179.641 48.4986 179.641 50.8453C178.858 51.6275 178.075 52.4098 177.292 52.4098C176.508 51.6275 174.942 46.9341 168.676 48.4986C163.193 50.0631 163.977 53.192 164.76 54.7565C165.543 57.1032 167.893 57.1032 173.376 57.8854C178.075 58.6677 183.558 58.6677 185.907 64.9255C188.257 70.4012 184.341 76.6591 178.075 79.0058C171.809 81.3525 167.11 80.5702 167.11 80.5702ZM112.283 112.642C109.933 111.077 107.584 107.948 106.017 106.384C106.017 105.602 107.584 104.82 108.367 104.037C110.717 105.602 114.633 109.513 120.115 105.602C123.248 103.255 123.248 100.126 122.465 98.5616C120.899 95.4327 117.766 95.4327 112.283 96.9972C104.451 98.5616 101.318 97.7794 99.7513 95.4327C96.6183 93.086 93.4854 86.0459 102.101 79.788C106.8 76.6591 109.15 75.8768 110.717 75.0946C111.5 75.8768 114.633 79.0058 116.199 81.3525C116.199 82.1347 115.416 82.9169 113.85 83.6992C113.066 82.9169 109.933 79.0058 104.451 82.1347C99.7512 85.2636 101.318 88.3926 102.101 89.9571C103.667 92.3038 105.234 91.5215 111.5 90.7393C116.199 89.9571 121.682 88.3926 125.598 93.8682C128.731 98.5616 127.948 105.602 121.682 109.513C116.982 112.642 112.283 112.642 112.283 112.642ZM434.977 358.264C435.76 357.481 437.326 358.264 437.326 359.046C437.326 359.046 436.543 359.828 436.543 360.61C435.76 362.957 436.543 364.522 441.243 366.868C445.159 369.215 450.641 371.562 453.774 373.126C456.907 374.691 459.257 376.255 461.607 373.126C461.607 372.344 462.39 372.344 462.39 371.562C463.173 371.562 464.74 371.562 464.74 372.344C463.957 373.908 461.607 379.384 460.04 381.731C460.04 382.513 460.04 382.513 459.257 383.295H455.341C454.558 383.295 429.494 388.771 426.361 389.553C428.711 391.118 436.543 396.593 438.893 397.375C442.809 399.722 444.376 401.287 446.725 398.158C446.725 398.158 447.509 397.375 447.509 396.593C448.292 396.593 449.858 397.375 449.858 398.158C447.509 402.069 444.376 406.762 442.026 409.891C441.243 409.891 439.676 409.109 439.676 408.327C439.676 408.327 440.459 407.544 440.459 406.762C442.026 404.416 441.243 403.633 436.543 400.504C433.41 398.158 417.746 387.989 416.179 387.206C416.179 386.424 415.396 385.642 416.179 384.86C421.662 383.295 451.425 376.255 453.774 376.255C451.425 375.473 441.243 370.779 438.11 369.215C433.41 366.868 431.844 366.868 430.277 369.215C429.494 369.997 429.494 369.997 429.494 370.779C428.711 370.779 427.144 370.779 427.144 369.215C431.061 367.65 434.193 360.61 434.977 358.264ZM37.8755 257.355C37.0923 258.138 35.5258 258.138 34.7426 257.355V255.791C34.7426 253.444 33.1761 251.88 27.6934 251.88C22.994 251.097 17.5114 251.097 13.5952 250.315C9.67898 249.533 7.32927 249.533 6.54604 252.662V254.226C5.7628 255.009 4.19632 255.009 3.41309 254.226C3.41309 252.662 4.19632 247.186 4.19632 244.057V242.493C4.97956 242.493 5.7628 241.711 7.32927 240.928C8.11251 240.146 30.0431 226.848 32.3929 225.284C30.0431 224.501 20.6443 222.155 18.2946 221.373C13.5952 220.59 12.0287 219.808 10.4622 222.937C10.4622 223.719 10.4622 223.719 9.67898 224.501C8.89575 225.284 7.32927 224.501 7.32927 223.719C8.11251 219.026 9.67898 213.55 10.4622 210.421C11.2455 209.639 12.8119 210.421 12.8119 211.203V212.768C12.8119 215.115 12.8119 215.897 19.0778 217.461C22.994 218.244 41.0085 222.937 42.5749 222.937C43.3582 223.719 43.3582 224.501 43.3582 225.284C38.6588 228.413 12.8119 244.84 11.2455 245.622C13.5952 245.622 24.5605 247.186 28.4767 247.186C33.9593 247.186 35.5258 247.186 35.5258 244.84V243.275C36.309 242.493 37.8755 243.275 38.6588 244.057C39.442 247.186 38.6588 255.009 37.8755 257.355ZM79.3871 150.189C78.6038 150.189 77.0374 149.407 77.0374 148.625C77.0374 148.625 77.8206 147.842 77.8206 147.06C79.3871 144.713 78.6039 143.149 74.6877 140.02C70.7715 136.891 66.8553 133.762 63.7223 131.415C60.5894 129.069 59.0229 126.722 56.6732 129.069C56.6732 129.069 55.89 129.851 55.89 130.633C55.1067 130.633 53.5403 129.851 53.5403 129.069C54.3235 127.504 58.2397 123.593 59.8062 121.246C59.8062 121.246 60.5894 120.464 60.5894 119.682C61.3726 119.682 62.1559 120.464 64.5056 120.464H94.2686C92.7021 118.9 86.4362 111.86 84.0865 109.513C80.9536 106.384 79.3871 104.82 77.0374 107.166C77.0374 107.166 76.2541 107.948 75.4709 107.948C74.6877 107.948 73.9044 107.166 73.9044 105.602C77.0374 102.473 80.9536 98.5616 84.0865 96.2149C84.8697 96.2149 85.653 97.7794 85.653 98.5616L84.8697 99.3439C83.3033 100.908 83.3033 102.473 87.2195 106.384C90.3524 109.513 102.101 122.811 103.667 123.593C103.667 124.375 103.667 125.158 102.884 125.94H64.5056C66.0721 127.504 75.4709 134.544 77.8206 136.891C82.52 140.02 83.3033 140.02 85.653 138.456L87.2195 136.891C88.0027 136.891 89.5692 137.673 89.5692 138.456C85.653 142.367 80.9536 147.842 79.3871 150.189ZM58.2397 364.522C57.4564 364.522 55.89 365.304 55.89 365.304C55.89 366.086 56.6732 366.086 56.6732 366.868C57.4564 369.997 56.6732 370.779 51.9738 373.126C50.4073 373.908 48.8408 374.691 46.4911 375.473L38.6588 359.828C41.0085 359.046 42.5749 358.264 44.1414 357.481C49.6241 355.135 50.4073 355.135 51.9738 358.264C51.9738 358.264 52.757 359.046 52.757 359.828C53.5403 359.828 55.1067 359.046 55.1067 358.264C52.757 353.57 50.4073 347.312 49.6241 343.401C48.0576 343.401 46.4911 344.183 46.4911 344.183C46.4911 344.966 46.4911 345.748 47.2744 345.748C47.2744 348.877 46.4911 349.659 41.7917 352.006C39.442 352.788 33.1761 355.135 28.4767 357.481C25.3437 359.046 22.2108 359.828 20.6443 356.699C20.6443 356.699 20.6443 355.917 19.8611 355.135C19.0778 355.135 17.5114 355.135 17.5114 355.917C19.0778 359.828 20.6443 365.304 23.7772 370.779C24.5605 370.779 26.127 370.779 26.127 369.997V368.433C25.3437 365.304 27.6934 364.522 30.8264 362.957C31.6096 362.957 33.1761 362.175 35.5258 361.393L43.3582 377.82L38.6588 380.166C35.5258 381.731 33.1761 383.295 30.8264 380.166C30.8264 380.166 30.8264 379.384 30.0431 378.602C29.2599 378.602 27.6934 379.384 27.6934 380.166C29.2599 384.077 32.3929 388.771 35.5258 394.246C36.309 394.246 37.8755 393.464 37.8755 392.682C37.8755 391.9 37.8755 391.9 37.0923 391.9C35.5258 388.771 37.8755 387.206 41.7917 385.642C44.1414 384.86 51.1905 380.948 54.3235 378.602C59.0229 376.255 60.5894 376.255 62.1559 378.602C62.1559 378.602 62.9391 379.384 62.9391 380.166C63.7223 380.166 65.2888 379.384 65.2888 378.602C62.9391 374.691 59.8062 368.433 58.2397 364.522ZM386.416 114.989C385.633 116.553 384.85 117.335 384.066 118.9C381.717 117.335 377.017 115.771 372.318 111.86C368.402 108.731 363.702 103.255 363.702 95.4327C364.485 88.3926 369.185 82.1347 374.667 79.788C382.5 76.6591 389.549 79.788 394.248 83.6992C400.514 88.3926 402.081 91.5215 402.864 92.3038C401.298 94.6505 399.731 96.9972 397.381 100.126C396.598 100.126 395.032 99.3439 395.032 98.5616C395.815 96.9972 396.598 95.4327 396.598 93.086C396.598 90.7393 395.032 88.3926 391.899 86.0459C387.982 82.9169 378.584 80.5702 372.318 90.7393C365.269 100.908 371.535 107.166 373.884 108.731C375.451 109.513 375.451 110.295 376.234 111.077C378.584 112.642 379.367 111.86 380.933 111.077C381.717 110.295 381.717 109.513 382.5 108.731C384.066 106.384 384.066 106.384 382.5 104.037C381.717 103.255 380.933 102.473 380.933 101.691C380.933 100.908 381.717 99.3439 383.283 99.3439C387.199 103.255 391.899 106.384 395.032 108.731C395.032 109.513 394.248 111.077 393.465 111.077C392.682 111.077 392.682 110.295 391.899 110.295C390.332 109.513 389.549 109.513 387.982 111.86C387.199 114.206 386.416 114.989 386.416 114.989ZM58.2397 183.825C57.4564 183.825 55.89 183.043 55.89 182.261C55.89 181.479 55.89 181.479 56.6732 181.479C57.4564 179.132 57.4564 177.567 51.9738 174.438C48.0576 172.092 42.5749 169.745 40.2252 168.181C36.309 165.834 34.7426 165.052 32.3929 168.181C32.3929 168.963 31.6096 168.963 31.6096 168.963C30.8264 168.963 29.2599 168.181 29.2599 167.398C32.3929 161.14 37.8755 151.754 44.1414 142.367C46.4911 143.149 49.6241 145.496 51.9738 146.278C51.9738 147.842 51.9738 148.625 50.4073 149.407C49.6241 149.407 48.8408 148.625 47.2744 148.625C45.7079 148.625 44.1414 148.625 41.7917 150.971C40.2252 151.754 38.6588 154.883 37.8755 156.447C37.0923 158.011 37.8755 158.011 38.6588 158.794C39.442 159.576 46.4911 163.487 47.2744 163.487L51.9738 154.883C53.5403 154.883 54.3235 155.665 55.1067 156.447L50.4073 165.052L55.89 168.181C60.5894 171.309 61.3726 169.745 62.9391 166.616C63.7223 165.052 64.5056 164.269 64.5056 163.487C66.0721 160.358 65.2888 158.794 63.7223 155.665C62.9391 154.883 62.9391 154.1 62.1559 154.1C62.1559 153.318 62.9391 151.754 64.5056 151.754C65.2888 152.536 70.7715 157.229 71.5547 158.794C68.4218 165.834 62.9391 175.221 58.2397 183.825ZM359.003 448.221C359.786 448.221 360.569 449.785 360.569 450.567C359.786 450.567 359.786 451.35 359.786 451.35C357.436 452.914 356.653 454.479 359.786 459.954C362.136 463.865 365.269 468.559 366.835 471.688C369.185 475.599 369.968 477.163 373.101 475.599C373.884 475.599 373.884 474.817 373.884 474.817C374.667 474.817 375.451 476.381 375.451 477.163C369.968 481.075 360.569 486.55 349.604 491.244C348.037 488.897 346.471 485.768 344.904 483.421C345.688 482.639 346.471 481.857 347.254 481.857C348.037 482.639 348.037 483.421 349.604 484.203C350.387 484.986 351.954 486.55 355.087 484.986C357.436 484.203 360.569 481.857 362.136 481.075C363.702 480.292 363.702 479.51 362.919 478.728C362.136 477.946 358.219 470.905 358.219 470.123L349.604 474.817C348.821 474.034 348.037 473.252 348.037 471.688L356.653 466.994C356.653 466.994 353.52 461.519 353.52 460.736C351.17 456.043 349.604 456.825 346.471 458.39C344.904 459.172 344.121 459.954 343.338 459.954C340.988 461.519 340.205 463.865 340.205 466.994V469.341C339.422 470.123 338.639 470.905 337.072 470.123C336.289 468.559 334.722 463.083 333.939 460.736C341.772 458.39 350.387 453.696 359.003 448.221ZM452.991 227.63C462.39 221.373 463.956 220.59 471.789 215.897C474.922 214.332 475.705 213.55 476.488 215.897C476.488 216.679 476.488 216.679 477.272 217.461C478.055 218.244 479.621 217.461 479.621 216.679C478.055 211.986 477.272 206.51 474.922 201.034C474.139 200.252 472.572 201.034 472.572 201.817V203.381C472.572 206.51 471.789 207.292 468.656 209.639C467.089 211.203 445.159 224.501 445.159 224.501C444.376 224.501 444.376 225.284 445.159 225.284C445.159 225.284 447.509 228.413 448.292 229.977C456.907 230.759 470.222 233.106 474.922 234.671C479.621 235.453 481.188 237.017 481.188 237.799V239.364C481.971 240.146 483.537 240.146 484.321 239.364C483.537 235.453 482.754 229.977 481.971 226.066C481.188 225.284 479.621 226.066 478.838 226.066V227.63C478.838 229.195 478.838 230.759 474.922 229.977C468.656 230.759 460.04 229.195 452.991 227.63ZM449.075 337.926C460.824 337.143 461.607 337.143 471.006 337.143C474.139 337.143 475.705 337.143 474.922 339.49V341.054C475.705 341.837 477.272 342.619 477.272 341.837C478.838 337.143 480.404 331.668 481.188 326.192C480.404 325.41 478.838 325.41 478.838 325.41C478.838 326.192 478.838 326.192 478.055 326.974C477.272 329.321 475.705 330.103 471.789 330.103C469.439 330.103 444.376 331.668 443.592 331.668C442.809 331.668 442.809 332.45 442.809 332.45V337.926C449.858 343.401 460.04 352.006 463.956 355.135C467.873 358.264 467.873 359.828 467.873 361.393C467.873 362.175 467.089 362.957 467.089 362.957C467.873 363.739 468.656 364.522 469.439 363.739C471.006 359.828 472.572 354.352 474.139 351.224C474.139 350.441 472.572 349.659 471.789 350.441C471.789 351.224 471.789 351.224 471.006 352.006C470.222 353.57 469.439 354.352 466.306 352.006C460.824 348.095 454.558 342.619 449.075 337.926ZM382.5 438.052C392.682 443.527 393.465 444.31 401.298 449.003C404.43 450.567 405.214 451.35 403.647 453.696L402.864 454.479C402.864 455.261 403.647 456.825 404.43 456.825C408.347 453.696 412.263 449.785 416.179 445.874C416.179 444.31 414.613 444.31 414.613 443.527C413.829 443.527 413.829 444.31 413.046 444.31C410.696 445.874 409.13 445.874 405.997 443.527C403.647 441.963 382.5 430.229 381.717 429.447H380.933L378.584 434.14C381.717 442.745 385.633 454.479 387.199 459.954C388.766 464.648 387.982 466.212 387.199 466.994C386.416 467.777 386.416 467.777 385.633 467.777C385.633 468.559 386.416 470.123 387.199 470.123C390.332 467.777 395.032 464.648 398.165 462.301C398.165 461.519 397.381 459.954 396.598 459.954C395.815 459.954 395.815 460.736 395.032 460.736C393.465 461.519 392.682 462.301 391.115 458.39C387.199 452.132 384.85 444.31 382.5 438.052ZM323.757 499.848C321.407 493.59 317.491 482.639 316.708 480.292C315.141 475.599 314.358 474.034 311.225 474.817H309.659C308.876 474.817 308.876 473.252 308.876 472.47C313.575 470.906 319.058 468.559 323.757 466.994C324.54 467.777 325.324 468.559 324.54 469.341C323.757 469.341 323.757 470.123 322.974 470.123C320.624 471.688 320.624 472.47 322.191 477.946C323.757 481.857 326.107 488.897 326.89 491.244C329.24 496.719 329.24 497.501 332.373 496.719C333.156 496.719 333.156 496.719 333.939 495.937C334.722 495.937 335.506 498.284 334.722 498.284C326.107 501.413 321.407 502.977 319.841 503.759C318.274 504.542 316.708 504.542 315.141 505.324C311.225 506.106 304.959 506.106 302.61 499.066C301.043 494.373 303.393 491.244 306.526 488.897L297.127 481.857C293.994 480.292 292.428 479.51 290.078 479.51H288.511C287.728 478.728 287.728 477.946 287.728 476.381C288.511 476.381 293.211 475.599 297.127 474.034L313.575 484.986V486.55C312.008 487.332 309.659 488.897 308.876 490.461C308.092 492.808 308.876 494.373 309.659 495.155C309.659 496.719 311.225 498.284 312.792 499.066C314.358 499.848 316.708 499.848 318.274 499.066C319.841 499.066 320.624 498.284 321.407 498.284C322.974 499.848 323.757 499.848 323.757 499.848ZM176.508 470.905C174.942 471.688 174.942 473.252 175.725 473.252C176.508 473.252 176.508 473.252 176.508 474.034C178.858 475.599 178.075 475.599 175.725 478.728C174.159 480.292 174.159 481.075 173.376 481.075C171.809 480.292 163.977 477.163 162.41 477.163V473.252C162.41 470.905 162.41 468.559 164.76 470.123C165.543 470.123 165.543 470.123 165.543 470.905C166.326 470.905 167.11 469.341 166.326 468.559C163.977 467.777 159.277 465.43 153.011 463.083C152.228 463.083 151.445 464.648 151.445 465.43C152.228 465.43 152.228 466.212 153.011 466.212C156.144 467.777 155.361 470.905 155.361 473.252C155.361 475.599 154.578 500.63 154.578 501.413L156.144 500.63H160.844C162.41 499.066 175.725 484.203 178.858 480.292C182.774 476.381 183.558 476.381 185.124 476.381H186.691C187.474 475.599 188.257 474.034 187.474 473.252C183.558 473.252 178.075 470.905 176.508 470.905ZM161.627 494.373L162.41 479.51L171.809 482.639L161.627 494.373ZM43.3582 324.628C42.5749 323.845 41.0085 324.628 40.2252 325.41V326.974C40.2252 329.321 39.442 329.321 36.309 329.321C33.9593 329.321 33.1761 329.321 32.3929 328.539C32.3929 326.974 30.0431 318.37 30.0431 316.805C30.8264 316.023 30.8264 316.023 33.1761 314.458C35.5258 312.894 37.0923 312.112 37.8755 314.458V316.023C38.6588 316.805 40.2252 316.023 41.0085 315.241C40.2252 312.894 39.442 308.201 38.6588 301.16C37.8755 300.378 36.309 301.16 35.5258 301.16V302.725C35.5258 305.854 32.3929 307.418 30.8264 308.201C28.4767 309.765 7.32927 322.281 6.54604 323.063C5.7628 323.063 6.54604 323.845 6.54604 323.845C6.54604 323.845 8.89574 326.974 8.89574 327.757C10.4622 327.757 30.8264 330.885 35.5258 331.668C41.0085 332.45 41.7917 334.014 42.5749 334.797C42.5749 335.579 43.3582 336.361 43.3582 336.361C44.9247 337.926 46.4911 337.143 46.4911 336.361C46.4911 334.797 44.1414 326.974 43.3582 324.628ZM15.1616 325.41L27.6934 317.587L30.0431 326.974L15.1616 325.41ZM455.341 265.178C454.558 265.96 452.991 265.96 452.208 265.178C452.208 259.702 451.425 256.573 451.425 251.88C452.208 251.097 452.991 250.315 454.558 251.88V253.444C455.341 255.009 455.341 256.573 460.824 257.355C464.74 257.355 474.139 258.138 476.488 258.138C479.621 258.138 483.537 258.138 483.537 254.226V252.662C484.321 251.88 485.104 251.88 486.67 252.662C487.454 257.355 487.454 260.484 487.454 265.96C485.887 265.96 484.321 265.96 481.188 267.524C477.272 269.089 467.873 273.782 463.173 276.129C465.523 277.693 479.621 283.951 480.404 284.734C481.971 285.516 485.104 287.08 487.454 287.08C487.454 290.991 486.67 295.685 486.67 299.596C485.887 300.378 484.321 300.378 483.537 299.596V298.032C483.537 295.685 483.537 294.903 478.838 294.903H462.39C457.691 294.903 455.341 295.685 455.341 298.032V300.378C454.558 301.161 452.991 300.378 452.208 300.378C452.991 292.556 452.991 290.209 453.774 285.516C454.558 284.734 456.124 284.734 456.907 285.516V287.08C456.907 288.645 456.907 290.209 462.39 289.427C467.089 289.427 478.055 289.427 481.188 288.645C478.055 287.08 467.873 282.387 462.39 280.04C456.907 277.693 455.341 276.911 453.774 276.129C452.991 275.347 452.991 274.565 453.774 273.782C454.558 273.782 458.474 272.218 462.39 269.871C467.089 267.524 478.838 262.831 480.404 262.049C476.488 262.049 466.306 262.049 463.173 261.267C459.257 261.267 456.124 261.267 456.124 264.395M214.887 504.542C214.887 505.324 214.104 506.888 212.537 507.671C211.754 508.453 209.404 509.235 206.271 509.235C205.488 509.235 203.922 508.453 201.572 508.453C201.572 508.453 204.705 492.026 205.488 488.115C206.271 482.639 207.055 481.857 210.188 481.857H211.754C212.537 481.075 212.537 479.51 212.537 478.728C207.838 477.946 200.789 476.381 196.873 475.599C196.089 476.381 196.089 477.946 196.089 477.946C196.873 477.946 197.656 478.728 197.656 478.728C200.789 479.51 200.789 481.075 199.222 486.55C198.439 488.897 195.306 506.888 195.306 506.888C192.956 506.106 190.607 506.106 189.824 505.324C186.691 504.542 186.691 502.195 186.691 501.413V498.284C185.907 497.501 184.341 497.501 183.558 497.501C183.558 499.066 181.991 505.324 181.991 506.888C194.523 510.017 201.572 511.582 213.321 513.146C213.321 512.364 216.454 505.324 217.237 504.542H214.887ZM136.563 480.292C135.78 481.075 134.997 481.857 133.43 482.639C131.864 483.421 129.514 483.421 127.165 481.857C126.381 481.075 124.815 480.292 123.248 479.51C123.248 479.51 131.864 465.43 134.214 462.301C137.347 457.607 138.13 456.825 140.48 457.608C140.48 457.608 141.263 457.607 142.046 458.39C142.829 458.39 143.613 456.825 143.613 456.043C139.696 453.696 133.43 449.785 130.298 447.438C129.514 447.438 128.731 449.003 128.731 449.785C129.514 450.567 129.514 450.567 130.298 450.567C132.647 452.914 131.864 453.696 129.514 458.39C127.948 460.736 118.549 475.599 118.549 475.599C116.199 474.034 114.633 473.252 113.85 472.47C111.5 470.906 112.283 467.777 112.283 466.994C112.283 466.212 113.066 465.43 113.066 464.648C113.066 463.865 111.5 463.083 110.717 463.083C109.933 463.865 106.8 469.341 106.017 470.905C116.199 477.946 122.465 481.857 133.43 488.115C134.214 488.115 138.913 482.639 139.696 481.857C138.913 481.075 137.347 480.292 136.563 480.292ZM34.7426 276.129V277.693C34.7426 280.822 33.9593 282.387 29.2599 282.387H22.994V273C22.2108 272.218 20.6443 272.218 19.8611 273V282.387C19.0778 282.387 10.4622 283.169 8.89574 283.169C8.11251 283.169 7.32927 283.169 7.32927 281.605V274.564C7.32927 269.089 14.3784 268.307 15.9449 267.524C16.7281 266.742 15.9449 265.96 15.1616 264.395C12.0287 264.395 6.54603 265.178 3.41309 265.178C3.41309 277.693 3.41309 285.516 4.19632 294.903H7.32927V293.338C7.32927 289.427 9.67898 289.427 14.3784 289.427C16.7281 289.427 22.994 289.427 28.4767 288.645C34.7426 287.863 35.5258 289.427 35.5258 291.774V292.556H38.6588C37.8755 287.08 37.8755 280.822 37.8755 275.347C37.0923 275.347 35.5258 276.129 34.7426 276.129ZM147.529 119.682C144.396 120.464 143.613 125.158 143.613 126.722C143.613 128.287 142.829 132.198 142.829 132.198C142.829 132.198 142.046 132.98 141.263 132.198C139.696 132.198 138.13 129.851 138.13 128.287V125.158C138.913 125.158 139.696 125.94 139.696 125.158C140.48 124.375 141.263 122.811 141.263 121.246C141.263 120.464 140.48 118.9 139.696 118.9H138.13V117.335C138.13 116.553 137.347 116.553 137.347 115.771H134.997C134.214 115.771 133.43 116.553 132.647 116.553C131.864 117.335 131.864 117.335 131.864 118.118C131.864 118.9 132.647 118.9 132.647 119.682C131.864 119.682 131.081 119.682 131.081 120.464C130.297 121.246 130.298 122.029 130.298 123.593C131.081 125.94 131.864 126.722 132.647 127.504C133.43 127.504 133.43 127.504 134.214 126.722C134.214 127.504 134.997 128.287 134.997 129.851C134.997 131.416 134.997 134.544 133.43 135.327C132.647 135.327 132.647 136.109 131.864 135.327L129.514 130.633C127.165 127.504 125.598 125.158 123.248 125.158C122.465 125.158 121.682 125.94 120.899 126.722C120.115 127.504 120.115 130.633 121.682 132.198C123.248 133.762 124.815 133.762 125.598 132.98C127.165 135.327 127.948 136.891 129.514 140.802C130.297 143.149 131.081 146.278 131.864 148.625C132.647 150.971 134.214 151.754 137.347 152.536C137.347 152.536 138.13 171.309 144.396 208.075C144.396 209.639 148.312 209.639 149.878 209.639C151.445 209.639 154.578 208.075 153.795 205.728C147.529 168.963 144.396 150.971 144.396 151.754C145.962 150.971 148.312 149.407 148.312 146.278V137.673C148.312 134.544 148.312 132.198 149.095 129.069C150.662 129.069 151.445 128.287 152.228 126.722C153.011 125.158 153.011 122.811 152.228 121.246C149.878 120.464 149.095 119.682 147.529 119.682ZM142.829 248.751C144.396 250.315 148.312 252.662 153.795 251.88C159.277 251.097 161.627 248.751 163.193 245.622C164.76 247.186 167.893 260.484 156.144 262.049C144.396 264.395 142.046 252.662 142.829 248.751Z" fill="white"/>
<path d="M167.11 226.066C166.327 225.284 166.327 225.284 164.76 224.502C165.543 223.719 165.543 222.937 166.327 222.155C167.11 220.59 167.11 219.026 166.327 216.679C165.543 215.115 163.977 215.115 163.194 215.115C163.194 214.333 163.194 214.333 163.977 213.55C163.977 211.986 163.977 211.204 163.194 209.639C161.627 208.075 157.711 208.075 156.928 208.857C155.361 211.204 152.228 212.768 149.879 212.768C146.746 213.55 144.396 212.768 141.263 211.204C138.913 210.421 138.13 209.639 136.564 211.204C134.997 212.768 134.214 214.333 134.214 217.461C134.214 219.808 136.564 221.373 136.564 222.937C137.347 225.284 135.78 226.066 135.78 228.413C135.78 229.977 137.347 230.759 138.13 232.324C138.913 233.888 138.13 234.671 138.13 237.017C138.13 238.582 140.48 240.146 140.48 240.929C140.48 241.711 140.48 244.057 141.263 244.84C142.046 245.622 143.613 246.404 145.179 246.404C148.312 247.186 153.012 247.186 158.494 244.84C160.844 244.057 164.76 241.711 166.327 238.582C167.11 237.017 166.327 234.671 165.543 233.888C167.11 233.106 167.11 232.324 167.893 231.542C167.893 229.195 167.893 226.848 167.11 226.066ZM155.361 234.671C154.578 235.453 153.012 235.453 153.012 235.453C153.012 236.235 153.795 237.017 153.795 237.8C153.795 237.8 151.445 238.582 150.662 237.8C149.879 237.017 149.879 236.235 149.879 236.235H147.529C146.746 236.235 145.962 233.888 146.746 233.106C147.529 232.324 148.312 233.106 149.095 232.324C148.312 231.542 148.312 230.759 149.095 229.977C149.095 229.977 151.445 229.195 152.228 229.977C153.012 229.977 153.012 231.542 153.012 232.324C153.795 232.324 155.361 231.542 155.361 232.324C155.361 232.324 156.144 234.671 155.361 234.671ZM210.188 132.98C210.971 127.504 213.321 122.029 214.104 119.682C214.104 118.9 213.321 117.335 212.538 117.335C211.754 117.335 182.775 124.376 160.061 139.238C155.361 142.367 159.277 152.536 162.41 160.358C172.592 185.39 185.124 181.479 189.04 201.035C190.607 207.292 196.09 231.542 196.873 234.671C199.223 240.929 204.705 245.622 211.754 244.84C209.405 212.768 207.055 161.923 210.188 132.98ZM179.642 152.536C178.858 155.665 175.725 162.705 174.159 161.923C171.809 161.923 170.243 154.1 170.243 150.972C170.243 148.625 171.026 147.843 171.809 147.843C172.592 147.843 173.376 150.189 173.376 154.1H175.725C176.509 150.189 178.075 148.625 178.858 148.625C179.642 149.407 180.425 150.972 179.642 152.536ZM189.824 132.198C189.824 130.633 190.607 129.851 191.39 129.851C192.173 129.851 192.173 132.198 192.173 136.109H193.74C195.306 132.198 196.873 131.416 197.656 131.416C198.439 132.198 198.439 132.98 197.656 135.327C196.873 137.674 192.957 143.931 191.39 143.149C189.824 142.367 189.824 135.327 189.824 132.198ZM200.006 168.963C199.223 172.092 194.523 179.132 192.957 179.132C190.607 178.35 189.824 169.745 189.824 166.616C189.824 164.27 190.607 163.487 191.39 163.487C192.173 163.487 192.957 166.616 192.957 170.527H195.306C196.873 165.834 199.223 164.27 199.223 165.052C200.789 165.052 200.789 167.398 200.006 168.963ZM333.939 139.238C308.092 122.811 279.896 117.335 279.113 117.335C278.329 117.335 277.546 118.9 277.546 119.682C278.329 122.029 280.679 127.504 281.462 132.98C284.595 161.923 281.462 212.768 279.113 244.057C286.162 244.84 291.645 240.146 293.994 233.888C294.777 230.759 300.26 206.51 301.827 200.252C305.743 184.608 326.107 178.35 330.806 161.141C334.723 152.536 338.639 142.367 333.939 139.238ZM293.211 131.416C293.994 131.416 295.561 132.198 297.127 136.109H298.694C297.91 132.98 298.694 130.633 299.477 129.851C300.26 129.851 301.043 130.633 301.043 132.198C301.827 134.545 301.043 142.367 299.477 143.149C297.91 143.931 293.994 137.674 293.211 135.327C292.428 133.762 292.428 132.198 293.211 131.416ZM299.477 183.825C297.91 184.608 293.211 176.785 292.428 173.656C291.645 171.31 291.645 169.745 292.428 169.745C293.211 169.745 295.561 170.527 296.344 175.221H298.694C298.694 171.31 299.477 168.181 300.26 168.181C301.043 168.181 301.827 168.963 301.827 171.31C302.61 174.439 301.827 183.043 299.477 183.825ZM319.058 163.487C317.491 163.487 314.358 157.229 313.575 154.1C312.792 152.536 313.575 150.972 314.358 150.189C315.142 150.189 316.708 151.754 317.491 155.665H319.841C319.841 151.754 321.408 149.407 322.191 149.407C322.974 149.407 323.757 150.189 323.757 152.536C322.974 155.665 321.408 163.487 319.058 163.487ZM266.581 82.9171C266.581 82.9171 266.581 78.2237 261.882 75.877V75.0947C261.882 75.0947 266.581 74.3125 268.931 76.6592V78.2237C272.064 86.046 266.581 89.1749 266.581 95.4328C260.315 91.5217 254.832 91.5217 254.832 91.5217L251.699 82.9171C251.699 82.9171 253.266 82.9171 256.399 82.1348C260.315 82.1348 263.448 81.3526 266.581 82.9171ZM244.65 55.5388C235.251 55.5388 225.853 56.3211 219.587 59.45C218.803 57.1033 216.454 45.3698 212.538 40.6764C211.754 39.8942 210.188 38.3297 210.188 37.5474C210.188 37.5474 209.405 36.7652 210.188 35.983C210.971 35.983 211.754 35.2007 212.538 35.983C214.104 35.983 214.887 36.7652 214.887 38.3297H215.671V35.983C215.671 35.2007 217.237 35.2007 218.803 36.7652C218.803 38.3297 219.587 39.1119 219.587 39.8942C219.587 40.6764 220.37 41.4586 219.587 42.2409H217.237V43.0231C218.02 44.5876 221.153 46.152 224.286 46.152C228.202 45.3698 228.986 43.8053 228.202 41.4586L227.419 42.2409C226.636 42.2409 225.853 42.2409 225.069 40.6764C224.286 39.1119 224.286 38.3297 225.069 37.5474C225.069 36.7652 226.636 36.7652 228.202 37.5474V36.7652C226.636 35.983 225.853 35.2007 225.853 34.4185C225.853 33.6363 226.636 32.854 228.202 32.0718C230.552 31.2896 231.335 32.854 232.118 33.6363C232.118 34.4185 232.118 35.983 231.335 36.7652L232.118 35.983H232.902C233.685 35.983 234.468 35.983 234.468 38.3297C235.251 40.6764 233.685 41.4586 232.902 41.4586C232.118 41.4586 231.335 41.4586 231.335 40.6764C232.902 43.8053 234.468 45.3698 238.384 44.5876C241.517 44.5876 243.867 42.2409 243.867 38.3297C243.867 38.3297 243.084 39.1119 242.301 39.1119C241.517 39.1119 240.734 38.3297 239.951 36.7652C239.168 35.2007 239.951 34.4185 240.734 33.6363C241.517 33.6363 242.301 33.6363 243.084 34.4185C242.301 32.854 241.517 32.0718 241.517 31.2896C241.517 30.5073 243.084 29.7251 244.65 29.7251C247 29.7251 247.783 30.5073 247.783 31.2896C247.783 32.0718 247.783 32.854 247 33.6363C247 33.6363 248.566 32.854 249.35 32.854C250.133 32.854 250.916 34.4185 250.133 35.983C250.133 37.5474 249.35 38.3297 247.783 38.3297C247 38.3297 246.217 37.5474 246.217 37.5474C246.217 41.4586 248.566 43.0231 251.699 43.8053C254.832 43.8053 257.182 42.2409 258.749 39.8942C257.965 39.8942 257.182 40.6764 257.182 40.6764C256.399 40.6764 254.832 39.8942 255.616 37.5474C256.399 35.2007 256.399 35.2007 257.182 35.2007H257.965C257.965 35.2007 258.749 35.2007 258.749 35.983C257.965 35.2007 257.182 33.6363 257.965 32.854C257.965 32.0718 258.749 31.2896 261.098 31.2896C263.448 32.0718 263.448 32.854 263.448 33.6363C263.448 34.4185 263.448 35.983 261.098 35.983V36.7652C262.665 35.983 263.448 36.7652 264.231 36.7652V39.8942C263.448 41.4586 261.882 41.4586 261.882 41.4586C261.098 41.4586 261.098 40.6764 261.098 40.6764C261.098 43.0231 261.882 45.3698 265.014 45.3698C268.147 46.152 270.497 43.8053 272.064 42.2409V41.4586C271.28 42.2409 270.497 42.2409 269.714 41.4586C268.931 40.6764 268.931 39.8942 269.714 39.1119C269.714 38.3297 270.497 37.5474 271.28 36.7652C272.847 35.2007 273.63 35.983 274.413 35.983V38.3297H275.197C275.197 36.7652 275.98 35.983 277.546 35.983H279.896C280.679 35.983 279.896 36.7652 279.896 37.5474C279.896 37.5474 277.546 39.8942 277.546 40.6764C273.63 45.3698 271.28 57.1033 270.497 59.45C264.231 56.3211 254.832 55.5388 244.65 55.5388Z" fill="white"/>
<path d="M239.168 105.602C241.517 105.602 243.867 102.473 243.867 102.473H246.217C246.217 102.473 247.783 105.602 250.133 105.602C259.532 106.384 266.581 107.949 268.931 109.513C271.28 106.384 270.497 102.473 265.014 99.344C263.448 98.5618 257.965 96.2151 249.35 96.2151C244.65 100.909 239.168 94.6506 233.685 96.9973C236.035 94.6506 238.384 92.3039 240.734 92.3039C240.734 92.3039 241.517 93.0862 243.084 93.8684C244.65 94.6506 247.783 93.8684 248.566 92.3039C249.35 91.5217 246.217 73.5303 246.217 73.5303C246.217 73.5303 254.049 68.8369 260.315 68.8369C266.581 68.8369 268.147 72.7481 268.147 72.7481C271.28 60.2323 254.832 61.0145 243.867 61.0145C213.321 61.0145 221.153 67.2724 221.936 77.4415C221.936 80.5704 217.237 82.9171 221.936 93.0862C222.72 94.6506 223.503 96.2151 223.503 99.344C219.587 101.691 218.02 105.602 220.37 109.513C225.069 107.166 232.902 106.384 239.168 105.602ZM243.084 73.5303L241.517 82.9171C241.517 82.9171 239.951 82.1349 236.035 82.1349H226.636C226.636 79.7882 228.202 76.6592 232.119 75.877V75.0948L225.853 73.5303C229.769 64.1435 240.734 72.7481 243.084 73.5303ZM266.581 113.424C251.699 110.295 237.601 110.295 222.72 113.424C220.37 124.376 216.454 146.278 221.936 152.536C223.503 154.1 231.335 157.229 239.951 155.665C242.301 154.1 242.301 144.714 242.301 140.02C243.084 133.762 243.084 132.98 243.867 132.98H246.217C247 133.762 247 154.1 250.133 155.665C257.182 158.012 268.147 155.665 269.714 152.536C273.63 147.06 269.714 119.682 266.581 113.424ZM244.65 122.029C237.601 122.029 235.251 119.682 235.251 115.771C235.251 115.771 236.818 117.335 244.65 117.335C251.699 117.335 254.049 115.771 254.049 115.771C254.049 120.464 251.699 122.029 244.65 122.029ZM244.65 311.33C221.153 311.33 194.523 313.676 183.558 316.023C181.208 310.547 174.159 294.121 165.543 283.951L159.277 277.694C158.494 276.911 157.711 275.347 159.277 274.565C160.844 273.782 163.194 273.782 165.543 273.782C168.676 274.565 170.243 276.129 171.026 279.258C171.026 279.258 171.809 280.04 172.592 280.04C171.809 277.694 171.809 276.129 173.376 274.565C174.159 273.782 176.509 272.218 180.425 275.347C181.991 276.911 182.775 278.476 183.558 280.04C184.341 282.387 185.124 283.951 182.775 285.516C181.208 286.298 179.642 286.298 178.075 285.516V287.08C180.425 290.209 187.474 294.903 194.523 293.338C203.139 291.774 205.488 287.08 204.705 282.387L203.922 281.605C203.139 282.387 202.355 283.169 200.789 283.169C200.006 283.169 196.873 283.169 194.523 279.258C192.957 276.129 192.957 273.782 193.74 273C194.523 272.218 196.873 271.436 200.789 272.218V271.436C196.09 269.871 195.306 267.525 195.306 265.96C195.306 264.396 196.09 262.049 201.572 261.267C207.838 260.484 209.405 262.831 210.188 264.396C210.971 265.96 210.188 269.089 207.838 270.653L208.621 271.436C209.405 270.654 210.188 270.654 210.971 269.871C211.754 269.089 212.538 269.089 213.321 269.089C214.887 269.089 217.237 269.871 218.02 273.782C219.587 279.258 215.671 280.823 214.104 280.823C213.321 280.823 210.971 280.823 210.188 280.04L209.405 280.823C212.538 287.08 218.02 290.209 226.636 290.209C234.468 289.427 239.951 285.516 239.951 276.911H239.168C239.168 276.911 237.601 279.258 235.251 279.258C232.902 279.258 230.552 277.694 229.769 273.782C228.986 269.871 230.552 267.525 232.119 266.742C234.468 265.96 236.818 267.525 237.601 268.307L238.384 267.525C236.818 265.96 235.251 264.396 236.035 262.049C236.818 259.702 239.168 258.138 243.867 258.138C248.566 258.138 251.699 259.702 251.699 262.049C252.483 263.613 250.916 265.178 249.35 267.525L250.133 268.307C250.916 267.525 253.266 265.96 255.616 266.742C257.965 267.525 259.532 269.871 257.965 273.782C257.182 276.911 254.832 279.258 252.483 279.258C250.133 279.258 248.566 277.694 248.566 276.911H247.783C247.783 285.516 253.266 289.427 261.098 290.209C269.714 290.992 275.197 287.08 278.329 280.823C278.329 280.823 278.329 280.04 277.546 280.04C276.763 280.823 274.413 280.823 273.63 280.823C272.847 280.823 268.931 280.04 269.714 273.782C270.497 269.089 272.847 269.089 274.413 269.089C275.197 269.089 275.98 269.089 276.763 269.871C277.546 270.654 278.329 270.654 279.113 271.436L279.896 270.653C277.546 268.307 276.763 265.178 277.546 264.396C278.329 262.831 279.896 260.484 286.162 261.267C291.645 262.049 292.428 264.396 292.428 265.96C292.428 267.525 291.645 270.654 286.945 271.436V272.218C290.861 271.436 293.211 271.436 293.994 273C294.777 273.782 294.777 276.129 293.211 279.258C290.861 283.169 287.728 283.169 286.945 283.169C285.379 283.169 284.595 281.605 283.812 281.605C283.812 281.605 283.029 281.605 283.029 282.387C282.246 287.863 284.595 292.556 293.211 293.338C300.26 294.121 307.309 290.209 309.659 287.08V285.516C308.092 286.298 305.743 286.298 304.96 285.516C303.393 283.951 304.176 282.387 304.176 280.04C304.96 278.476 305.743 276.911 307.309 275.347C311.225 272.218 313.575 273 314.358 274.565C315.142 275.347 315.142 277.694 315.142 280.04C315.142 280.04 315.925 279.258 316.708 279.258C317.491 275.347 319.058 273.782 322.191 273.782C324.54 273 326.89 273.782 328.457 274.565C330.023 275.347 329.24 276.911 328.457 277.694L322.191 283.951C312.792 294.121 306.526 309.765 304.176 316.023C295.561 314.459 268.147 311.33 244.65 311.33ZM226.636 418.496C228.202 418.496 228.986 417.714 229.769 416.149H225.069C225.853 417.714 225.853 418.496 226.636 418.496ZM228.202 374.691H223.503C223.503 376.255 224.286 377.037 225.069 377.037C225.853 377.037 226.636 376.255 228.202 374.691ZM271.28 388.771H272.064C275.197 388.771 277.546 387.206 277.546 383.295C277.546 379.384 273.63 377.82 271.28 377.82C264.231 377.82 265.014 385.642 257.182 386.424H261.098C267.364 386.424 269.714 386.424 271.28 388.771Z" fill="white"/>
<path d="M275.98 424.754C275.98 420.843 272.847 420.06 271.28 420.06C265.798 420.06 264.231 427.1 257.965 427.883H261.098C265.798 427.883 268.147 428.665 268.931 430.229H269.714C272.847 430.229 275.98 427.883 275.98 424.754ZM271.28 347.312H272.064C275.197 347.312 278.33 345.748 278.33 341.837C278.33 337.926 275.197 336.361 272.847 336.361C266.581 336.361 265.015 344.184 257.965 344.966H261.882C267.364 344.966 269.714 345.748 271.28 347.312ZM224.286 335.579C225.853 335.579 226.636 334.797 227.419 333.232H222.72C222.72 334.797 223.503 335.579 224.286 335.579ZM378.584 213.55C380.934 213.55 383.283 214.333 383.283 218.244C383.283 222.937 380.934 224.502 379.367 224.502C377.017 224.502 372.318 223.719 372.318 218.244C372.318 214.333 377.017 213.55 378.584 213.55ZM352.737 215.115C355.087 215.115 356.653 217.461 357.437 218.244C357.437 216.679 359.786 215.115 361.353 215.115C364.486 215.115 365.269 217.461 366.835 220.59C368.402 223.719 369.968 226.848 373.884 226.848C373.884 232.324 372.318 235.453 367.619 235.453C365.269 235.453 364.486 234.671 363.702 234.671C362.919 236.235 362.136 237.8 358.22 237.8C355.87 237.8 353.52 236.235 352.737 235.453C351.171 237.017 349.604 237.8 347.254 237.8C344.905 237.8 343.338 236.235 341.772 234.671C340.989 234.671 339.422 235.453 338.639 235.453C334.723 235.453 333.156 227.631 333.156 226.066C333.156 223.719 334.723 222.155 337.072 222.155C337.856 222.155 338.639 222.155 339.422 222.937C339.422 221.373 340.205 218.244 343.338 218.244C344.905 218.244 346.471 219.026 347.254 219.808C349.604 217.461 350.387 215.115 352.737 215.115Z" fill="white"/>
<path d="M351.954 185.39C345.688 185.39 330.807 192.43 330.807 207.292C330.807 210.421 330.807 214.332 331.59 216.679C331.59 216.679 332.373 215.897 333.94 215.897C334.723 215.897 336.289 216.679 337.856 218.244C337.856 215.897 338.639 213.55 342.555 213.55C344.905 213.55 345.688 214.332 346.471 215.115C347.255 211.986 349.604 211.203 351.954 211.203C354.304 211.203 356.653 212.768 357.437 215.115C357.437 212.768 359.786 211.986 361.353 211.986C365.269 211.986 366.836 214.332 368.402 217.461C368.402 213.55 373.885 211.986 378.584 211.986H380.151C380.151 200.252 374.668 190.865 362.136 187.736C364.486 168.18 362.919 166.616 362.919 165.834C362.136 165.052 361.353 165.052 360.57 164.269V161.14C362.136 161.14 363.703 158.794 363.703 157.229C363.703 156.447 362.136 147.06 362.136 146.278C362.136 145.496 362.919 144.713 363.703 144.713C364.486 144.713 372.318 148.625 373.885 148.625C376.234 148.625 377.801 147.06 377.801 144.713C377.801 142.367 376.234 140.02 374.668 140.02C373.885 140.02 366.052 141.585 364.486 142.367C363.703 142.367 362.919 141.585 362.919 140.02C362.919 140.02 366.052 130.633 366.052 129.851C366.052 127.504 364.486 125.94 362.136 125.94C359.786 125.158 357.437 126.722 357.437 129.069C357.437 129.851 359.003 139.238 359.003 140.02C359.003 140.802 358.22 141.585 357.437 141.585C355.87 140.802 348.038 138.456 347.255 137.673C344.905 137.673 343.338 139.238 343.338 141.585C343.338 143.931 344.905 146.278 346.471 146.278C347.255 146.278 356.653 143.931 357.437 143.931C358.22 143.931 359.003 144.713 359.003 146.278C359.003 146.278 356.653 155.665 355.87 156.447C355.87 158.011 356.653 160.358 358.22 160.358V163.487C357.437 163.487 356.653 163.487 355.87 164.269C353.521 163.487 352.737 165.052 351.954 185.39Z" fill="white"/>
</g>
</svg>
